<?xml version="1.0" encoding="UTF-8" standalone="no"?>
<svg
   xmlns:dc="http://purl.org/dc/elements/1.1/"
   xmlns:cc="http://creativecommons.org/ns#"
   xmlns:rdf="http://www.w3.org/1999/02/22-rdf-syntax-ns#"
   xmlns:svg="http://www.w3.org/2000/svg"
   xmlns="http://www.w3.org/2000/svg"
   xmlns:sodipodi="http://sodipodi.sourceforge.net/DTD/sodipodi-0.dtd"
   xmlns:inkscape="http://www.inkscape.org/namespaces/inkscape"
   width="400"
   height="300"
   version="1.1"
   id="svg6"
   sodipodi:docname="af.svg"
   inkscape:version="1.0.2-2 (e86c870879, 2021-01-15)">
  <sodipodi:namedview
     pagecolor="#ffffff"
     bordercolor="#666666"
     borderopacity="1"
     objecttolerance="10"
     gridtolerance="10"
     guidetolerance="10"
     inkscape:pageopacity="0"
     inkscape:pageshadow="2"
     inkscape:window-width="1916"
     inkscape:window-height="2041"
     id="namedview7"
     showgrid="false"
     inkscape:zoom="3.42"
     inkscape:cx="200"
     inkscape:cy="150"
     inkscape:window-x="1611"
     inkscape:window-y="0"
     inkscape:window-maximized="0"
     inkscape:current-layer="svg6" />
  <metadata
     id="metadata12">
    <rdf:RDF>
      <cc:Work
         rdf:about="">
        <dc:format>image/svg+xml</dc:format>
        <dc:type
           rdf:resource="http://purl.org/dc/dcmitype/StillImage" />
        <dc:title></dc:title>
      </cc:Work>
    </rdf:RDF>
  </metadata>
  <defs
     id="defs10" />
  <path
     d="M 0,0 H 400 V 300 H 0 Z"
     fill="#ffffff"
     id="path2-6"
     style="fill:#ffffff;stroke-width:0.489898" />
  <path
     d="m 299.90578,199.08746 c 7.11247,-2.91868 14.20068,-5.87948 21.31489,-8.79214 -0.37565,1.07707 -0.86821,2.30882 -2.13162,2.85261 -6.55836,2.68141 -13.10373,5.38516 -19.65992,8.06517 -0.43239,0.18479 -0.86123,0.38604 -1.3326,0.48375 0.43239,-0.73754 0.83992,-1.48409 1.2563,-2.22623 0.0887,-0.20729 0.33857,-0.28994 0.55299,-0.38303 z m -22.14801,-10.14731 c 1.53175,0.99412 2.92384,2.13032 3.90019,3.35435 1.80738,2.35994 2.27341,5.41981 1.1518,8.07426 -0.0975,0.21783 -0.30303,0.38001 -0.47847,0.55438 0.34734,-1.46912 0.45005,-3.02536 -0.0939,-4.46886 -0.74595,-2.097 -2.43466,-3.85768 -4.6885,-4.88823 0.0385,-0.91707 0.15343,-1.84225 0.20909,-2.62572 z m -58.6778,-1.27693 c 0.9533,-0.68351 2.27698,-0.74958 3.46955,-0.74806 1.19791,0.0706 2.46486,0.11569 3.52097,0.658 0.49969,0.49267 0.0248,1.07556 -0.48722,1.38497 -2.07677,1.27078 -4.36444,2.37346 -6.04974,4.04238 -0.45716,0.43113 -0.21975,1.10259 0.358,1.35495 0.87354,0.37107 1.88537,0.38905 2.84572,0.36806 2.28052,-0.10514 4.47059,-0.83667 6.37901,-1.87917 0.53154,-0.28692 1.00823,-0.64444 1.55757,-0.91036 -1.17658,1.20921 -2.49852,2.31934 -3.95681,3.28373 -1.22978,0.7826 -2.61545,1.46161 -4.15358,1.66588 -1.21021,0.0872 -2.51261,0.0376 -3.55819,-0.54228 -1.16424,-0.58439 -1.7099,-1.89273 -1.27939,-2.9728 0.2605,-0.60688 0.7424,-1.12065 1.2492,-1.59375 1.30772,-1.17468 2.90603,-2.073 4.50091,-2.93978 -1.08084,-0.0436 -2.17594,-0.0931 -3.24981,0.018 -0.70167,0.06 -1.17304,0.50625 -1.67091,0.8683 -0.15057,-0.7044 -0.15413,-1.53965 0.52456,-2.05793 z m -42.79831,-1.76799 c 0.94806,-0.39357 2.25579,-0.33654 3.00351,0.34847 0.62551,0.62785 0.69288,1.49164 0.64683,2.27728 -0.50148,0.56628 -1.07907,1.0876 -1.49918,1.70492 -0.87886,0.13818 -1.80206,0.0166 -2.66151,0.2358 -0.43239,0.2133 -0.99758,0.34245 -1.20501,0.77207 -0.27116,0.55437 -0.14524,1.17018 -0.0301,1.744 0.44649,2.0039 1.27229,3.97328 1.22979,6.03718 -0.0479,0.72407 -0.10449,1.47518 -0.50858,2.13006 -0.0939,-1.14765 -0.57053,-2.23226 -0.91609,-3.33637 -0.65215,-2.01144 -1.16948,-4.07539 -1.24577,-6.16628 -0.0851,-0.80522 0.4607,-1.49767 1.01178,-2.10454 0.81336,-0.96439 2.27165,-1.24678 3.56694,-1.4556 -0.33668,-0.26291 -0.71766,-0.56628 -1.21553,-0.50775 -0.69643,0.0857 -1.16771,0.57984 -1.55048,1.03501 -0.069,-1.00477 0.25529,-2.1915 1.37336,-2.71425 z m 62.06572,-0.38906 c 0.062,-0.054 0.14358,-0.0751 0.24451,-0.0616 -0.36854,0.35751 -0.57062,0.80812 -0.85413,1.21376 -0.80626,1.29188 -1.73833,2.66342 -1.52392,4.18357 0.0229,0.71354 0.49615,1.63582 1.4796,1.62979 0.48025,-0.20276 0.60428,-0.72255 0.84525,-1.09657 -0.0301,1.11313 -0.22331,2.46505 -1.45651,3.10195 -1.02421,-0.13969 -1.79317,-0.91028 -1.83394,-1.78005 -0.20909,-2.63036 1.08976,-5.22442 3.09913,-7.19088 z M 54.63702,170.68726 c 0.586515,-0.88628 1.137595,-1.85218 2.163632,-2.43805 -1.245647,2.13153 -2.54103,4.2917 -3.085047,6.64544 -0.180769,0.89984 -0.271161,1.93935 0.414624,2.7129 0.533315,0.48514 1.389222,0.57382 2.119311,0.42359 1.107536,-0.20727 1.623174,-1.18975 2.080327,-1.96937 0.350891,0.58136 -0.01242,1.20926 -0.173666,1.7891 -0.458928,1.22733 -1.006449,2.55663 -2.273413,3.35435 -0.972839,0.63089 -2.367389,0.3785 -3.30301,-0.17725 -1.233346,-0.81718 -1.261637,-2.29985 -1.045451,-3.50005 0.48722,-2.42891 1.747081,-4.68374 3.102686,-6.84083 z m 90.29552,-9.50872 c 0.36143,-0.58287 1.07032,-1.2738 1.9403,-0.98246 1.04544,0.26744 2.28944,0.97041 2.12287,2.02488 -0.27993,0.35902 -0.63973,0.66693 -0.95685,1.00195 -0.33845,-0.5438 -0.71766,-1.23924 -1.51149,-1.35495 -1.03301,0.28691 -1.6515,1.16562 -1.97751,2.00238 -0.68578,1.82818 -0.83814,3.75842 -1.02955,5.65852 -0.24984,0.11268 -0.49969,0.22385 -0.75483,0.32599 0.007,-1.74851 -0.4413,-3.6052 -1.82514,-4.96015 -0.31369,-0.44923 -1.01001,-0.22385 -1.48138,-0.44017 -0.87886,-0.26733 -1.1979,-1.08006 -1.41054,-1.77554 -0.10626,-0.47019 -0.29591,-1.03501 0.0744,-1.45408 0.77797,-0.1893 1.38745,0.38905 1.94208,0.75409 1.42822,1.15069 2.41522,2.63175 3.2233,4.13999 0.34011,-1.68396 0.69989,-3.41136 1.64439,-4.94066 z m 148.57474,-4.61485 c 1.08097,-0.31544 2.21858,0.0991 3.10268,0.62785 1.47605,0.92531 2.62789,2.18265 3.51742,3.5331 0.47492,0.7826 1.01711,1.64037 0.82571,2.55073 -0.11337,0.61291 -0.17011,1.27077 -0.60251,1.79361 -0.47847,0.50173 -1.37678,0.45061 -1.97929,0.15174 -0.68755,-0.3305 -1.34312,-0.70748 -2.06256,-0.98687 -0.97284,2.24123 -3.02296,4.00628 -5.24522,5.40638 -1.50437,0.97643 -3.1541,1.77852 -4.82497,2.52811 -1.03133,0.47171 -2.17251,0.72407 -3.27814,1.03046 -1.10398,0.26593 -2.22736,0.6159 -3.39338,0.51828 0.73542,-0.0361 1.31661,-0.44017 1.93675,-0.72857 3.23204,-1.59375 6.39849,-3.30781 9.27433,-5.34009 1.52746,-1.12066 3.0886,-2.28781 4.11801,-3.78097 -0.66446,-0.12171 -1.33082,-0.22685 -2.00238,-0.30348 -0.54042,-1.33247 -0.54575,-2.96227 0.62014,-4.06486 -0.58119,-0.3785 -0.6486,-1.06503 -0.74595,-1.63582 -0.083,-0.49719 0.11361,-1.12807 0.7391,-1.29941 m 2.89906,3.30032 c 0.21975,0.98688 0.28526,1.99337 0.30303,2.9968 0.91075,0.11117 1.81631,0.41757 2.74482,0.32899 0.47314,-0.0585 0.45538,-0.58587 0.19309,-0.83676 -0.86301,-1.00788 -2.06078,-1.76648 -3.24092,-2.48903 m -3.08505,1.61035 c 0.46604,0.73161 1.52214,0.91781 2.38515,1.15219 0.17722,-0.47171 0.40574,-0.96591 0.31891,-1.46612 -0.31192,-0.51681 -0.73543,-1.19275 -1.51859,-1.18976 -0.67689,0.29445 -0.9445,0.93736 -1.18547,1.50369 z m -59.78255,-6.30146 c 0.53687,-0.5889 1.44598,-0.87583 2.30353,-0.89832 0.5954,-0.005 0.88419,0.53778 1.02067,0.95083 0.25872,0.97496 0.3048,2.03544 -0.25518,2.94429 0.29059,0.17876 0.58297,0.36052 0.88065,0.53778 -0.078,0.62343 -0.13292,1.25132 -0.14713,1.87917 -0.59185,-0.26884 -1.04723,-0.69695 -1.55403,-1.05749 -1.57712,2.30586 -3.88242,4.30526 -6.75462,5.43497 -1.51858,0.64895 -3.25691,0.93285 -4.94758,0.7541 3.20194,-0.97041 6.31185,-2.37047 8.63487,-4.51868 0.79916,-0.73603 1.4867,-1.5503 2.0679,-2.42146 -0.45005,-0.40712 -0.98883,-0.75561 -1.33958,-1.23182 -0.27981,-0.76155 -0.48535,-1.67178 0.0905,-2.37337 m 0.87886,0.75111 c 0.23219,0.55728 0.67689,1.01702 1.13938,1.44952 0.19487,-0.48223 0.45005,-1.00645 0.16478,-1.50216 -0.43762,-0.072 -0.87709,-0.0314 -1.30418,0.0526 z m -179.594596,6.03588 c 6.425355,-3.42042 12.877138,-6.80921 19.314628,-10.21187 -0.184328,1.18825 -0.664453,2.5627 -2.01473,3.15762 -5.959197,3.13196 -11.932686,6.246 -17.882782,9.3887 -0.154117,0.0691 -0.315465,0.12614 -0.483795,0.16972 0.379325,-0.82762 0.668139,-1.68534 1.066766,-2.50412 z M 189.33893,143.89187 c 0.49437,-0.60688 1.05255,-1.18825 1.67802,-1.70492 -0.46071,0.88627 -0.18611,1.85365 0.0283,2.75951 0.24274,0.99142 0.57054,1.96482 0.9374,2.92921 0.25696,0.7271 1.24045,0.98245 2.02717,1.12517 0.47136,0.12763 1.049,-0.16973 0.86643,-0.62647 -0.43419,-1.17772 -0.98882,-2.32086 -1.62317,-3.42947 0.22508,-0.74357 0.48024,-1.47969 0.69634,-2.22472 0.2977,0 0.59895,0.003 0.902,0.006 0.26051,1.37744 1.03479,2.62724 1.74721,3.86509 0.002,1.33849 -0.0922,2.73399 -0.65215,4.0033 -0.37387,0.89984 -1.62486,1.17918 -2.63487,1.1071 -1.34135,-0.21934 -2.23091,-1.20021 -3.01776,-2.06248 -0.39165,1.1311 -1.49905,2.00841 -2.81034,2.36292 -1.1093,0.34547 -2.38857,-0.15626 -2.98397,-0.98539 -0.65215,-0.91929 -0.77618,-2.02942 -0.74595,-3.08098 0.0585,-1.50368 0.40231,-3.25674 1.9935,-4.15956 0.1116,0 0.33491,0.002 0.44663,0.002 -0.0709,0.027 -0.21619,0.0796 -0.28704,0.10665 -0.9675,1.50065 -1.02781,3.38585 -0.16834,4.93155 0.24985,0.48818 0.88243,0.83974 1.52215,0.72559 0.79737,-0.1637 1.42821,-0.64444 1.97218,-1.14016 0.0194,-1.50376 0.0123,-3.00896 0.10626,-4.50957 z M 62.569071,140.75085 c 1.44243,-0.26442 2.755481,0.50022 3.781352,1.26787 1.373233,1.13712 2.517938,2.49207 3.2427,4.00477 0.219754,0.45663 0.31713,0.95538 0.235624,1.44663 -0.104606,0.65197 -0.16478,1.367 -0.653926,1.90928 -0.574085,0.44909 -1.479599,0.35149 -2.089118,0.006 -0.606062,-0.33944 -1.238672,-0.64445 -1.897806,-0.90283 -0.98882,2.21871 -3.008837,3.97327 -5.211422,5.37346 -1.729444,1.10861 -3.614812,2.03995 -5.564081,2.84066 -1.396326,0.44909 -2.824534,0.83523 -4.274066,1.14162 -0.577635,0.13367 -1.178363,0.12021 -1.770212,0.10665 0.34734,-0.0691 0.717659,-0.0916 1.034788,-0.24333 3.171865,-1.51863 6.265497,-3.16654 9.148691,-5.05632 1.947414,-1.32944 3.880646,-2.7369 5.262551,-4.52301 -0.671563,-0.12915 -1.346678,-0.25086 -2.032495,-0.3064 -0.540426,-1.33546 -0.556407,-2.96075 0.582963,-4.08141 -0.549305,-0.40712 -0.629059,-1.07707 -0.728313,-1.65089 -0.104367,-0.55607 0.230527,-1.21545 0.932324,-1.33265 m 2.693405,3.32433 c 0.255163,0.99593 0.279927,2.01898 0.327783,3.03288 0.960401,0.0916 1.927873,0.47774 2.895377,0.27638 0.448274,-0.21331 0.132913,-0.70146 -0.101054,-0.95083 -0.884111,-0.9208 -2.004028,-1.65541 -3.122091,-2.35842 m -2.358502,0.42811 c -0.315465,0.39659 -0.682217,0.85322 -0.632618,1.35344 0.558191,0.59483 1.500828,0.84269 2.353183,0.97344 0.08327,-0.28541 0.182553,-0.56482 0.248061,-0.8517 0.233848,-0.58289 -0.2977,-1.10559 -0.722986,-1.51122 -0.317129,-0.32599 -0.971063,-0.33653 -1.245648,0.0361 z m 106.992527,-4.90166 c 0.94095,0.66542 1.51325,1.62239 2.14938,2.49511 1.62841,2.429 3.01594,4.96751 4.35925,7.51669 2.9468,5.47223 4.88519,11.31444 5.95226,17.25544 0.30125,1.8417 0.6096,3.69388 0.54752,5.55932 0.179,3.7028 0.69812,7.48852 2.52149,10.8968 1.34148,2.31536 3.62313,4.37008 5.40985,5.87211 0.8514,0.49867 1.21185,0.38109 1.43627,0.1774 0.13882,-0.12602 0.0841,-1.75016 0.36758,-2.51322 0.40396,-1.2528 1.32904,-2.31934 2.3124,-3.29127 1.10043,-1.02145 2.34608,-1.9588 3.81679,-2.57621 2.94502,-1.26635 5.99819,-2.34335 9.08154,-3.34088 2.32129,-0.73009 4.68158,-1.37751 7.09514,-1.84762 -10.35872,0.0616 -20.71788,0.13366 -31.07705,0.23429 0.51747,-2.13305 1.04368,-4.26471 1.57712,-6.39459 1.09865,-1.22277 2.48072,-2.22776 3.84521,-3.22668 5.9397,-4.15501 12.79699,-7.22988 19.7418,-9.98354 -0.81336,-1.08006 -1.94385,-2.08656 -2.12287,-3.41297 -0.41995,-1.8627 0.4926,-3.70432 1.64085,-5.25474 0.68045,-0.88026 1.31662,-1.8417 2.36383,-2.44711 1.05078,-0.61741 2.47259,-0.65835 3.62192,-0.21933 3.8508,1.46565 7.82298,4.04615 10.75947,6.36341 0.29415,0.25237 0.67157,0.47019 0.85591,0.79919 -0.6911,1.89725 -1.4211,3.78699 -2.09089,5.69189 -3.06192,0.57985 -6.13986,1.13413 -9.124,1.96786 0.30303,1.6028 0.84347,3.35131 0.0318,4.90468 -0.28348,-0.033 -0.668,-0.0751 -0.71588,-0.36956 -0.11514,-1.34742 -0.88064,-2.57322 -1.66736,-3.72087 -3.80799,1.2709 -7.60723,2.58526 -11.19704,4.25717 -2.89369,1.36249 -5.82793,2.84057 -7.97203,5.02037 15.92628,0.005 31.85472,0.005 47.78186,0 -1.02067,1.90178 -2.11221,3.77792 -3.15233,5.67196 -10.42805,2.15414 -20.8366,4.45672 -30.95271,7.51841 -4.24561,1.3189 -8.48801,2.77004 -12.25328,4.92115 -0.38986,0.25238 -0.61493,0.71805 -0.33134,1.09657 0.58473,0.76164 1.6515,1.07556 2.54635,1.50971 1.94563,0.91327 4.10216,1.41049 6.22131,1.94385 1.51858,0.38002 3.03717,0.75861 4.55377,1.14315 -0.12581,2.27875 -0.14702,4.56373 -0.31014,6.83953 -1.24222,0 -2.50919,-0.18629 -3.75839,-0.27939 -2.4471,-0.24635 -4.93155,-0.41164 -7.29183,-1.04856 -3.21437,-0.86228 -6.10997,-2.49962 -8.37796,-4.60576 -2.48965,-2.27125 -4.28993,-5.02773 -5.58011,-7.91656 -1.76134,-4.0033 -2.74306,-8.90695 -3.08328,-13.15962 -0.1559,-0.018 -0.19348,0.82853 -0.34405,0.81502 -0.44116,1.87474 -0.9601,3.53877 -1.69894,5.34745 -0.14003,0.42963 -0.51213,0.75713 -0.83992,1.09055 -2.37094,2.33442 -4.8995,4.55334 -7.54311,6.66364 -2.70583,2.13756 -5.52682,4.18356 -8.57465,5.96526 -3.20549,1.86422 -6.67317,3.54064 -10.50777,4.24513 -2.06078,0.36203 -4.40343,0.43113 -6.20917,-0.62638 -2.01646,-1.16866 -2.99996,-3.1996 -3.5315,-5.14644 -1.83749,1.18223 -3.68932,2.34785 -5.58184,3.46703 -1.70813,0.97194 -3.40923,1.9994 -5.36565,2.58527 -4.89083,1.53973 -9.97964,2.54921 -15.04247,3.59025 -3.6308,0.69707 -7.26324,1.3955 -10.91891,1.99185 3.38629,-1.6298 6.82567,-3.18612 10.19757,-4.8384 9.1487,-4.43723 18.16091,-9.10017 26.76372,-14.26784 1.17304,-4.76346 3.06724,-9.5555 6.73686,-13.3784 0.0461,-0.0105 0.14002,-0.0331 0.18611,-0.0436 -0.29238,0.52725 -0.4324,1.10558 -0.73365,1.6298 -2.21146,3.28373 -3.78312,6.91318 -4.33975,10.67283 3.91605,-2.41405 7.73807,-4.94499 11.33525,-7.69735 2.22204,-1.68846 4.30946,-3.50308 6.2161,-5.4497 0.52444,-0.55135 1.2369,-1.02444 1.43532,-1.74851 0.0868,-0.47119 0.0377,-0.76185 -0.27799,-1.73863 -2.22373,-5.21056 -5.37996,-11.71173 -7.47597,-16.29323 0.71766,-2.31483 1.38212,-4.64171 2.10688,-6.9552 0.96574,0.53929 1.59476,1.38649 2.2823,2.15263 1.40344,1.74699 2.72347,3.54363 3.90894,5.40465 0.66269,1.02296 0.7885,2.21116 1.03137,3.34087 -0.95148,-0.72558 -1.61429,-1.70948 -2.6704,-2.32987 0.0461,0.1652 0.10982,0.32598 0.19311,0.48367 1.67091,2.79555 2.81387,5.80755 3.55463,8.87488 0.45715,1.82212 0.65557,3.69085 0.52811,5.55369 -0.0957,2.01897 -0.41995,4.08742 -1.51326,5.90937 -0.97105,1.61788 -2.27696,3.06741 -3.64145,4.45845 -4.62481,4.601 -10.04549,8.56686 -15.55065,12.38542 0.007,0.22235 0.30481,0.28239 0.48202,0.40411 1.97041,1.04255 4.43549,0.93736 6.63591,0.6129 1.65861,-0.32598 3.36674,-0.57382 4.88519,-1.26184 3.98523,-1.76809 7.45993,-4.23318 10.8145,-6.74466 4.39823,-3.39338 8.54086,-7.02106 12.49243,-10.78546 -1.32017,-3.97176 -2.69163,-7.93 -4.08796,-11.88243 -0.75842,-2.06395 -1.46361,-4.14601 -2.37094,-6.16628 -1.50437,-2.66481 -2.95035,-5.36133 -4.26159,-8.09679 0.52955,-2.08968 1.19578,-4.15666 1.76107,-6.24166 m 40.08365,10.7482 c -0.48202,0.16219 -0.88598,0.61291 -0.68401,1.06503 0.0744,0.34245 0.51569,0.46114 0.74773,0.71502 0.96574,0.95083 1.87999,1.94082 2.72005,2.97582 2.09622,-0.64595 4.22442,-1.20621 6.34001,-1.79962 -1.57522,-1.27533 -3.3242,-2.48905 -5.42588,-3.0659 -1.19613,-0.34396 -2.53406,-0.30188 -3.69821,0.10967 z m 46.37382,-2.74595 c 6.45525,-3.38888 12.87541,-6.82437 19.33932,-10.19973 -0.18255,1.05307 -0.53864,2.20666 -1.55935,2.90071 -6.25856,3.30924 -12.55264,6.57352 -18.80947,9.88866 0.2676,-0.88325 0.68932,-1.72593 1.02954,-2.58968 z m -32.56869,-12.77446 c 0.59718,-0.29294 1.47249,-0.27186 1.87645,0.26291 0.5564,0.71203 0.70522,1.64336 0.40408,2.46053 -0.56885,1.62088 -1.82515,2.99831 -3.19483,4.19713 -1.66559,1.37895 -3.65909,2.64986 -6.01595,2.96075 0.3952,-0.41456 0.97283,-0.64444 1.48137,-0.9419 1.46006,-0.83372 2.86526,-1.75306 4.0915,-2.8271 0.64328,-0.63088 1.33957,-1.31288 1.45486,-2.17663 0.0443,-0.72407 -0.73009,-1.34291 -1.52036,-1.46314 -1.15181,0.17274 -1.86947,1.0169 -2.71649,1.61035 -0.20198,-0.52421 0.33844,-0.8923 0.65735,-1.27684 1.01525,-1.04553 2.03769,-2.16758 3.48189,-2.80608 z m -84.07852,-3.50935 c 1.97396,-1.03197 3.90893,-2.12261 5.90763,-3.12005 -0.19665,1.06503 -0.60428,2.29833 -1.82514,2.82862 -4.36618,2.26531 -8.68426,4.59795 -13.06647,6.83953 0.48904,-0.84872 0.97106,-1.70644 1.50971,-2.53263 2.47019,-1.36409 4.98657,-2.67394 7.47423,-4.01534 z m 190.14828,-6.63504 c 2.87775,1.64188 5.25042,3.98531 6.53497,6.72992 1.26519,2.66038 1.25467,5.67976 0.23575,8.39702 -0.13825,0.31394 -0.43419,0.54983 -0.68222,0.80219 0.44307,-1.84464 0.59539,-3.78096 -0.0212,-5.61043 -0.87176,-2.8992 -3.36496,-5.30718 -6.39676,-6.76415 0.15044,-1.18223 0.18421,-2.37199 0.32944,-3.5542 z m -69.34412,1.19127 c 0.49433,-0.51226 0.97639,-1.03349 1.51859,-1.5097 -0.51568,1.02144 -0.12225,2.13153 0.12226,3.16654 0.27815,0.94783 0.54575,1.90477 0.96751,2.81505 0.52634,0.58439 1.44952,0.88173 2.29997,0.85924 0.3952,-0.002 0.58297,-0.39357 0.44649,-0.67446 -0.4164,-1.14163 -0.95685,-2.25024 -1.57179,-3.32433 0.11871,-0.78867 0.46427,-1.54726 0.70701,-2.31631 0.29414,0.0225 0.59362,0.0436 0.89485,0.0691 0.19666,1.39854 1.05966,2.63777 1.73656,3.8936 -0.0283,1.011 -0.1116,2.0279 -0.34201,3.02231 -0.17366,0.69253 -0.47669,1.49463 -1.3024,1.80708 -0.70345,0.23139 -1.52747,0.36053 -2.23802,0.0812 -1.04368,-0.39207 -1.78443,-1.16416 -2.42593,-1.93632 -0.40573,1.09202 -1.43709,1.95728 -2.70227,2.34044 -1.04012,0.40562 -2.3053,-0.0195 -2.96457,-0.76163 -0.7566,-0.87584 -0.88952,-2.0039 -0.902,-3.05688 0.0425,-1.01101 0.13647,-2.052 0.65025,-2.98034 0.33312,-0.62343 0.8488,-1.23625 1.64085,-1.46911 -1.05611,1.47968 -1.17304,3.37692 -0.39342,4.96621 0.22507,0.45061 0.68754,0.88627 1.30417,0.90131 0.9374,-0.0405 1.66572,-0.61291 2.28585,-1.15519 -0.0142,-1.29036 0.0532,-2.57772 0.055,-3.86813 0.0447,-0.29123 -0.06,-0.64132 0.21299,-0.86959 z M 104.13983,115.40335 c 2.35495,1.29339 4.22975,3.26124 5.12607,5.52509 0.72832,1.82965 0.6769,3.8426 0.0283,5.68278 -0.0868,0.29897 -0.35267,0.52271 -0.59007,0.74205 0.47847,-1.73645 0.42706,-3.61875 -0.43062,-5.26644 -0.87354,-1.70193 -2.47544,-3.10498 -4.37311,-4.01231 0.10283,-0.88917 0.15425,-1.78147 0.2393,-2.67073 z m 76.00299,-1.93181 c 0.53331,-0.56027 1.01001,-1.2047 1.71879,-1.61334 -0.46782,0.60238 -0.27116,1.3459 -0.15946,2.00993 0.26229,1.23928 0.65216,2.45902 1.11287,3.65631 0.14536,0.50022 0.75305,0.71355 1.25452,0.90586 0.4536,0.14421 0.99936,0.27788 1.46006,0.0857 0.29059,-0.21632 0.15412,-0.58587 0.0514,-0.85321 -0.44307,-1.04857 -0.89664,-2.1 -1.52037,-3.08249 l 0.71589,-2.28629 c 0.31191,0.021 0.62369,0.0391 0.94094,0.0555 0.14359,1.40759 1.05611,2.63629 1.71347,3.89966 -0.0229,1.07708 -0.11515,2.16307 -0.38987,3.21766 -0.1559,0.62196 -0.49436,1.27831 -1.18724,1.59085 -0.7956,0.26743 -1.74366,0.39206 -2.52149,0.021 -0.90201,-0.43866 -1.62318,-1.1071 -2.18837,-1.83719 -0.45361,1.11914 -1.54333,2.00542 -2.86705,2.37047 -0.91075,0.28992 -1.9935,-0.0195 -2.61546,-0.63089 -0.79204,-0.69694 -1.00468,-1.70644 -1.08084,-2.63629 -0.062,-1.19579 0.0514,-2.429 0.6025,-3.54212 0.31547,-0.64596 0.87887,-1.21523 1.62499,-1.5292 -0.73186,1.23182 -1.10753,2.66481 -0.69812,4.02578 0.18078,0.71354 0.48202,1.62391 1.41929,1.84763 1.01179,0.10967 1.81631,-0.54229 2.46842,-1.10709 0.12202,-1.52024 0.0459,-3.04952 0.14512,-4.56807 z m 78.35548,-1.92579 c 3.4075,-1.2498 6.81484,-2.51165 10.30067,-3.59323 -0.10638,0.67143 -0.39342,1.43761 -1.16423,1.75756 -4.94889,1.79061 -9.9177,3.55117 -14.76217,5.53982 -0.96218,0.45061 -1.95096,0.91326 -2.70051,1.60731 0.5351,0.50022 1.33603,0.68802 2.05901,0.91326 -0.009,0.48515 -0.007,0.97041 -0.007,1.45708 -1.02422,-0.2103 -2.05013,-0.52726 -2.84408,-1.13262 0.0461,-0.68954 0.0318,-1.38346 0.14357,-2.06849 0.11515,-0.62196 0.86466,-0.91479 1.40686,-1.2528 2.40126,-1.26779 5.00087,-2.23369 7.56824,-3.2281 z m -153.34036,-6.04757 0.14003,0.1187 c -0.30836,0.33201 -0.15058,0.77056 -0.10106,1.1522 0.16834,0.82168 0.40929,1.63582 0.7424,2.42145 0.10982,0.3515 0.54042,0.51972 0.9072,0.6369 0.32069,0.057 0.83992,0.19081 0.97284,-0.17272 -0.21976,-0.8517 -0.74773,-1.61182 -1.07387,-2.429 0.15412,-0.47171 0.22685,-0.97795 0.49077,-1.41499 0.17722,0.003 0.358,0.009 0.53865,0.0195 0.17722,0.9163 0.73897,1.72299 1.14292,2.56872 -0.0229,0.86977 -0.0549,1.77251 -0.44129,2.58981 -0.24096,0.55286 -1.00823,0.69998 -1.62486,0.69253 -0.90201,-0.10816 -1.49381,-0.7541 -2.02717,-1.31587 -0.34378,0.82016 -1.22268,1.46161 -2.2469,1.5743 -0.86124,0.0376 -1.5912,-0.55134 -1.81804,-1.22277 -0.29948,-0.88775 -0.26583,-1.8417 -0.0229,-2.73551 0.18966,-0.62495 0.55996,-1.30093 1.32194,-1.54125 -0.60073,0.86076 -0.7495,1.91977 -0.41284,2.8796 0.13114,0.39659 0.37387,0.89377 0.92673,0.95083 0.61304,0.009 1.06854,-0.38754 1.50616,-0.69556 0.11337,-0.98246 -0.0231,-1.97387 0.12048,-2.95473 0.22164,-0.42209 0.66471,-0.73451 0.95884,-1.12204 z m 28.23803,-1.69297 c 0.37565,0.0857 0.64683,0.34546 0.95685,0.53025 1.87836,1.31136 3.44291,3.01637 4.18899,4.99783 0.69811,1.7936 0.65557,3.76298 0.0337,5.56711 -0.0851,0.31243 -0.3189,0.56482 -0.52457,0.82619 -0.016,-0.0331 -0.0478,-0.10063 -0.0655,-0.13367 0.4536,-1.66736 0.38631,-3.46248 -0.40574,-5.04896 -0.8559,-1.73798 -2.45954,-3.17706 -4.39433,-4.08292 0.0496,-0.88615 0.13114,-1.77242 0.21086,-2.65575 z m 17.041,-1.54717 c 0.4767,-0.98398 1.72589,-1.81008 3.02829,-1.62088 0.65038,0.1187 1.10575,0.60384 1.3378,1.10709 0.45538,1.03649 0.52279,2.16611 0.36321,3.25674 0.79915,0.81116 1.66736,1.63283 2.00225,2.68439 0.62014,1.38346 0.0655,2.86015 -0.46248,4.19561 -0.67511,1.76661 -1.95806,3.3709 -2.19725,5.24868 -0.0833,0.46418 0.12758,0.97041 0.68755,1.13111 0.90018,-0.22536 1.04011,-1.13262 1.22441,-1.79361 0.28171,-0.057 0.72299,-0.0827 0.82039,0.21933 0.15411,0.83524 -0.27816,1.63885 -0.6273,2.40048 -0.31534,0.57838 -0.75305,1.26185 -1.5629,1.391 -0.64682,0.10063 -1.14115,-0.38001 -1.39988,-0.82016 -0.7372,-1.26787 -0.50503,-2.77156 0.11159,-4.03782 0.9604,-2.01746 2.22914,-4.0484 2.11221,-6.28673 0.003,-0.95082 -0.46781,-1.8582 -1.22086,-2.55073 -1.12516,2.5762 -2.94498,4.89863 -5.04116,6.97774 -1.0844,1.14162 -2.64198,1.8387 -4.12868,2.53414 -1.33069,0.58439 -2.68097,1.15973 -4.09861,1.58179 2.7288,-1.66437 5.34617,-3.48358 7.6107,-5.59701 1.8677,-1.77705 3.58648,-3.78095 4.2794,-6.12425 l -0.0461,-0.13216 c -1.01001,-0.55285 -2.22381,-1.04103 -2.7501,-2.01746 -0.2232,-0.55584 -0.19476,-1.1807 -0.0424,-1.74699 m 1.01178,0.2824 c -0.2605,0.1427 -0.0815,0.41606 0.13114,0.50927 0.63617,0.31394 1.28997,0.60536 1.95095,0.88173 -0.016,-0.56482 0.10461,-1.26636 -0.47846,-1.66888 -0.50503,-0.35762 -1.19613,-0.0481 -1.60364,0.27788 z m 107.87634,-1.25734 c 0.34023,-0.50326 0.86643,-1.12365 1.64618,-1.03649 0.82748,0.15778 1.63729,0.53479 2.14582,1.12365 0.25873,0.36806 0.47314,0.92986 0.0142,1.25432 -0.24095,0.19974 -0.41284,0.53777 -0.71055,0.63841 -0.4164,-0.46113 -0.73898,-1.28433 -1.58067,-1.26033 -1.05433,0.32899 -1.6373,1.23473 -1.95278,2.09549 -0.6538,1.77554 -0.78672,3.64726 -0.99224,5.48609 -0.2091,0.18328 -0.49078,0.28542 -0.7424,0.41607 0,-1.86422 -0.51036,-3.86059 -2.08557,-5.23785 -0.75839,-0.0796 -1.66038,-0.15627 -2.08557,-0.77961 -0.51746,-0.79469 -0.88952,-1.77554 -0.53154,-2.67083 0.8027,-0.13367 1.45309,0.377 1.99883,0.80071 1.44243,1.12217 2.37437,2.60775 3.2162,4.08444 0.35586,-1.67664 0.71375,-3.39208 1.66003,-4.91379 z m -205.186039,0.60536 c 0.439523,-0.658 0.924967,-1.33546 1.686947,-1.75756 -1.215541,2.22325 -2.629671,4.43159 -3.081457,6.88459 -0.141799,0.80218 -0.147126,1.72152 0.458936,2.39598 0.567109,0.60536 1.598299,0.61589 2.400999,0.40411 0.898452,-0.30489 1.316619,-1.12217 1.736554,-1.80266 0.187888,0.005 0.226857,0.19232 0.31713,0.30489 -0.473142,1.57578 -0.930295,3.28525 -2.331947,4.47969 -1.302406,1.16714 -3.871768,0.56629 -4.511313,-0.88325 -0.464255,-1.04254 -0.310138,-2.19621 -0.03719,-3.25972 0.669923,-2.39438 1.938655,-4.63435 3.361544,-6.76589 z M 176.35131,99.390661 c 2.33551,1.353439 4.25095,3.306349 5.14385,5.601769 0.44307,1.20471 0.60605,2.48904 0.43419,3.74492 -0.12759,0.91478 -0.29948,1.86422 -0.90378,2.65133 -0.085,-0.24032 -0.0283,-0.48666 0.0248,-0.72559 0.40219,-1.81609 0.0602,-3.76298 -1.05078,-5.36132 -0.91608,-1.33247 -2.27163,-2.45001 -3.86639,-3.18764 0.0302,-0.91028 0.1347,-1.8161 0.21798,-2.723339 z m 32.59209,-1.22277 c 0.92141,0.40563 1.52391,1.14617 2.11754,1.840219 1.44776,1.79664 2.67737,3.81419 3.78135,5.77464 0.1078,0.25883 0.11333,0.5801 0.18967,1.44203 -0.66623,-0.61441 -1.44597,-1.20774 -2.43644,-1.38801 -0.17545,0.32899 -0.17367,0.68348 -0.0248,1.01993 1.28641,3.34529 2.74122,6.64414 3.987,10.00131 0.79382,2.18867 1.49025,4.43723 1.51682,6.74162 0.0549,2.13907 -0.37566,4.27515 -1.11984,6.31488 -0.74773,1.91674 -1.89425,3.817 -3.80626,5.08189 -1.57357,1.08309 -3.67334,1.53218 -5.67542,1.37302 -2.44355,-0.15476 -4.75782,-1.15372 -6.45352,-2.63782 -0.90556,-0.73161 -1.64085,-1.59527 -2.33017,-2.47561 l 0.26405,-0.0526 c -0.0726,0.007 -0.21619,0.0224 -0.28881,0.03 -1.53102,-2.18716 -2.66684,-4.57413 -3.32242,-7.05745 0.0585,-0.32147 -0.66445,-0.29445 -0.59184,0.0255 -0.93385,3.62179 -2.42415,7.19393 -4.89083,10.27945 -1.44065,1.77251 -3.30466,3.35435 -5.61737,4.29019 -2.51971,1.00797 -5.48783,1.07403 -8.14055,0.42811 -2.66506,-0.65198 -4.77732,-2.43653 -5.92193,-4.53947 -1.65861,-3.01339 -1.91202,-6.42493 -1.72945,-9.70107 0.35623,-2.64683 1.13582,-5.23525 1.8978,-7.81432 0.25695,-0.79317 0.48558,-1.64639 0.15413,-2.45152 -0.10627,-0.0466 -0.31713,-0.13969 -0.42174,-0.1863 -0.35622,0.19674 -0.72299,0.39056 -1.00112,0.66693 -1.95274,1.82667 -3.06192,4.16104 -3.94793,6.47605 -0.66979,1.86422 -1.19258,3.76748 -1.54337,5.69492 -0.46603,3.04644 -1.18014,6.12902 -2.83342,8.88961 -0.89663,1.46764 -2.24335,2.99229 -4.27225,3.32883 -1.88,0.21331 -3.88953,-0.28692 -5.26645,-1.41058 -1.68694,-1.33697 -2.42578,-3.28074 -2.87059,-5.14947 -0.70878,-3.35434 -0.48904,-6.79274 -0.0443,-10.16074 0.29769,-2.07598 0.72299,-4.13695 1.25275,-6.17841 0.17367,-0.0135 0.34912,-0.024 0.52799,-0.033 -0.70168,3.44152 -1.18547,6.93571 -1.06322,10.43411 0.10982,1.99337 0.38632,4.02427 1.34136,5.86908 0.64859,1.26337 1.74889,2.43957 3.27814,2.98337 1.44419,0.4987 3.22671,0.58881 4.57889,-0.15476 1.39811,-0.77809 2.05368,-2.16758 2.57292,-3.45494 1.02244,-2.84959 1.47427,-5.81319 2.27697,-8.70809 0.8417,-2.93827 2.0519,-5.79673 3.53687,-8.54606 0.85058,-1.60281 1.78798,-3.17859 2.99108,-4.61486 1.06853,-1.27831 2.05012,-2.6814 3.56693,-3.62027 0.11337,0.005 0.33668,0.0151 0.45005,0.0195 0.27815,0.96287 -0.0496,1.96031 -0.0993,2.93528 -0.0939,1.61034 -0.78494,3.12303 -1.18191,4.68373 -0.4926,1.7846 -0.91432,3.58422 -1.33603,5.38212 -0.65215,2.57474 -1.11641,5.29071 -0.29592,7.88061 0.62014,2.03093 2.27342,3.82302 4.50611,4.74828 1.45131,0.64744 3.07972,0.97644 4.71364,1.02596 2.29642,0.19683 4.6976,-0.0376 6.75115,-0.97496 2.47544,-1.09354 4.22797,-3.07647 5.36392,-5.19453 1.11109,-2.11659 1.74543,-4.40906 1.92964,-6.71779 0.0248,-4.58626 -0.35088,-9.2609 -2.2008,-13.60975 -0.23563,-0.60086 -0.54398,-1.22428 -0.4093,-1.86873 0.29237,-1.76808 0.98883,-3.47002 1.80561,-5.10874 0.0514,-0.187799 0.31713,-0.201259 0.47669,-0.297459 0.87354,2.212669 1.72234,4.440249 2.25223,6.734249 0.66802,2.98185 1.05256,6.00252 1.44776,9.01613 0.31369,2.15111 0.40574,4.33541 1.04189,6.44441 0.52799,1.75002 1.35023,3.46249 2.64197,4.91206 1.57002,1.84915 3.92671,3.22217 6.54754,3.74638 2.24334,0.44169 4.63911,-0.12613 6.5263,-1.18824 0.99225,-0.57383 2.02184,-1.54124 1.69223,-2.6363 -3.14167,-7.00633 -5.72525,-14.18032 -8.29262,-21.34739 -0.17011,-0.5918 -0.49432,-1.15821 -0.54753,-1.76656 0.33324,-1.89555 1.11642,-3.713159 1.99884,-5.469209 z m -87.78274,5.888579 c 1.07387,-2.05502 2.14583,-4.111439 3.2427,-6.157619 2.12109,4.136949 3.84699,8.418249 5.14037,12.793959 0.15235,0.88476 -0.1559,1.77403 -0.1187,2.66329 -0.74062,-1.11464 -1.5912,-2.17364 -2.36739,-3.27025 0.20021,2.00692 0.56351,4.00329 0.78317,6.01031 1.48492,11.8534 2.79087,23.7237 3.90538,35.60742 1.27762,-0.78412 2.25223,-1.90928 2.79976,-3.16061 0.71411,-1.40905 1.48492,-2.8105 2.52859,-4.06936 0.39165,-0.45212 0.90898,-1.03197 1.6675,-0.89229 0.42883,0.0209 0.63261,0.41164 0.67511,0.72857 0.18966,1.11615 -0.80626,2.07902 -0.63617,3.18612 0.0461,0.90885 0.8842,1.68846 1.88004,1.96336 1.72234,0.52724 3.59359,0.29143 5.36002,0.0796 0.79738,-0.14873 1.79318,-0.27637 2.18127,-0.97795 -0.41462,-1.12668 -0.87531,-2.24123 -1.3981,-3.33485 0.74595,-1.61182 1.5983,-3.18915 2.37627,-4.79205 0.2002,-0.3785 0.33489,-0.79616 0.66446,-1.11464 0.56529,1.83269 0.707,3.73443 0.93562,5.61217 0.23562,3.03588 -0.33845,6.18751 -2.12465,8.85843 -0.96217,1.367 -2.39923,2.60926 -4.27407,3.00433 -1.63374,0.33201 -3.42882,0.18027 -4.91032,-0.51078 -1.71523,-0.8277 -2.89182,-2.28178 -3.50321,-3.84855 -0.92851,1.8086 -2.14938,3.51811 -3.7034,4.98874 0.18077,2.34633 0.38275,4.69111 0.52101,7.03926 0.1027,2.61832 -0.68933,5.18413 -1.60541,7.66268 -0.44472,1.06503 -0.88242,2.13604 -1.43177,3.16654 -4.88346,6.76589 -11.3387,12.75931 -19.08414,17.23422 -5.06975,2.95174 -10.678023,5.24089 -16.566161,6.74466 -3.077897,0.75712 -6.224767,1.37453 -9.426834,1.57278 -3.304786,0.0391 -6.658869,-0.32297 -9.747858,-1.35045 -2.898928,-0.95836 -5.431081,-2.70388 -7.056157,-4.96014 -5.709209,0.50021 -11.452219,0.77511 -17.193493,0.78715 5.120878,-1.55619 10.190629,-3.23716 15.175036,-5.08796 -1.330689,-5.50255 -0.230416,-11.17624 1.433543,-16.53583 1.018887,-3.2492 2.223161,-6.47561 3.699208,-9.59406 1.118492,-2.49515 1.559051,-3.64241 3.695259,-6.58609 -2.238067,3.34885 -2.564034,4.72706 -3.564512,7.10078 -1.346678,3.65479 -2.314922,7.42787 -2.600209,11.25119 -0.281703,4.20302 0.07437,8.61624 2.385018,12.42008 6.143325,-2.43501 12.123742,-5.172 17.858089,-8.24236 4.862228,-2.64081 9.559835,-5.52206 13.828531,-8.82507 2.02361,-1.58634 3.99043,-3.24166 5.65246,-5.11048 0.49077,-0.48969 0.25161,-1.18823 0.0922,-1.74551 -0.37032,-0.93588 -0.79027,-1.85669 -1.21732,-2.77298 -2.90603,0.99744 -6.00164,1.68092 -9.153886,1.66887 -1.718789,0.042 -3.487226,-0.2358 -4.968808,-1.00346 -1.270515,-0.66394 -2.213159,-1.75453 -2.595877,-2.97735 -0.529764,-1.60433 -0.299476,-3.29729 0.01776,-4.91509 0.503256,-2.34182 1.520368,-4.68374 3.45356,-6.45612 1.35734,-1.23776 3.154108,-2.19019 5.146009,-2.43956 2.252232,0.009 4.373102,0.94039 5.980412,2.23369 2.04658,1.64488 3.44291,3.77793 4.51695,5.96656 2.00403,-0.98991 3.93025,-2.16156 5.42241,-3.68331 1.46361,-1.29035 2.96989,-2.60774 4.83927,-3.47452 0.46604,-0.22687 1.27051,-0.47774 1.58054,0.0525 0.33845,0.78715 0.016,1.65242 -0.21087,2.43502 -0.6025,1.14162 0.12581,2.43956 1.026,3.31224 1.25275,1.19868 3.31176,1.31435 5.05718,1.04553 -1.82873,-15.93061 -3.68754,-31.85948 -5.51771,-47.79052 -0.0372,-0.53448 -0.31003,-1.02266 -0.54398,-1.51092 m -24.903403,48.91702 c -0.896628,0.32749 -2.018281,0.81267 -2.151202,1.72754 0.210867,0.69556 1.174812,0.91036 1.899574,1.05901 2.330171,0.38303 4.752191,0.37559 7.080851,-0.012 -0.0425,-0.0706 -0.13115,-0.21028 -0.17545,-0.28089 -1.21376,-1.16562 -2.76077,-2.16909 -4.600121,-2.46356 -0.675123,-0.0857 -1.392782,-0.24936 -2.053684,-0.03 m 15.258655,6.50724 c 0.24095,3.24617 -0.29593,6.52847 -1.50261,9.61226 -0.46603,1.07106 -0.85412,2.20514 -1.73299,3.09744 -4.3219,4.89689 -9.88953,8.89742 -15.756439,12.40925 -5.227459,3.08699 -10.746909,5.82532 -16.516348,8.11325 0.985269,0.40713 2.020018,0.73451 3.095702,0.92834 2.881252,0.54228 5.856518,0.25086 8.742754,-0.10213 9.036919,-1.14765 17.546151,-4.49138 24.874811,-9.06118 4.85877,-3.02985 9.28516,-6.55836 13.14791,-10.48653 1.29174,-1.38801 2.88129,-2.74444 3.1966,-4.5711 -0.30836,-3.09896 -0.71588,-6.19054 -1.0561,-9.28776 -2.00935,0.68352 -4.49701,0.84416 -6.32051,-0.29747 -2.21325,-1.41651 -3.05494,-3.83355 -3.40395,-6.06576 -1.90859,2.17372 -4.15368,4.14457 -6.76892,5.71138 z M 222.14727,99.645571 c 0.50148,-0.70601 0.97994,-1.48562 1.83572,-1.9303 -1.244,2.11208 -2.51273,4.260159 -3.07261,6.591719 -0.21797,1.00797 -0.29237,2.23516 0.684,2.99077 0.56697,0.23429 1.22087,0.37409 1.83926,0.1893 1.1305,-0.21481 1.65862,-1.21224 2.09978,-2.02036 0.12226,0.32447 0.20376,0.66091 0.0726,0.99441 -0.4023,1.40305 -0.9374,2.8722 -2.14765,3.9342 -1.36271,1.23776 -4.11104,0.52573 -4.63001,-1.06049 -0.45538,-1.43908 -0.039,-2.94731 0.4607,-4.33844 0.72667,-1.86279 1.73312,-3.63985 2.85829,-5.350929 z M 78.563442,103.60076 c 1.208431,-1.98583 2.369165,-3.991239 3.547528,-5.989069 1.913787,4.237579 3.42882,8.605839 4.479685,13.055189 0.06904,0.80964 -0.191319,1.61637 -0.276376,2.42146 -0.864658,-0.99143 -1.383896,-2.18569 -2.264535,-3.17559 0.480245,3.34239 0.652151,6.71172 0.965728,10.06759 0.349116,4.33975 0.678674,8.68122 1.006458,13.02227 2.624343,-0.37258 4.982679,-1.68694 6.567026,-3.48054 2.383243,-2.68591 3.441123,-6.06577 3.740623,-9.37355 -0.01951,-4.24963 -0.287039,-8.57292 -1.862357,-12.64059 -0.278152,-0.83225 -0.790271,-1.63734 -0.779744,-2.5192 0.187879,-1.63885 0.834591,-3.21012 1.518584,-4.74093 0.173666,-0.357509 0.287038,-0.812669 0.797374,-0.919289 0.777968,2.038479 1.582317,4.075389 2.099779,6.175389 0.802701,3.28975 1.190801,6.63937 1.637292,9.97444 0.297703,2.01898 0.386303,4.07088 0.988823,6.04931 0.78139,2.66038 2.36561,5.25301 4.97401,6.94438 1.96153,1.26184 4.46712,2.12563 6.96213,1.79057 1.75956,-0.26884 3.54043,-0.86228 4.77213,-2.00087 0.5564,-0.50473 0.93917,-1.24378 0.70167,-1.9348 -2.51971,-5.49952 -4.57716,-11.14029 -6.65714,-16.76718 -0.71055,-1.95729 -1.40876,-3.91913 -2.1051,-5.87949 -0.19842,-0.49722 0.0603,-1.00948 0.1559,-1.50064 0.43774,-1.49918 1.00467,-2.984889 1.78797,-4.378739 0.85235,0.34697 1.40521,1.03349 1.96153,1.65393 1.67802,2.048989 3.01586,4.281169 4.24561,6.541899 -0.0585,0.28842 -0.11515,0.57837 -0.16123,0.86977 -0.62369,-0.65649 -1.42467,-1.24531 -2.42756,-1.41201 -0.15946,0.32146 -0.15235,0.67294 -0.0143,0.99895 1.11641,2.86163 2.30708,5.70229 3.44289,8.55776 0.96574,2.54619 2.12647,6.24773 2.06079,7.82948 -0.20301,2.22144 -0.57061,5.1668 -1.36297,7.23725 -0.87176,1.84023 -2.39008,4.03795 -4.45802,5.04896 -1.77376,0.90434 -3.96391,1.04401 -5.96266,0.71051 -2.63145,-0.4461 -4.88866,-1.88822 -6.50507,-3.66385 -2.271642,-2.5026 -3.666191,-5.50993 -4.491816,-8.56816 -0.124027,0.003 -0.372096,0.012 -0.496138,0.0166 -0.772642,3.07647 -1.947406,6.10649 -3.761939,8.85972 -1.626637,2.46205 -3.875318,4.78902 -6.976435,5.96353 0.542194,7.61763 1.109303,15.23352 1.497268,22.85852 0.05677,3.75994 -0.122259,7.51841 -0.342004,11.27372 -0.0032,0.51079 -0.255172,0.98389 -0.442948,1.46162 -0.60783,1.6298 -1.250974,3.25067 -1.934967,4.86093 -0.108038,0.26885 -0.248061,0.53176 -0.448275,0.76315 -0.08861,-7.17876 -0.80626,-14.33975 -1.37856,-21.49902 -0.519238,-6.30448 -1.038348,-12.6094 -1.543372,-18.91388 -2.482545,-0.0466 -5.039429,-0.66242 -6.871591,-2.14059 -2.135174,-1.66588 -3.225072,-4.06784 -3.745957,-6.43835 -0.460704,-2.09999 -0.558183,-4.25267 -0.364985,-6.37813 0.425286,-2.77598 1.263412,-5.49044 2.062562,-8.20337 0.109821,-0.48515 0.189662,-0.99441 0.06028,-1.48272 -0.04961,-0.17725 -0.09749,-0.38754 -0.340229,-0.43714 -0.372095,-0.0405 -0.648599,0.19533 -0.900179,0.38604 -1.392775,1.14167 -2.303529,2.61832 -3.099126,4.0964 -1.507931,3.05394 -2.39568,6.30925 -2.879476,9.58843 -0.40053,2.16169 -0.985277,4.31419 -1.942079,6.35258 -0.760164,1.5142 -1.708127,3.07343 -3.356081,4.02278 -1.406987,0.82169 -3.267568,0.72109 -4.807213,0.24936 -1.949182,-0.6129 -3.336629,-2.09397 -4.073741,-3.69838 -1.281169,-2.75799 -1.364483,-5.77723 -1.286409,-8.70202 0.182553,-3.42795 0.756605,-6.83781 1.640843,-10.18457 0.166555,-0.03 0.334894,-0.0585 0.501473,-0.0857 -0.715883,3.83957 -1.298846,7.7333 -0.960401,11.62551 0.164787,1.68694 0.519238,3.3904 1.36981,4.93459 0.722986,1.3189 1.991726,2.50411 3.671522,2.93528 1.428216,0.37258 3.120442,0.34245 4.335848,-0.47172 1.321946,-0.8968 1.947405,-2.29833 2.431121,-3.62919 1.137595,-3.37242 1.56468,-6.88589 2.743004,-10.24912 1.142921,-3.29729 2.696947,-6.49554 4.619621,-9.52084 1.11463,-1.56824 2.319509,-3.10194 3.719394,-4.49919 0.414624,-0.36655 0.831039,-0.88775 1.490253,-0.89377 0.361433,0.19674 0.232191,0.62785 0.240958,0.93589 -0.184328,1.51724 -0.201981,3.06893 -0.7372,4.53643 -0.978166,3.01187 -1.637291,6.09003 -2.354951,9.1513 -0.497921,2.38393 -0.630794,4.93025 0.444715,7.21645 0.792047,1.744 2.440001,3.15909 4.428127,3.94624 1.080845,0.43263 2.248681,0.69708 3.430604,0.84117 -0.652158,-8.50534 -1.392774,-17.0059 -2.067897,-25.51124 -0.154237,-1.32332 -0.05144,-2.6888 -0.659253,-3.9416 z m 263.226918,0.0331 c 1.06499,-2.14211 2.05013,-4.309679 3.12755,-6.447449 1.6515,4.613109 3.26394,9.240099 4.61053,13.923409 0.20198,0.8066 0.46603,1.60731 0.56528,2.42899 -0.14002,0.65046 -0.37386,1.28889 -0.39341,1.95728 -0.5883,-0.96139 -1.18015,-1.91976 -1.77732,-2.87518 0.75128,11.98294 1.65848,23.95981 2.67205,35.93062 0.31368,3.85001 0.77263,7.69258 0.93917,11.55013 0.3048,7.14584 0.0107,14.44633 -2.54983,21.31576 -0.96218,2.48302 -2.1866,4.90296 -3.7424,7.16229 -2.09089,2.9202 -5.19539,5.22312 -8.61017,6.99247 -6.08137,3.10194 -13.04178,4.71536 -19.99136,5.71138 -0.39342,0.12172 -0.55285,-0.26593 -0.77618,-0.44169 6.20007,-2.53115 12.161,-5.50559 17.72507,-8.94246 2.782,-1.76658 5.5056,-3.62768 7.84638,-5.81493 2.68274,-2.56118 4.70627,-5.6451 5.62603,-8.99186 1.00824,-3.36488 0.66091,-6.8664 0.43949,-10.29158 -0.5812,-7.89534 -1.30063,-15.78331 -1.91379,-23.67734 -0.94437,-12.16447 -1.89603,-24.33066 -2.84231,-36.49513 -0.2002,-0.85474 -0.82926,-1.58781 -1.11983,-2.41998 -0.078,-0.20416 0.10271,-0.38744 0.16466,-0.57526 z m -15.70488,2.08807 c 3.62369,-3.2252 7.13759,-6.538859 10.61953,-9.876959 0.15424,2.99983 -1.66571,5.757729 -3.69807,8.101119 -1.08795,1.36249 -2.62257,2.38242 -4.00287,3.51512 -0.6609,0.50776 -1.3024,1.03047 -1.93675,1.55923 0.18255,0.80218 0.46071,1.59224 0.56352,2.40651 -0.0532,0.75561 -0.19666,1.50672 -0.30303,2.25929 -0.78139,-1.03951 -1.33957,-2.19925 -2.2327,-3.17256 0.39342,3.40244 0.58475,6.82004 0.85236,10.23135 0.69812,10.01647 1.3378,20.03468 1.9403,30.05548 -0.0354,0.2584 0.23219,0.4221 0.40396,0.60536 2.57825,2.43051 5.14601,4.87004 7.55914,7.42051 1.89603,2.13907 3.69098,4.35015 5.21316,6.6983 1.9935,3.07344 3.57227,6.4024 4.0383,9.91119 0.2534,2.20666 0.12759,4.48401 -0.71943,6.59735 -1.49273,-5.79066 -4.23933,-11.0558 -7.44087,-14.70757 -2.6934,-3.111 -5.63946,-6.15892 -8.61321,-9.07937 0.20731,3.57213 0.41462,7.14583 0.57586,10.71961 0.15768,4.61009 -0.0425,9.22191 -0.27294,13.82766 0.002,0.87281 -0.46248,1.6704 -0.70167,2.50413 -0.69288,1.87176 -1.25098,3.78849 -2.13873,5.60306 -0.1418,-4.25414 -0.31191,-8.51269 -0.61494,-12.76233 -0.54397,-7.61156 -1.11628,-15.2201 -1.63019,-22.83166 -0.0762,-0.59934 -0.0372,-1.21073 -0.17189,-1.79962 -1.95633,-1.93935 -4.0685,-3.76298 -6.11169,-5.63471 -3.59891,-3.18763 -7.23508,-6.3452 -11.00945,-9.38264 0.71588,7.95123 1.45651,15.90029 2.12629,23.85454 0.28703,3.61121 0.66623,7.22251 0.707,10.84439 0.0514,3.15008 0.0143,6.30144 -0.069,9.45023 0.0107,1.98734 0.0425,4.04085 -0.78849,5.93059 -1.2298,2.34044 -3.43593,4.29474 -6.09566,5.50083 -2.07678,0.93437 -4.42467,1.4316 -6.77412,1.44814 -1.58587,0.03 -3.16299,-0.32749 -4.5646,-0.9419 -2.45421,-1.17317 -4.20488,-3.17408 -5.33186,-5.3284 -0.77251,-1.48267 -1.32714,-3.04943 -1.62664,-4.65211 -0.17367,-0.7015 -0.35788,-1.51269 -1.09687,-1.95126 -0.5883,-0.33653 -1.29174,-0.0676 -1.86059,0.15777 -1.38389,0.62494 -2.71636,1.37895 -3.71762,2.41695 -3.26046,3.3258 -4.8111,7.57084 -5.78199,11.74856 -0.47492,1.80253 -1.22797,3.59466 -2.54991,5.08318 -0.95863,1.06048 -2.3274,2.07603 -3.94793,2.10303 -1.26913,0.0212 -2.4932,-0.43715 -3.62547,-0.91175 -2.50563,-1.12066 -4.2437,-3.17525 -5.27858,-5.3687 -0.27656,-0.58612 -0.6142,-1.07365 -1.15683,-3.15046 -0.58509,-2.23919 -0.78715,-5.64033 -0.56031,-9.10147 0.10982,-0.33502 -0.29947,-0.45663 -0.52443,-0.64293 -0.89307,-0.64894 -1.25808,-1.6794 -1.24577,-2.64985 -0.0248,-3.56161 0.58474,-7.18483 2.35317,-10.44321 1.43355,-2.68742 3.58115,-5.0338 5.67195,-7.37112 0.19665,-0.25237 0.54398,-0.45364 0.63972,-0.74807 -1.30239,-1.26034 -2.67749,-2.46808 -4.06671,-3.65931 -0.79205,-0.77658 -1.75601,-1.40759 -2.53571,-2.1917 -2.93077,-2.69345 -5.81188,-5.42415 -8.69162,-8.15702 0.27472,3.99728 0.48379,7.99758 0.71943,11.99767 0.179,3.70432 0.4819,7.40707 0.41996,11.11603 0.0124,3.30622 -0.16301,6.60948 -0.32246,9.9112 -0.009,0.82319 -0.4004,1.58933 -0.64847,2.37344 -0.69821,1.93329 -1.32904,3.8891 -2.17607,5.78201 -0.15768,-1.56526 -0.0619,-3.14103 -0.179,-4.70757 -0.32068,-7.81562 -1.04189,-15.61348 -1.55402,-23.42044 -0.43593,-5.97262 -0.82047,-11.95 -1.28464,-17.9196 -1.91899,-2.01897 -3.94446,-3.97326 -5.84222,-6.01161 -2.22204,-2.37648 -4.44243,-4.76952 -6.30275,-7.36375 -2.6704,-4.07388 -5.66849,-8.02921 -9.37008,-11.49035 -0.21087,-0.16821 -0.14535,-0.41908 -0.14358,-0.63387 0.12759,-2.23971 0.22864,-4.47968 0.35966,-6.71909 2.635,1.45408 5.14774,3.0659 7.56304,4.77385 1.87124,1.36851 3.65211,2.83615 5.16723,4.49614 0.78152,0.78413 1.5026,1.78461 1.24045,2.85561 -0.88952,-0.29896 -1.80916,-0.53778 -2.65085,-0.92531 -0.33846,-0.15777 -0.70701,-0.2584 -1.08622,-0.3064 -0.0549,0.62638 0.44827,1.12066 0.82571,1.61334 2.74483,3.40845 5.60827,6.74465 8.54606,10.03467 0.37742,0.42208 0.79382,0.82471 1.0844,1.2994 -0.18612,-3.85754 -0.53332,-7.71077 -0.77975,-11.56659 -0.4164,-5.95443 -0.84347,-11.90756 -1.25985,-17.86242 -0.0762,-0.88926 -0.0248,-1.80708 -0.4465,-2.64383 -0.20376,-0.33352 0.0975,-0.63842 0.26406,-0.92683 1.00823,-1.65242 1.98284,-3.32129 2.93969,-4.997829 0.0461,-0.1172 0.26761,-0.41908 0.3349,-0.12915 1.81271,3.994229 3.22329,8.119319 4.26514,12.305699 0.32068,1.00195 -0.0744,2.02339 -0.1931,3.02534 -0.67689,-1.13413 -1.44419,-2.22623 -2.19548,-3.32579 0.96218,10.45664 1.52037,20.93884 2.24158,31.40717 0.48722,0.69405 1.23512,1.24379 1.83052,1.87779 5.74994,5.62127 11.71996,11.07531 17.68609,16.52977 4.43332,-4.17299 8.91127,-8.31297 13.40482,-12.43957 0.19487,-0.15325 0.32779,-0.34095 0.25872,-0.57382 -1.352,-13.01622 -2.70583,-26.03416 -4.05961,-39.05037 -0.17189,-1.31587 -0.12581,-2.67083 -0.70878,-3.92064 1.10753,-2.01746 2.32129,-3.99424 3.42172,-6.016369 0.6025,1.06199 1.01711,2.196209 1.49203,3.304819 1.11628,2.76251 2.0821,5.57015 2.84573,8.41653 0.15945,0.6414 0.42172,1.28888 0.31712,1.95278 -0.0797,0.59934 -0.17722,1.19729 -0.25339,1.7981 -0.74063,-1.06047 -1.45118,-2.13608 -2.19726,-3.19366 1.05892,10.48351 2.13396,23.68384 3.09557,33.41134 4.65862,-4.19561 9.27997,-8.42258 13.95981,-12.6003 0.51391,-0.49571 1.09861,-0.93887 1.57179,-1.46461 -2.27697,-2.59422 -4.40171,-5.2816 -6.5211,-7.96898 -0.73707,-0.88476 -1.30951,-1.85517 -2.01291,-2.75799 -1.48138,-1.94685 -2.99463,-3.91613 -5.02904,-5.4861 -0.17722,-2.52964 -0.27294,-5.06543 -0.40052,-7.59943 4.77732,3.53912 9.63089,7.00893 14.27347,10.67758 0.44485,0.33804 0.79915,0.75259 1.04723,1.21524 -0.41819,-3.95819 -0.80094,-7.91786 -1.19613,-11.87766 -0.0479,-0.36355 -0.0337,-0.74205 -0.21264,-1.08158 -0.11871,-0.34848 -0.44663,-0.72108 -0.18078,-1.07708 1.09865,-1.91521 2.13516,-3.85608 3.22151,-5.777219 1.90136,3.815469 3.38273,7.778349 4.55594,11.797939 0.12047,0.56481 0.41107,1.11914 0.32245,1.70193 -0.0868,0.64293 -0.13824,1.28889 -0.22496,1.93181 -0.67156,-0.94641 -1.34313,-1.89273 -2.00771,-2.84065 -0.11515,-0.15024 -0.22331,-0.30048 -0.32068,-0.45365 0.60592,4.52908 1.00645,9.07591 1.4796,13.61582 3.49965,-3.14857 7.0934,-6.22044 10.71354,-9.2713 1.61251,-1.29339 3.28525,-2.53415 4.83018,-3.88762 -0.14536,-1.75757 -0.22864,-3.51812 -0.39164,-5.27425 -0.0301,-0.55728 -0.6344,-1.11914 -0.21087,-1.65241 1.14292,-1.84161 2.22559,-3.71186 3.29235,-5.587909 1.24941,2.433719 2.09289,5.005639 2.99667,7.542679 m -20.8457,22.06396 c 0.0549,0.71051 0.12581,1.42102 0.20198,2.13006 1.13759,1.19123 2.29295,2.37198 3.49433,3.51811 4.58063,4.3835 9.31895,8.64483 13.96673,12.97592 -0.71943,-10.71182 -1.52747,-21.42233 -2.24157,-32.13589 -5.24305,4.41947 -10.38559,8.92298 -15.42155,13.51184 m -9.893,-9.71623 c 1.46894,1.94684 2.99818,3.86509 4.62828,5.71744 -0.13113,-1.71701 -0.32779,-3.43246 -0.50502,-5.14644 -0.0886,0.15175 -0.18433,0.30349 -0.25872,0.45815 -1.10753,-0.6849 -2.45955,-1.22268 -3.86466,-1.02898 m -9.41644,27.70905 c -0.94974,0.94785 -2.00758,1.82211 -2.9007,2.80752 0.21087,3.03739 0.66801,6.06707 0.94975,9.1032 0.13824,5.01864 -0.84526,10.34529 -4.48489,14.4524 0.10461,-0.65346 0.0549,-1.31436 0.0639,-1.97236 -0.006,-2.25176 0.10663,-4.50351 0.094,-6.75679 -0.0121,-2.15878 0.0338,-2.01066 -0.0656,-6.47604 -0.0415,-1.86444 -0.31318,-3.34326 -0.49081,-4.65515 -1.27052,1.13863 -2.48072,2.32537 -3.74774,3.46703 -2.49319,2.36141 -5.14383,4.59666 -7.69907,6.90842 2.59587,2.37047 4.22442,5.49043 4.64432,8.70073 0.4235,3.41439 -0.57942,7.04532 -3.22317,9.69977 -2.33195,2.32688 -5.67715,3.79599 -9.15216,4.47189 -1.63018,0.30639 -3.37207,0.51681 -4.99004,0.0541 0.20198,1.43307 0.45538,2.86163 0.79382,4.27667 0.5812,2.38541 1.3378,4.79334 2.83876,6.89499 0.8027,1.07403 1.90312,2.11506 3.41639,2.43051 1.61784,0.33351 3.26388,-0.35451 4.4017,-1.2979 1.01356,-0.77056 1.48315,-1.88822 1.91023,-2.95174 1.28463,-3.13196 1.71878,-6.49684 3.41816,-9.50872 1.19258,-2.38995 2.70761,-4.70929 4.89429,-6.55099 1.13405,-1.00043 2.43823,-1.85366 3.80445,-2.61381 0.94094,-0.47774 2.08031,-0.87584 3.18772,-0.59631 1.05432,0.26291 1.76488,1.05156 2.2521,1.84611 1.10931,1.7891 1.3981,3.83507 2.29643,5.69492 0.65748,1.5367 1.52919,3.09748 3.07789,4.13396 1.56464,1.04709 3.62729,1.36847 5.57838,1.2979 3.40577,-0.12318 9.00659,-2.47622 9.29036,-3.14103 0.29461,-0.68945 -0.48323,-5.91197 -0.78671,-8.86448 -1.48264,-14.42467 -2.90071,-28.85368 -4.35015,-43.27921 -0.0496,-0.39658 -0.46959,-0.66541 -0.67689,-1.00195 -4.86787,4.40863 -9.5867,8.93337 -14.34409,13.42649 m -22.1922,20.69536 c -1.01889,0.99744 -1.98107,2.03843 -2.93969,3.07794 -1.82341,2.08505 -3.64843,4.19409 -4.99871,6.5315 -0.34022,0.59332 -0.65038,1.33394 -0.25872,1.96482 0.46248,0.64596 1.4513,0.74205 2.26276,0.74357 3.58292,-0.12172 6.92488,-1.4812 9.83451,-3.17858 0.97284,-0.40713 1.88714,-1.30834 1.52037,-2.28629 -0.48203,-1.31436 -1.39456,-2.4741 -2.28768,-3.61121 -0.92674,-1.11763 -1.90313,-2.20969 -2.94325,-3.25371 -0.0479,0.003 -0.14179,0.009 -0.18966,0.012 z"
     id="path4"
     style="stroke-width:0.433238" />
</svg>
