<?xml version="1.0" encoding="UTF-8" standalone="no"?>
<svg
   xmlns:dc="http://purl.org/dc/elements/1.1/"
   xmlns:cc="http://creativecommons.org/ns#"
   xmlns:rdf="http://www.w3.org/1999/02/22-rdf-syntax-ns#"
   xmlns:svg="http://www.w3.org/2000/svg"
   xmlns="http://www.w3.org/2000/svg"
   xmlns:sodipodi="http://sodipodi.sourceforge.net/DTD/sodipodi-0.dtd"
   xmlns:inkscape="http://www.inkscape.org/namespaces/inkscape"
   width="400"
   height="300"
   version="1.1"
   id="svg12"
   sodipodi:docname="trn.svg"
   inkscape:version="1.0.2-2 (e86c870879, 2021-01-15)">
  <metadata
     id="metadata18">
    <rdf:RDF>
      <cc:Work
         rdf:about="">
        <dc:format>image/svg+xml</dc:format>
        <dc:type
           rdf:resource="http://purl.org/dc/dcmitype/StillImage" />
        <dc:title></dc:title>
      </cc:Work>
    </rdf:RDF>
  </metadata>
  <defs
     id="defs16" />
  <sodipodi:namedview
     pagecolor="#ffffff"
     bordercolor="#666666"
     borderopacity="1"
     objecttolerance="10"
     gridtolerance="10"
     guidetolerance="10"
     inkscape:pageopacity="0"
     inkscape:pageshadow="2"
     inkscape:window-width="1916"
     inkscape:window-height="2041"
     id="namedview14"
     showgrid="false"
     inkscape:zoom="1.2858333"
     inkscape:cx="268.76813"
     inkscape:cy="420.90839"
     inkscape:window-x="1611"
     inkscape:window-y="0"
     inkscape:window-maximized="0"
     inkscape:current-layer="svg12" />
  <g
     id="g848">
    <path
       fill="#dd0000"
       d="M 0,0 H 400 V 300 H 0 Z"
       id="path2"
       style="stroke-width:0.816497" />
    <path
       fill="#009933"
       d="m 0,112.5 h 400 v 75 H 0 Z"
       id="path4"
       style="stroke-width:0.816497" />
    <path
       fill="#ffd700"
       d="m 75,14.8 -1,2.8 -2.3,7.5 H 60.9 l 2.4,1.8 6.3,4.5 -2.4,7.4 -1,3 2.5,-1.9 6.3,-4.5 6.3,4.5 2.5,1.8 -1,-2.9 -2.4,-7.4 6.3,-4.5 2.5,-1.8 H 78.4 l -2.5,-7.5 z m 0,6.4 1.7,5.2 0.2,0.6 h 6.2 l -4.4,3.2 -0.6,0.5 0.2,0.7 L 80,36.6 75.6,33.3 75,32.9 74.4,33.3 70,36.6 71.7,31.4 71.9,30.7 71.3,30.2 67,27 h 6 l 0.2,-0.6 1.7,-5.2 z"
       id="path6" />
    <path
       fill="#ffd700"
       d="m 62.2,56 -13.6,13 7.2,7.2 6.3,-6.3 33.5,34 c 3.2,3.4 8.9,-1.2 5.3,-5.1 -12.5,-12.2 -21.1,-21 -34,-33.6 l 7.6,-7.8 z"
       id="path8" />
    <path
       fill="#ffd700"
       d="m 61.7,92.3 c 24.3,22.6 63.7,-18 13.4,-47.5 37.4,41.6 1.5,54.3 -11.6,41.5 l -0.6,-0.6 -1.6,1.8 c -1,-1 -2.6,-1.2 -3,0.4 -2,-0.1 -3.2,1 -3.7,3 -3.7,2.5 -7.7,4.6 -10,8.5 -1.3,4 1.3,5.8 4.2,5.5 4.8,-2 6.3,-6.4 8.9,-10 1.8,-0.5 3.3,-1.3 3.6,-3"
       id="path10" />
  </g>
</svg>
