<?xml version="1.0" encoding="UTF-8" standalone="no"?>
<svg
   xmlns:dc="http://purl.org/dc/elements/1.1/"
   xmlns:cc="http://creativecommons.org/ns#"
   xmlns:rdf="http://www.w3.org/1999/02/22-rdf-syntax-ns#"
   xmlns:svg="http://www.w3.org/2000/svg"
   xmlns="http://www.w3.org/2000/svg"
   xmlns:sodipodi="http://sodipodi.sourceforge.net/DTD/sodipodi-0.dtd"
   xmlns:inkscape="http://www.inkscape.org/namespaces/inkscape"
   version="1.1"
   width="400"
   height="300"
   id="svg2"
   sodipodi:docname="ahmadiyya.svg"
   inkscape:version="1.0.2-2 (e86c870879, 2021-01-15)">
  <sodipodi:namedview
     pagecolor="#ffffff"
     bordercolor="#666666"
     borderopacity="1"
     objecttolerance="10"
     gridtolerance="10"
     guidetolerance="10"
     inkscape:pageopacity="0"
     inkscape:pageshadow="2"
     inkscape:window-width="1916"
     inkscape:window-height="2041"
     id="namedview76"
     showgrid="false"
     inkscape:zoom="1.3863636"
     inkscape:cx="172.33653"
     inkscape:cy="444.08604"
     inkscape:window-x="1611"
     inkscape:window-y="288"
     inkscape:window-maximized="0"
     inkscape:current-layer="svg2" />
  <defs
     id="defs4" />
  <metadata
     id="metadata7">
    <rdf:RDF>
      <cc:Work
         rdf:about="">
        <dc:format>image/svg+xml</dc:format>
        <dc:type
           rdf:resource="http://purl.org/dc/dcmitype/StillImage" />
        <dc:title></dc:title>
      </cc:Work>
    </rdf:RDF>
  </metadata>
  <text
     x="336.4754"
     y="393.04919"
     id="text3014"
     xml:space="preserve"
     style="font-style:normal;font-variant:normal;font-weight:normal;font-stretch:normal;font-size:20px;line-height:125%;font-family:'Arabic Typesetting';-inkscape-font-specification:'Arabic Typesetting';letter-spacing:0px;word-spacing:0px;fill:#ffffff;fill-opacity:1;stroke:none"><tspan
       x="336.4754"
       y="393.04919"
       id="tspan3016" /></text>
  <text
     x="270.4754"
     y="116.04918"
     id="text3018"
     xml:space="preserve"
     style="font-style:normal;font-variant:normal;font-weight:normal;font-stretch:normal;font-size:24px;line-height:125%;font-family:'Arabic Typesetting';-inkscape-font-specification:'Arabic Typesetting';letter-spacing:0px;word-spacing:0px;fill:#000000;fill-opacity:1;stroke:none"><tspan
       x="270.4754"
       y="116.04918"
       id="tspan3022" /></text>
  <text
     x="214.4754"
     y="244.04918"
     id="text3030"
     xml:space="preserve"
     style="font-style:normal;font-variant:normal;font-weight:normal;font-stretch:normal;font-size:24px;line-height:125%;font-family:'Arabic Typesetting';-inkscape-font-specification:'Arabic Typesetting';letter-spacing:0px;word-spacing:0px;fill:#000000;fill-opacity:1;stroke:none"><tspan
       x="214.4754"
       y="244.04918"
       id="tspan3032" /></text>
  <text
     x="277.05118"
     y="147.65524"
     id="text3034"
     xml:space="preserve"
     style="font-style:normal;font-variant:normal;font-weight:normal;font-stretch:normal;font-size:24px;line-height:125%;font-family:'Arabic Typesetting';-inkscape-font-specification:'Arabic Typesetting';letter-spacing:0px;word-spacing:0px;fill:#000000;fill-opacity:1;stroke:none"><tspan
       x="277.05118"
       y="147.65524"
       id="tspan3036" /></text>
  <text
     x="319.4754"
     y="91.594635"
     id="text2994"
     xml:space="preserve"
     style="font-style:normal;font-variant:normal;font-weight:normal;font-stretch:normal;font-size:40px;line-height:125%;font-family:noorehidayat;-inkscape-font-specification:noorehidayat;letter-spacing:0px;word-spacing:0px;fill:#000000;fill-opacity:1;stroke:none"><tspan
       x="319.4754"
       y="91.594635"
       id="tspan2996" /></text>
  <text
     x="-123.70641"
     y="99.927971"
     id="text3521"
     xml:space="preserve"
     style="font-style:normal;font-variant:normal;font-weight:normal;font-stretch:normal;font-size:28px;line-height:125%;font-family:'Al Qalam Quran Majeed';-inkscape-font-specification:'Al Qalam Quran Majeed';letter-spacing:0px;word-spacing:0px;fill:#000000;fill-opacity:1;stroke:none"><tspan
       x="-123.70641"
       y="99.927971"
       id="tspan3523" /></text>
  <path
     d=""
     id="path3351"
     style="fill:#000000" />
  <path
     d=""
     id="path3048"
     style="fill:#000000" />
  <path
     d=""
     id="path3046"
     style="fill:#000000" />
  <path
     d=""
     id="path3044"
     style="fill:#000000" />
  <path
     d=""
     id="path3042"
     style="fill:#000000" />
  <path
     d=""
     id="path3040"
     style="fill:#000000" />
  <g
     id="g1364"
     transform="translate(34.622952,-682.3606)">
    <rect
       width="400"
       height="300"
       x="-34.622952"
       y="682.3606"
       id="rect3008"
       style="fill:#000000;stroke-width:0.445362" />
    <g
       id="g1310">
      <g
         id="g1301">
        <path
           d="m 74.497224,750.54246 a 40.909091,40.909092 0 1 1 -81.8181812,0 40.909091,40.909092 0 1 1 81.8181812,0 z"
           id="path3012"
           style="fill:#ffffff;stroke-width:0.538627" />
        <path
           d="m -15.645154,757.0526 c -0.128092,-0.0716 -0.382019,-0.2672 -0.564274,-0.43471 -0.182259,-0.16766 -0.502465,-0.64537 -0.711571,-1.06167 -0.209104,-0.41632 -0.46935,-1.02918 -0.578334,-1.36184 -0.108984,-0.33264 -0.297161,-0.73059 -0.418184,-0.8845 -0.121019,-0.1538 -0.461228,-0.37184 -0.756018,-0.48444 -0.376533,-0.14379 -0.52502,-0.2616 -0.499116,-0.39612 0.0267,-0.1386 0.229461,-0.21782 0.734077,-0.2866 0.383466,-0.0528 1.185566,-0.0696 1.782449,-0.0388 0.620862,0.0329 1.243776,0.004 1.455712,-0.0669 0.203754,-0.068 0.533396,-0.24448 0.73255,-0.39214 0.199154,-0.14767 0.456812,-0.46797 0.572563,-0.71175 0.115758,-0.24379 0.272534,-0.67911 0.348391,-0.96739 0.119902,-0.4556 0.109568,-0.5808 -0.07913,-0.95904 -0.119361,-0.23919 -0.334981,-0.51225 -0.47915,-0.60678 -0.144167,-0.0945 -0.91648,-0.25033 -1.716241,-0.34644 -0.79976,-0.0962 -2.184443,-0.23118 -3.077069,-0.3 -1.622947,-0.12519 -1.622947,-0.12519 -2.115255,0.22834 -0.270762,0.19451 -0.544381,0.35361 -0.608043,0.35361 -0.06366,0 -0.357003,-0.26844 -0.651895,-0.59637 -0.294883,-0.32795 -0.566694,-0.71807 -0.604033,-0.86683 -0.03736,-0.14878 -0.03361,-0.32579 0.0081,-0.39354 0.04189,-0.0676 0.332546,-0.12309 0.645995,-0.12309 0.313464,0 0.701206,-0.0598 0.861641,-0.13289 0.238844,-0.10881 0.393599,-0.0891 0.853877,0.10892 0.372279,0.16015 1.131149,0.30142 2.246697,0.41811 0.926497,0.0969 2.245928,0.22967 2.932078,0.29477 0.999987,0.0951 1.383283,0.18706 1.931624,0.46391 0.376246,0.18986 0.849104,0.53326 1.050793,0.76297 0.201691,0.22967 0.40207,0.55855 0.445285,0.73074 0.04318,0.1722 0.01482,0.70834 -0.06318,1.19152 -0.07797,0.48319 -0.282888,1.16438 -0.455375,1.51389 -0.172484,0.34956 -0.497042,0.77931 -0.721212,0.95513 -0.224178,0.1757 -0.669633,0.38476 -0.989882,0.46457 -0.320258,0.0797 -0.625833,0.18086 -0.67906,0.22479 -0.05327,0.0443 0.0061,0.28252 0.13161,0.53034 0.125618,0.24781 0.261468,0.66014 0.301886,0.91633 0.04399,0.27903 0.0046,0.72125 -0.09863,1.10252 -0.09466,0.35019 -0.271123,0.76941 -0.392131,0.93162 -0.121012,0.16225 -0.293073,0.30719 -0.382367,0.32214 -0.08928,0.0147 -0.267146,-0.0315 -0.395248,-0.10288 z m -0.05823,-2.64935 c 0,-0.30211 -0.08024,-0.65659 -0.181289,-0.80093 -0.09971,-0.1423 -0.283129,-0.25883 -0.407593,-0.25883 -0.184339,0 -0.225841,0.0811 -0.22376,0.43676 0.0017,0.24021 0.106448,0.66565 0.233421,0.94548 0.194787,0.42924 0.258076,0.48623 0.405037,0.36426 0.108957,-0.0905 0.174184,-0.34758 0.174184,-0.68674 z m 95.449799,2.42825 c -0.248645,-0.0624 -0.771256,-0.28322 -1.161409,-0.49062 -0.390109,-0.20739 -1.004067,-0.66532 -1.364269,-1.01755 -0.360262,-0.35235 -0.745374,-0.81563 -0.8559,-1.02966 -0.11052,-0.21395 -0.278847,-0.76244 -0.373991,-1.21875 -0.124172,-0.59551 -0.150191,-1.1265 -0.09225,-1.88177 0.04489,-0.57866 0.128029,-1.17867 0.185776,-1.33316 0.06161,-0.16485 0.146902,-0.23706 0.206329,-0.1747 0.05563,0.0584 0.21444,0.68217 0.352926,1.38596 0.158356,0.80463 0.37908,1.51785 0.594867,1.92153 0.188613,0.35301 0.525644,0.83486 0.748877,1.07072 0.22327,0.23589 0.629803,0.61229 0.903496,0.83653 0.273594,0.22426 0.803013,0.56841 1.17642,0.76484 0.373424,0.19643 0.784598,0.35715 0.913609,0.35715 0.203127,0 0.176438,-0.0645 -0.198393,-0.47929 -0.366523,-0.40568 -0.422034,-0.53537 -0.361511,-0.84428 0.03982,-0.20074 0.167297,-0.49603 0.284548,-0.65615 0.117234,-0.16012 0.385674,-0.40857 0.596509,-0.55206 0.302711,-0.20608 0.484211,-0.24677 0.862713,-0.19371 0.26371,0.0375 0.767645,0.14599 1.119872,0.24231 0.352331,0.0962 0.732257,0.25701 0.84438,0.35727 0.112069,0.10016 0.203722,0.32795 0.203722,0.50602 0,0.17802 -0.04713,0.44666 -0.103822,0.59693 -0.05717,0.1503 -0.293471,0.45733 -0.525136,0.68239 -0.231644,0.225 -0.706271,0.58188 -1.054669,0.79299 -0.543327,0.32933 -0.762933,0.39021 -1.542066,0.42738 -0.499669,0.0238 -1.111942,-0.008 -1.360631,-0.0703 z m 3.01488,-1.85863 c 0.04042,-0.0646 0.04004,-0.22184 -0.0011,-0.34933 -0.04745,-0.1478 -0.176384,-0.23194 -0.356924,-0.23194 -0.195169,0 -0.283293,0.0652 -0.283293,0.20962 0,0.11532 0.06287,0.27254 0.139675,0.34939 0.07689,0.0769 0.204851,0.13979 0.284252,0.13979 0.07952,0 0.17723,-0.0533 0.217233,-0.11753 z m -107.046374,1.18707 c -0.07012,-0.0443 -0.414166,-0.68788 -0.764558,-1.43132 -0.350383,-0.7434 -0.696569,-1.38834 -0.76929,-1.43334 -0.07272,-0.0454 -0.24878,-7e-5 -0.391256,0.0997 -0.142463,0.0998 -0.391483,0.18114 -0.553371,0.18072 -0.161883,-3.6e-4 -0.44852,-0.10243 -0.636966,-0.22665 -0.188437,-0.12424 -0.463296,-0.42527 -0.610805,-0.66888 -0.147492,-0.24363 -0.268438,-0.57662 -0.268768,-0.73997 -3.63e-4,-0.1633 0.06229,-0.35987 0.139158,-0.43666 0.07686,-0.0769 0.351985,-0.13839 0.611396,-0.13669 0.259402,0.002 0.681268,0.0983 0.937471,0.21458 0.425053,0.19316 0.498678,0.19614 0.84123,0.0356 0.299304,-0.14068 0.435685,-0.14896 0.672885,-0.0414 0.163626,0.0745 0.32886,0.21723 0.36719,0.31711 0.04004,0.1043 -0.03929,0.29766 -0.186142,0.45394 -0.255829,0.27232 -0.255829,0.27232 0.09464,0.96664 0.192767,0.38184 0.458469,1.01486 0.590469,1.40671 0.132,0.39181 0.240003,0.86815 0.240003,1.05857 0,0.19034 -0.04184,0.37203 -0.09291,0.40356 -0.0511,0.032 -0.150269,0.0215 -0.220377,-0.0224 z m -2.560318,-3.59178 c 0.04213,-0.0426 0.01825,-0.14697 -0.05316,-0.23292 -0.07134,-0.086 -0.2281,-0.15626 -0.348367,-0.15626 -0.120253,0 -0.218647,0.0502 -0.218647,0.11067 0,0.0609 0.09171,0.16411 0.203788,0.22934 0.112092,0.0653 0.234375,0.12034 0.271739,0.12222 0.03736,0.002 0.102418,-0.031 0.144565,-0.073 z m 4.904242,2.39827 c -0.451247,-0.46217 -0.451247,-0.46217 0.04012,-0.95347 0.491312,-0.49131 0.491312,-0.49131 0.981673,-10e-4 0.490364,0.49034 0.490364,0.49034 0.145567,0.85262 -0.189631,0.19927 -0.428323,0.40766 -0.53043,0.46302 -0.137948,0.0749 -0.301609,-0.0179 -0.636897,-0.3612 z m -5.815479,-0.3636 c -0.256203,-0.13438 -0.801595,-0.59062 -1.21198,-1.01382 -0.410384,-0.42322 -0.868415,-1.03157 -1.017856,-1.35183 -0.149439,-0.32025 -0.272218,-0.70279 -0.272842,-0.85009 -5.37e-4,-0.14729 0.07801,-0.42088 0.174754,-0.60798 0.09673,-0.18698 0.276711,-0.39409 0.399941,-0.45997 0.123223,-0.066 0.375583,-0.11998 0.560777,-0.11998 0.209326,0 0.441052,0.11104 0.61247,0.2936 0.275734,0.29349 0.275734,0.29349 -0.0017,0.48782 -0.15262,0.10687 -0.372369,0.2893 -0.488348,0.40521 -0.115972,0.11603 -0.210873,0.35912 -0.210873,0.54026 0,0.18125 0.162528,0.57483 0.36118,0.87468 0.198644,0.29992 0.543749,0.6958 0.766894,0.87972 0.270032,0.22258 0.598974,0.3601 0.983554,0.41114 0.344934,0.0462 0.604329,0.14572 0.643605,0.24808 0.03621,0.0943 0.0011,0.2493 -0.07796,0.34464 -0.07906,0.0952 -0.281446,0.17087 -0.449735,0.16801 -0.168306,-0.003 -0.515625,-0.11513 -0.771824,-0.24949 z m 115.042655,-0.58968 c -0.259871,-0.27222 -0.898189,-0.99869 -1.418335,-1.61437 -0.520276,-0.61567 -0.912425,-1.15278 -0.871636,-1.19365 0.04135,-0.0414 0.19998,-0.0743 0.353711,-0.0743 0.153589,0 0.376609,0.0525 0.495491,0.1157 0.118909,0.0636 0.757838,0.73177 1.419807,1.48479 0.662095,0.75303 1.275207,1.46089 1.362666,1.57288 0.146034,0.18737 0.117305,0.20387 -0.355113,0.20387 -0.453077,0 -0.570235,-0.0588 -0.986591,-0.49496 z m -109.08982,-1.1358 c -0.231628,-0.25638 -0.42115,-0.48867 -0.42115,-0.51624 0,-0.0276 0.236044,-0.24349 0.524537,-0.47993 0.524545,-0.42979 0.524545,-0.42979 0.974579,0.0774 0.450033,0.50713 0.450033,0.50713 -0.02965,0.94123 -0.263803,0.23882 -0.512845,0.43636 -0.553429,0.43904 -0.04061,0.003 -0.26331,-0.20508 -0.494933,-0.46145 z m -4.933845,-4.86113 c -0.208162,-0.10363 -0.378482,-0.25253 -0.378482,-0.33091 0,-0.0989 0.141863,-0.12345 0.463709,-0.0802 0.35198,0.0477 0.480401,0.0186 0.53303,-0.11842 0.0381,-0.0994 0.01576,-0.28078 -0.04971,-0.40314 -0.06547,-0.12233 -0.357742,-0.34902 -0.649476,-0.50382 -0.291732,-0.15472 -0.530429,-0.3208 -0.530429,-0.36894 0,-0.0486 0.144113,-0.0884 0.320249,-0.0893 0.176144,-10e-4 0.390924,-0.0471 0.477293,-0.10131 0.08636,-0.0543 0.138776,-0.19799 0.116457,-0.31846 -0.02249,-0.12139 -0.259226,-0.32272 -0.531288,-0.45186 -0.269899,-0.12813 -0.492629,-0.30433 -0.494951,-0.39167 -0.0035,-0.12367 0.118086,-0.14049 0.54895,-0.0759 0.304246,0.0461 0.657983,0.13674 0.786083,0.20241 0.128101,0.0657 0.35083,0.22692 0.494947,0.35817 0.144111,0.13133 0.262019,0.36403 0.262019,0.51714 0,0.1532 -0.05258,0.37672 -0.116734,0.49665 -0.08766,0.16383 -0.05742,0.31866 0.121438,0.62187 0.162261,0.27493 0.213764,0.50097 0.161576,0.70889 -0.04218,0.16796 -0.171947,0.35627 -0.288477,0.41865 -0.116522,0.0624 -0.359418,0.11001 -0.539771,0.10599 -0.180353,-0.004 -0.498232,-0.0923 -0.706398,-0.19582 z m -1.826689,-0.17522 c -0.227408,-0.20093 -0.434913,-0.71964 -0.889208,-2.22284 -0.325926,-1.07837 -0.567066,-1.98628 -0.535881,-2.01742 0.0312,-0.0314 0.209505,0.0224 0.396255,0.11885 0.186765,0.0966 0.407725,0.25772 0.491035,0.35811 0.08332,0.10042 0.400574,1.04715 0.705028,2.10387 0.499407,1.73351 0.532808,1.92145 0.341472,1.92145 -0.116639,0 -0.345549,-0.11795 -0.508701,-0.26202 z m 107.540136,0.0607 c -0.09608,-0.0371 -0.302177,-0.16536 -0.457915,-0.28626 -0.155705,-0.12085 -0.354502,-0.32171 -0.441742,-0.44627 -0.08728,-0.12458 -0.258218,-0.74915 -0.379963,-1.38794 -0.121768,-0.63881 -0.253855,-1.59624 -0.293591,-2.12757 -0.051,-0.6814 -0.02236,-1.15105 0.09739,-1.59453 0.169653,-0.62866 0.169653,-0.62866 -0.236858,-1.19447 -0.223609,-0.31122 -0.502582,-0.81858 -0.619953,-1.12747 -0.117365,-0.30889 -0.249103,-0.87723 -0.29268,-1.26292 -0.06437,-0.56843 -0.03573,-0.80115 0.153453,-1.22789 0.128095,-0.28951 0.417245,-0.73052 0.642567,-0.97986 0.409648,-0.45349 0.409648,-0.45349 -0.333774,-1.06193 -0.486186,-0.39802 -0.846448,-0.8118 -1.041224,-1.19631 -0.163893,-0.32332 -0.378573,-0.94488 -0.477125,-1.38132 -0.160091,-0.70892 -0.160446,-0.83837 -0.0033,-1.21422 0.120365,-0.28815 0.274898,-0.44547 0.490893,-0.49971 0.173372,-0.044 0.451898,-0.0314 0.619091,0.0278 0.279812,0.0983 0.314383,0.1864 0.436652,1.11375 0.0795,0.60246 0.252469,1.25642 0.430473,1.62772 0.16374,0.34142 0.4446,0.7843 0.62424,0.98421 0.179515,0.19997 0.433887,0.39668 0.565282,0.43719 0.170913,0.0531 0.664178,-0.17463 1.736231,-0.80025 0.823631,-0.48064 1.6071,-0.87358 1.74102,-0.87321 0.133876,3.8e-4 0.439942,0.0552 0.680176,0.12191 0.240153,0.0667 0.436675,0.16612 0.436675,0.22103 0,0.0548 -0.406146,0.35964 -0.902575,0.67715 -0.49632,0.31759 -1.396636,0.85538 -2.000624,1.19501 -0.603998,0.33972 -1.295438,0.79587 -1.536621,1.0137 -0.241064,0.21779 -0.499495,0.5814 -0.574282,0.80786 -0.07552,0.22882 -0.103004,0.61795 -0.06183,0.87538 0.04124,0.25498 0.204681,0.72124 0.364281,1.03618 0.159622,0.31499 0.344968,0.57268 0.411933,0.57268 0.06697,0 0.383351,-0.0856 0.703026,-0.19017 0.402687,-0.13168 0.810518,-0.17173 1.327363,-0.13019 0.517026,0.042 0.908258,0.15485 1.274171,0.36933 0.290395,0.17017 0.606977,0.46198 0.703413,0.64847 0.09637,0.18649 0.175314,0.54422 0.175314,0.79502 0,0.28663 -0.09075,0.57114 -0.24444,0.7666 -0.134438,0.17089 -0.514352,0.45199 -0.844309,0.6247 -0.513,0.26848 -0.750872,0.31581 -1.642396,0.32668 -0.999344,0.0121 -1.045506,0.0244 -1.114887,0.29361 -0.04031,0.15438 -0.0016,0.76542 0.08474,1.35791 0.08643,0.59246 0.221308,1.27374 0.299657,1.51401 0.122138,0.37406 0.197896,0.44206 0.528311,0.47373 0.266683,0.0257 1.367514,-0.32327 3.567016,-1.13038 2.67762,-0.98258 3.252627,-1.15643 3.632024,-1.09805 0.247903,0.0387 0.542438,0.11631 0.654534,0.17374 0.112064,0.0574 0.203799,0.19895 0.203799,0.31449 0,0.14339 -0.154282,0.2611 -0.485171,0.37031 -0.384851,0.12701 -0.523228,0.25021 -0.669573,0.59603 -0.112211,0.26516 -0.275727,0.44946 -0.417415,0.47071 -0.128061,0.0191 -0.531567,-0.0116 -0.896694,-0.0685 -0.639535,-0.0995 -0.75246,-0.0729 -3.092858,0.7271 -1.505133,0.51455 -2.603717,0.82682 -2.888188,0.82117 -0.252414,-0.005 -0.537632,-0.0396 -0.633654,-0.0756 z m 2.212647,-6.11424 c 0.133145,-0.14295 0.226893,-0.36039 0.208347,-0.4833 -0.0186,-0.12291 -0.16464,-0.31507 -0.324763,-0.42708 -0.160129,-0.11201 -0.462879,-0.23414 -0.672688,-0.2714 -0.344836,-0.0612 -0.399114,-0.0309 -0.565816,0.31885 -0.168829,0.35401 -0.168311,0.41756 0.0059,0.75468 0.164619,0.31851 0.251957,0.36805 0.648584,0.36805 0.324175,0 0.529146,-0.0761 0.700304,-0.2598 z m -89.9551753,5.58768 c -0.2274104,-0.2009 -0.43491,-0.7196 -0.8892109,-2.22282 -0.3259141,-1.07845 -0.5670698,-1.98629 -0.5358848,-2.01744 0.0312,-0.0314 0.209506,0.0223 0.3962664,0.11888 0.1867549,0.0965 0.4077251,0.25772 0.4910378,0.35812 0.083316,0.1004 0.4005753,1.04713 0.705024,2.10386 0.4994018,1.73348 0.5328027,1.92138 0.3414747,1.92138 -0.1166432,0 -0.3455569,-0.11788 -0.5087072,-0.26198 z m -4.7242677,-0.99588 c -0.273129,-0.22114 -0.273129,-0.22114 -0.07819,-0.91582 0.10721,-0.3821 0.194933,-1.04511 0.194933,-1.47322 0,-0.77845 0,-0.77845 -0.53557,-0.77845 -0.294566,0 -0.716995,0.0861 -0.938747,0.19138 -0.221746,0.10517 -0.617816,0.44586 -0.880141,0.75688 -0.367608,0.43599 -0.554101,0.56568 -0.813397,0.56568 -0.201923,0 -0.450713,-0.11424 -0.622279,-0.2858 -0.157216,-0.15729 -0.285846,-0.34917 -0.285846,-0.42653 0,-0.0773 0.131216,-0.36451 0.291594,-0.63821 0.160372,-0.27366 0.435495,-0.59952 0.611394,-0.72424 0.175892,-0.12474 0.572559,-0.31228 0.881493,-0.41672 0.30892,-0.10454 0.895889,-0.19506 1.30437,-0.20114 0.413996,-0.006 1.028839,0.0789 1.389254,0.1922 0.355615,0.11186 0.78458,0.33125 0.953259,0.48766 0.304144,0.28184 0.306206,0.2951 0.248581,1.601 -0.04247,0.96159 -0.117388,1.43816 -0.277878,1.76685 -0.195357,0.40004 -0.272486,0.45391 -0.694722,0.48483 -0.332522,0.0244 -0.556896,-0.0316 -0.748107,-0.18635 z m 105.30607,-0.69854 c -0.112101,-0.11527 -0.727854,-0.82766 -1.368376,-1.58315 -0.640506,-0.75538 -1.182,-1.42096 -1.203349,-1.47906 -0.02133,-0.058 0.126234,-0.10547 0.327878,-0.10547 0.20172,0 0.464073,0.0525 0.582916,0.11574 0.118877,0.0635 0.757833,0.73174 1.419884,1.48477 0.661964,0.75302 1.275126,1.46089 1.362524,1.57297 0.146345,0.18756 0.116258,0.20375 -0.379358,0.20375 -0.365128,0 -0.603862,-0.0674 -0.742119,-0.20955 z M -19.940358,744.2644 c -0.314469,-0.57775 -0.314469,-0.57775 0.165034,-0.88052 0.263733,-0.16643 0.541031,-0.32604 0.616219,-0.35472 0.07519,-0.0288 0.285898,0.21407 0.46825,0.53921 0.182349,0.32524 0.313362,0.6068 0.291137,0.62579 -0.02219,0.0188 -0.262077,0.17251 -0.533016,0.34122 -0.270947,0.16872 -0.53775,0.30677 -0.592887,0.30677 -0.05514,0 -0.24178,-0.25999 -0.414737,-0.57775 z m 104.165583,-1.70349 c -0.289042,-0.24318 -0.358293,-0.3906 -0.358293,-0.76274 0,-0.25367 0.07672,-0.60956 0.170373,-0.79074 0.09374,-0.18117 0.255698,-0.3622 0.36,-0.4022 0.10428,-0.0405 0.365825,0.0108 0.581258,0.11308 0.215351,0.10216 0.454838,0.262 0.532189,0.3552 0.109363,0.13172 0.109805,0.30269 0.0016,0.76993 -0.07618,0.33034 -0.223767,0.69476 -0.327927,0.80984 -0.104084,0.11499 -0.281978,0.20917 -0.395253,0.20917 -0.113253,0 -0.367156,-0.13566 -0.564223,-0.30154 z m 4.327412,-1.63949 c -0.08097,-0.0326 -0.722885,-0.73922 -1.426549,-1.57026 -0.703631,-0.83095 -1.279413,-1.56005 -1.279413,-1.62007 0,-0.06 0.144186,-0.10732 0.320275,-0.10514 0.176149,0.002 0.431122,0.0678 0.566645,0.14566 0.135519,0.0777 0.82991,0.80606 1.543037,1.61843 0.713182,0.81236 1.296671,1.50675 1.296671,1.54306 0,0.0369 -0.196528,0.0619 -0.436724,0.0569 -0.24018,-0.005 -0.502985,-0.0363 -0.583942,-0.0685 z m -4.775443,-0.85416 c -0.209471,-0.12765 -0.440515,-0.36314 -0.513459,-0.52322 -0.09936,-0.21808 -0.09902,-0.40322 0.0011,-0.73827 0.07367,-0.24596 0.236008,-0.53954 0.360628,-0.65228 0.195289,-0.17677 0.284531,-0.18597 0.645589,-0.0668 0.23046,0.0761 0.495725,0.25531 0.58944,0.39842 0.149912,0.22875 0.149072,0.33198 -0.0069,0.85757 -0.09758,0.32865 -0.258491,0.67858 -0.357545,0.77763 -0.09904,0.0991 -0.215646,0.17991 -0.259113,0.17968 -0.04396,-1.7e-4 -0.250435,-0.10495 -0.4599,-0.23268 z m -95.63751,-0.5364 c -0.09608,-0.0241 -2.000257,-0.19908 -4.231508,-0.38892 -3.836359,-0.32626 -4.084749,-0.36137 -4.570919,-0.6463 -0.282748,-0.16575 -0.514099,-0.34507 -0.514099,-0.39861 0,-0.0536 0.08125,-0.16467 0.180564,-0.24713 0.147935,-0.12278 0.921276,-0.0916 4.279769,0.17201 2.254573,0.17705 4.464886,0.39704 4.911811,0.48898 0.446924,0.0918 0.934489,0.24695 1.083483,0.34457 0.148993,0.0976 0.301916,0.25834 0.339833,0.35715 0.03788,0.0988 -0.004,0.22589 -0.0936,0.28257 -0.0894,0.0565 -0.39837,0.0976 -0.686594,0.0911 -0.288233,-0.006 -0.602665,-0.0316 -0.69874,-0.0554 z m -11.777414,-0.2215 c -0.168551,-0.0916 -0.343447,-0.25979 -0.388662,-0.37385 -0.04519,-0.11407 -0.337943,-1.04312 -0.650492,-2.0647 -0.312549,-1.0216 -0.548045,-1.8777 -0.523332,-1.90241 0.02472,-0.0248 0.234423,0.0455 0.466021,0.15484 0.231592,0.10995 0.46555,0.28472 0.519908,0.38849 0.05431,0.10373 0.321374,0.97471 0.593368,1.93548 0.271996,0.96075 0.519547,1.81235 0.550122,1.89236 0.03056,0.0801 -0.01559,0.14355 -0.102456,0.14095 -0.08692,-0.002 -0.295935,-0.0797 -0.464477,-0.17116 z m 9.137857,-3.39264 c -1.462578,-1.12992 -2.884241,-2.2698 -3.159276,-2.53288 -0.360584,-0.34498 -0.551099,-0.65389 -0.683031,-1.10758 -0.118237,-0.40651 -0.157055,-0.81807 -0.109713,-1.16341 0.04031,-0.29394 0.282134,-0.93597 0.537455,-1.42677 0.255313,-0.49074 0.464207,-1.02425 0.464207,-1.18565 0,-0.2293 0.08279,-0.31922 0.378482,-0.41133 0.208162,-0.0648 0.679896,-0.17744 1.048282,-0.25025 0.368374,-0.0728 0.894276,-0.25784 1.168664,-0.41116 0.274376,-0.1534 0.951065,-0.74094 1.50376,-1.30573 0.796913,-0.81439 1.022547,-1.1211 1.090251,-1.482 0.05405,-0.28803 0.03196,-0.58591 -0.06002,-0.81127 -0.07997,-0.19595 -0.172272,-0.47356 -0.205113,-0.61682 -0.0405,-0.17657 0.004,-0.28518 0.138835,-0.33683 0.109214,-0.0424 0.379002,0.01 0.599538,0.11505 0.220527,0.10512 0.559002,0.19116 0.752162,0.19116 0.193165,0 0.518913,-0.0866 0.723901,-0.19235 0.204989,-0.10587 0.733484,-0.53823 1.174442,-0.96076 0.4409646,-0.42265 1.056726,-1.07242 1.3683644,-1.44407 0.3424964,-0.40842 0.5666264,-0.78942 0.5666264,-0.96329 0,-0.18794 -0.093776,-0.33027 -0.2706726,-0.41093 -0.1488698,-0.0678 -0.5812113,-0.18461 -0.9607631,-0.25954 -0.6592287,-0.13006 -0.6947847,-0.15512 -0.7948396,-0.55998 -0.057604,-0.23311 -0.069825,-0.51483 -0.027169,-0.62602 0.063214,-0.16477 0.1819974,-0.19219 0.6414496,-0.148 0.3101329,0.0299 0.903618,0.21312 1.3188671,0.40748 0.4629595,0.21662 0.8582068,0.49821 1.021836,0.728 0.1467655,0.20616 0.2916355,0.59469 0.321929,0.86345 0.042622,0.37786 -0.027044,0.66988 -0.3068193,1.28689 -0.2834111,0.62503 -0.6066028,1.04724 -1.4901731,1.94655 -0.6205446,0.63166 -1.344486,1.25305 -1.6087582,1.38099 -0.2642673,0.12799 -0.6941606,0.23262 -0.9553176,0.23262 -0.325548,0 -0.497047,0.058 -0.545511,0.18418 -0.03888,0.10134 -0.0712,0.29785 -0.07182,0.43675 -5.41e-4,0.13891 -0.129938,0.52915 -0.287348,0.8673 -0.171498,0.36836 -0.602821,0.92846 -1.076085,1.39743 -0.434432,0.43049 -0.960319,0.92218 -1.168639,1.09274 -0.272991,0.22335 -0.357445,0.36978 -0.302435,0.52401 0.04201,0.11772 0.256433,0.51098 0.476557,0.87379 0.220114,0.3629 0.381983,0.75443 0.3597,0.87018 -0.02494,0.1296 -0.262794,0.29294 -0.619606,0.42537 -0.348924,0.1296 -0.720352,0.18855 -0.934538,0.14832 -0.195503,-0.0372 -0.634122,-0.27609 -0.974704,-0.53197 -0.34058,-0.25588 -0.688122,-0.46526 -0.772311,-0.46526 -0.08419,0 -0.343916,0.25998 -0.577177,0.57771 -0.233253,0.31776 -0.449842,0.7501 -0.481312,0.96078 -0.03887,0.26033 0.01758,0.50239 0.176066,0.7558 0.128307,0.20497 1.378779,1.28422 2.778825,2.39815 1.762428,1.40232 2.591496,2.13641 2.694923,2.38611 0.08215,0.19835 0.115031,0.41617 0.07305,0.48403 -0.04202,0.068 -0.121208,0.1235 -0.176067,0.1235 -0.05485,0 -1.296408,-0.92454 -2.758971,-2.05449 z m 100.812438,-2.03329 c -0.224182,-0.13409 -0.608488,-0.43526 -0.853959,-0.66919 -0.245432,-0.23392 -0.520598,-0.56683 -0.611389,-0.7398 -0.09079,-0.17297 -0.165092,-0.42184 -0.165092,-0.55316 0,-0.13865 0.07623,-0.23866 0.181669,-0.23866 0.09989,0 0.460538,0.26367 0.801294,0.58599 0.495878,0.46901 0.634091,0.54851 0.691773,0.39812 0.04014,-0.10342 0.07212,-0.26216 0.07212,-0.35284 0,-0.0906 -0.183426,-0.36784 -0.407629,-0.61598 -0.224155,-0.24818 -0.407591,-0.4785 -0.407591,-0.51189 0,-0.034 0.08358,-0.0929 0.185705,-0.13202 0.102153,-0.0397 0.409179,0.0278 0.682277,0.14834 0.273158,0.12085 0.627736,0.39617 0.788089,0.612 0.160342,0.21573 0.35118,0.57047 0.424129,0.78819 0.0729,0.21769 0.13254,0.53362 0.13254,0.70192 0,0.16832 -0.08162,0.42258 -0.181336,0.56489 -0.123131,0.17584 -0.300568,0.25868 -0.553168,0.25839 -0.204534,-1.9e-4 -0.555305,-0.11017 -0.779432,-0.2443 z m -11.471002,-5.44972 c -0.320259,-0.1844 -0.80556,-0.56158 -1.078397,-0.8383 -0.27288,-0.27663 -0.765616,-0.92448 -1.095043,-1.43956 -0.329368,-0.51511 -0.923444,-1.43446 -1.320022,-2.04289 -0.396655,-0.60853 -1.279686,-1.85352 -1.96206,-2.7667 -1.240953,-1.66027 -1.240953,-1.66027 -2.058835,-1.58424 -0.711087,0.066 -0.80898,0.0521 -0.748565,-0.10504 0.03873,-0.0996 0.225054,-0.24544 0.415282,-0.32426 0.19008,-0.0787 0.474572,-0.24457 0.632089,-0.36846 0.245394,-0.19296 0.286358,-0.32198 0.286358,-0.90033 0,-0.67506 0,-0.67506 -0.727849,-0.99027 -0.400266,-0.1734 -0.826129,-0.40304 -0.9462,-0.51022 -0.12006,-0.10714 -0.475391,-0.57477 -0.789628,-1.03922 -0.314154,-0.46435 -0.61878,-0.84426 -0.67681,-0.84426 -0.058,0 -0.541195,0.10439 -1.073657,0.23207 -0.532511,0.12769 -1.319923,0.23246 -1.749862,0.23291 -0.501338,5.4e-4 -1.007541,-0.0837 -1.411511,-0.23484 -0.34639,-0.12955 -0.819976,-0.42029 -1.05235,-0.64592 -0.232282,-0.22564 -0.499206,-0.55868 -0.592986,-0.74006 -0.09375,-0.18145 -0.302002,-0.67902 -0.462622,-1.10591 -0.160653,-0.4268 -0.326607,-1.03587 -0.368733,-1.35339 -0.0683,-0.51478 -0.05324,-0.5771 0.142211,-0.57549 0.12036,10e-4 0.272979,0.0408 0.339071,0.0873 0.06617,0.0474 0.270508,0.47858 0.454151,0.95897 0.236695,0.61952 0.477911,1.01369 0.829462,1.35588 0.283238,0.27568 0.767826,0.58425 1.130727,0.72002 0.349168,0.13069 1.069844,0.29708 1.601384,0.36989 0.531496,0.0728 1.088313,0.10169 1.237456,0.0643 0.175828,-0.0446 0.294017,-0.18 0.336191,-0.3865 0.03633,-0.17517 0.1299,-0.44885 0.209182,-0.60812 0.07931,-0.15926 0.289424,-0.34064 0.466942,-0.40308 0.21516,-0.0757 0.388756,-0.0732 0.520424,0.007 0.10873,0.0665 0.643161,0.76835 1.187585,1.55968 0.949135,1.3796 1.025771,1.45844 1.862733,1.91615 0.713798,0.39029 0.886429,0.5404 0.947029,0.82322 0.04124,0.19027 0.08276,0.55553 0.09343,0.81173 0.01058,0.25625 0.108873,0.64894 0.218307,0.87272 0.117447,0.24011 0.365706,0.48746 0.605793,0.60368 0.223794,0.10823 1.153713,0.43919 2.066433,0.73546 1.110725,0.3606 1.822669,0.66312 2.152827,0.91502 0.322385,0.24586 0.56232,0.55633 0.692443,0.89559 0.109419,0.28563 0.20184,0.71241 0.205331,0.94845 0.0033,0.23603 -0.04391,0.56005 -0.104192,0.71999 -0.08869,0.23327 -0.285606,0.34424 -0.9951,0.5607 -0.884428,0.2699 -0.884428,0.2699 -0.08405,1.49274 0.440198,0.67259 0.964789,1.39679 1.165816,1.60943 0.273584,0.28945 0.445871,0.37721 0.685871,0.34932 0.202271,-0.0235 0.374422,-0.14462 0.466538,-0.32835 0.08034,-0.16012 0.249333,-0.54004 0.375649,-0.84431 0.226626,-0.54613 0.236307,-0.55319 0.763855,-0.55319 0.37872,0 0.554738,0.0537 0.604641,0.18345 0.03916,0.10087 0.0102,0.3842 -0.06329,0.62958 -0.07352,0.24543 -0.371607,0.76935 -0.662345,1.16431 -0.329155,0.44715 -0.678753,0.78083 -0.92646,0.88429 -0.218891,0.0915 -0.569913,0.16582 -0.780153,0.1652 -0.210229,-5.5e-4 -0.644247,-0.152 -0.964494,-0.3364 z m -1.106351,-5.6815 c 0,-0.17192 -0.10482,-0.52911 -0.232882,-0.7938 -0.147235,-0.30415 -0.39702,-0.5733 -0.678971,-0.73176 -0.245275,-0.13788 -0.754167,-0.33093 -1.130755,-0.42903 -0.376658,-0.0982 -0.732447,-0.17842 -0.790587,-0.17842 -0.05823,0 0.04369,0.19536 0.225262,0.43417 0.182165,0.23869 0.508336,0.59251 0.725013,0.78604 0.216567,0.19358 0.681703,0.5485 1.033696,0.78867 0.351856,0.24024 0.68694,0.43677 0.744507,0.43677 0.05766,0 0.104717,-0.14073 0.104717,-0.31264 z m -94.027186,5.11644 c -0.03437,-0.11212 -0.01294,-0.41344 0.04763,-0.66964 0.06055,-0.25621 0.111329,-0.58369 0.112855,-0.72787 0.0017,-0.14409 -0.06771,-0.26197 -0.153854,-0.26197 -0.08615,0 -0.237658,0.0916 -0.336693,0.20375 -0.09903,0.11212 -0.21652,0.42621 -0.261092,0.6981 -0.04455,0.27189 -0.126582,0.5225 -0.182245,0.5569 -0.05567,0.0349 -0.178569,-0.057 -0.273131,-0.20313 -0.09455,-0.14616 -0.207875,-0.41202 -0.25183,-0.5907 -0.04397,-0.17881 -0.01201,-0.56744 0.07091,-0.86376 0.09527,-0.3403 0.331912,-0.72774 0.642288,-1.0517 0.413323,-0.43136 0.551478,-0.50696 0.869025,-0.47547 0.29235,0.0292 0.42837,0.12934 0.602596,0.44495 0.185012,0.3351 0.212945,0.5487 0.157022,1.20098 -0.03742,0.43643 -0.138666,0.96252 -0.22502,1.16918 -0.08635,0.20666 -0.246643,0.46539 -0.356199,0.57503 -0.109544,0.10955 -0.244304,0.19909 -0.299473,0.19909 -0.05514,0 -0.128401,-0.0916 -0.162764,-0.20374 z m 98.918369,-3.0245 c -0.160134,-0.029 -0.330752,-0.09 -0.379129,-0.1362 -0.04887,-0.0467 -0.02771,-0.38493 0.04675,-0.75296 0.08862,-0.4413 0.182825,-0.65035 0.276938,-0.61426 0.07833,0.0304 0.389973,0.0918 0.692438,0.13716 0.549933,0.0824 0.549933,0.0824 0.471327,0.60658 -0.04375,0.28823 -0.106156,0.59598 -0.139843,0.6838 -0.03431,0.0879 -0.199849,0.15269 -0.369164,0.14402 -0.169304,-0.009 -0.438796,-0.0399 -0.598925,-0.0681 z m -94.157154,-1.96804 c -0.04213,-0.24851 -0.100342,-0.53932 -0.129468,-0.64638 -0.04222,-0.15481 0.08166,-0.22247 0.607634,-0.33164 0.52467,-0.10891 0.679322,-0.10684 0.751547,0.01 0.05001,0.081 0.125719,0.37915 0.168226,0.66266 0.04253,0.2835 0.05759,0.53512 0.0334,0.55921 -0.02408,0.0242 -0.338808,0.0785 -0.699373,0.12092 -0.655548,0.077 -0.655548,0.077 -0.732047,-0.37477 z m 96.732807,-1.31075 c -1.791469,-0.90486 -1.791469,-0.90486 -1.379869,-1.10023 0.226413,-0.10741 0.454424,-0.19532 0.50682,-0.19532 0.05296,0 0.973189,0.40614 2.046213,0.90257 1.073018,0.49643 1.952476,0.93672 1.954249,0.97854 0.0016,0.0423 -0.1617,0.13345 -0.363458,0.20374 -0.201748,0.0703 -0.502986,0.1251 -0.669633,0.12169 -0.166527,-0.003 -1.109035,-0.41328 -2.094322,-0.91099 z m -98.801111,0.53497 c -0.03153,-0.0821 0.01351,-0.75027 0.100044,-1.48487 0.08653,-0.73449 0.159107,-1.45342 0.161281,-1.5975 0.0035,-0.22781 -0.05561,-0.26206 -0.451512,-0.26206 -0.364097,0 -0.515031,-0.0707 -0.752335,-0.35274 -0.163269,-0.19408 -0.33098,-0.53473 -0.372677,-0.75703 -0.04178,-0.22229 -0.04178,-0.58585 -6.2e-5,-0.80797 0.04172,-0.22211 0.156052,-0.4842 0.254196,-0.58231 0.09813,-0.0981 0.245535,-0.17849 0.32757,-0.17849 0.08203,0 0.32721,0.11969 0.544847,0.26585 0.217636,0.14614 0.522398,0.46057 0.677249,0.6987 0.206219,0.31716 0.362838,0.43298 0.585487,0.43298 0.167164,0 0.420414,0.0816 0.562766,0.18126 0.146427,0.10259 0.258825,0.30395 0.258825,0.46369 0,0.21134 -0.08051,0.30197 -0.320259,0.36063 -0.176133,0.0436 -0.358755,0.13583 -0.405811,0.20606 -0.04704,0.0702 -0.08636,0.34071 -0.08734,0.60116 -0.0011,0.26048 -0.05884,0.78447 -0.128595,1.16461 -0.06975,0.38005 -0.233409,0.93988 -0.363714,1.24418 -0.130289,0.30421 -0.303446,0.55318 -0.384783,0.55318 -0.08134,0 -0.173663,-0.0672 -0.205175,-0.14933 z m -0.200536,-4.49944 c 0,-0.0588 -0.03181,-0.18985 -0.07069,-0.29117 -0.03887,-0.10126 -0.14369,-0.18424 -0.232915,-0.18424 -0.08922,0 -0.162225,0.0682 -0.162225,0.15143 0,0.0832 0.06289,0.21434 0.13975,0.29114 0.07687,0.0769 0.181677,0.13974 0.232913,0.13974 0.05124,0 0.09317,-0.0485 0.09317,-0.1069 z m 3.569998,3.97922 c -0.03426,-0.0555 -0.09808,-0.37032 -0.141766,-0.69963 -0.07944,-0.59887 -0.07944,-0.59887 0.546175,-0.68184 0.344093,-0.0462 0.651827,-0.0735 0.683857,-0.0619 0.03196,0.0115 0.08892,0.138 0.126425,0.28086 0.03753,0.14299 0.10097,0.4265 0.141013,0.63008 0.06569,0.33404 0.04202,0.37614 -0.242889,0.43028 -0.173633,0.0334 -0.481027,0.0923 -0.683096,0.13161 -0.202068,0.0398 -0.395437,0.0262 -0.429719,-0.0297 z M 0.03862865,718.3196 c -0.09743127,-0.035 0.20799709,-0.42562 0.82873255,-1.06105 0.5687629,-0.5823 1.1190971,-1.2759 1.3059213,-1.64587 0.1775896,-0.35164 0.3705911,-0.7971 0.4288827,-0.98992 0.058302,-0.1927 0.1479742,-0.74394 0.19929,-1.22497 0.051311,-0.48107 0.049615,-1.23747 -0.00376,-1.68091 -0.053427,-0.44343 -0.1465217,-0.85565 -0.2069787,-0.91616 -0.068916,-0.0689 -0.1581442,0.0692 -0.2392102,0.37026 -0.07112,0.26408 -0.2420253,0.58519 -0.3798088,0.71359 -0.1377796,0.12832 -0.3585398,0.24125 -0.4905785,0.2509 -0.1320393,0.01 -0.3964478,0.004 -0.58757183,-0.011 -0.1911191,-0.0156 -0.49775237,-0.10632 -0.68139328,-0.20139 -0.23574109,-0.12187 -0.45026455,-0.42444 -0.7297211,-1.0293 -0.21770291,-0.47121 -0.395826,-1.04354 -0.395826,-1.27196 0,-0.25596 0.0868374,-0.50204 0.22642145,-0.64166 0.12453055,-0.12453 0.40833873,-0.26056 0.63068728,-0.3022 0.25048964,-0.0475 0.66084219,-10e-4 1.07874438,0.12019 0.3709582,0.10782 0.9239662,0.32254 1.2289036,0.47701 0.3480251,0.17638 0.7255926,0.50853 1.0141899,0.8923 0.2528694,0.33624 0.5745872,0.95197 0.7149251,1.36829 0.2181611,0.64713 0.2471661,0.93426 0.1999914,1.97971 -0.0405,0.8966 -0.1204702,1.37066 -0.2999296,1.77702 -0.1346062,0.30478 -0.4890137,0.81538 -0.7875709,1.13454 -0.2985568,0.31917 -0.8635713,0.78278 -1.2555982,1.03013 -0.3920237,0.24738 -0.92239367,0.55497 -1.17860131,0.6835 -0.25620218,0.12857 -0.53526109,0.20907 -0.62012837,0.17903 z m 0.90266346,-7.81594 c 0.0825747,-0.15434 0.0705998,-0.27903 -0.04158,-0.43232 -0.13371,-0.18291 -0.18592745,-0.192 -0.34485491,-0.0601 -0.10300364,0.0855 -0.187284,0.21716 -0.187284,0.29259 0,0.0754 0.0628844,0.20004 0.13974709,0.27682 0.0768551,0.0769 0.17982491,0.13978 0.22881655,0.13978 0.0489927,0 0.14128691,-0.0976 0.20510945,-0.21678 z m -12.68515711,6.73836 c 0,-0.6987 0,-0.6987 0.698743,-0.6987 0.698735,0 0.698735,0 0.698735,0.6987 0,0.69871 0,0.69871 -0.698735,0.69871 -0.698743,0 -0.698743,0 -0.698743,-0.69871 z m 8.6682165,0.43416 c -0.1323889,-0.0787 -0.8398636,-0.59266 -1.5721614,-1.1423 -0.7322984,-0.54956 -2.3667802,-1.7672 -3.6321813,-2.7059 -1.9620538,-1.45553 -2.3383278,-1.7841 -2.5561578,-2.23253 -0.18785,-0.38666 -0.221086,-0.56011 -0.125598,-0.65561 0.09548,-0.0955 0.225191,-0.0822 0.4902,0.0504 0.198205,0.0989 1.7879003,1.22882 3.532661,2.51097 1.7447608,1.28215 3.4493608,2.61278 3.7879926,2.95697 0.4214973,0.42834 0.6235271,0.73187 0.6405115,0.96243 0.016402,0.22191 -0.034762,0.34738 -0.1498735,0.36792 -0.096075,0.017 -0.2830042,-0.0335 -0.4153931,-0.11188 z M 75.511202,716.8004 c -0.9768,-0.49173 -1.775989,-0.92578 -1.775989,-0.96453 0,-0.0392 0.133489,-0.13119 0.296651,-0.20553 0.163156,-0.0743 0.385871,-0.1364 0.494961,-0.13795 0.109053,-0.002 1.049859,0.3997 2.09069,0.89171 1.040874,0.49196 1.89246,0.93352 1.89246,0.98125 0,0.0482 -0.165088,0.14432 -0.366813,0.21468 -0.201633,0.0703 -0.476826,0.12475 -0.611384,0.12115 -0.13452,-0.003 -1.043776,-0.40904 -2.020576,-0.90078 z m -89.816461,-0.51913 c 3.78e-4,-0.20816 0.05696,-0.58133 0.125784,-0.82919 0.08366,-0.30126 0.08644,-0.48936 0.0083,-0.56746 -0.07808,-0.0781 -0.216271,-0.0172 -0.41693,0.18332 -0.177745,0.1778 -0.300869,0.43292 -0.301924,0.62577 -0.0011,0.179 -0.05443,0.40414 -0.11882,0.50018 -0.09948,0.14849 -0.153643,0.13099 -0.36101,-0.1165 -0.208667,-0.24891 -0.235434,-0.39775 -0.184968,-1.02846 0.04735,-0.59163 0.127256,-0.82182 0.404259,-1.16462 0.18989,-0.23494 0.508573,-0.52278 0.708194,-0.63979 0.199623,-0.11692 0.461541,-0.18137 0.582027,-0.14312 0.120496,0.0388 0.313452,0.24473 0.428787,0.45898 0.1701,0.31579 0.197199,0.55477 0.14349,1.26494 -0.03643,0.48161 -0.156645,1.05209 -0.267171,1.26766 -0.110515,0.21568 -0.259128,0.43056 -0.330258,0.47756 -0.07113,0.0476 -0.194827,0.0864 -0.274893,0.0874 -0.08709,10e-4 -0.145311,-0.15019 -0.144922,-0.37663 z m 23.0031674,-0.30878 c -0.039213,-0.12353 -0.038302,-0.35595 0.00202,-0.51651 0.040342,-0.16054 0.422352,-0.62389 0.8490148,-1.02968 0.4266654,-0.40574 1.1425858,-1.0714 1.5909438,-1.47925 0.739838,-0.67294 0.81882,-0.71718 0.854405,-0.47893 0.02155,0.14442 0.0075,0.43105 -0.03104,0.63699 -0.05433,0.28977 -0.337309,0.60847 -1.252958,1.4113 -0.650504,0.57037 -1.3533657,1.18179 -1.5619077,1.35885 -0.3564251,0.3025 -0.3834546,0.30837 -0.450462,0.0972 z m -0.4112477,-1.80315 c 0,-0.31854 0.098426,-0.51136 0.4367095,-0.85564 0.2401942,-0.24452 0.9532129,-0.91487 1.5844888,-1.48979 0.631271,-0.57489 1.194628,-1.06267 1.251906,-1.0841 0.05727,-0.0212 0.104127,0.11945 0.104127,0.31271 0,0.1933 -0.04915,0.48072 -0.109167,0.63864 -0.06005,0.15792 -0.745129,0.85575 -1.522402,1.55064 -0.7772765,0.69491 -1.4880288,1.28046 -1.5794481,1.30115 -0.1197142,0.0273 -0.1662142,-0.0774 -0.1662142,-0.37361 z m -21.9209537,-3.18251 c -0.103204,-0.11443 -0.218387,-0.33915 -0.255976,-0.49928 -0.04086,-0.17392 0.14089,-1.0823 0.451186,-2.25563 0.285741,-1.08049 0.545413,-1.99044 0.577045,-2.022 0.03164,-0.0321 0.164954,0.11866 0.296271,0.3341 0.131314,0.21533 0.238945,0.51211 0.239187,0.65943 1.87e-4,0.14729 -0.214708,1.03822 -0.477657,1.9798 -0.262949,0.94149 -0.515066,1.77932 -0.560254,1.86188 -0.06331,0.11549 -0.12524,0.1021 -0.269802,-0.0583 z m 80.948829,-1.20934 c -1.839076,-0.91111 -1.891702,-0.94707 -1.612347,-1.10161 0.158804,-0.0879 0.428258,-0.16172 0.598767,-0.16399 0.170591,-0.002 1.035262,0.34125 1.921555,0.76339 0.886265,0.42212 1.742471,0.8194 1.9026,0.8828 0.291098,0.11518 0.291098,0.11518 0,0.26443 -0.160129,0.0821 -0.430276,0.18243 -0.600382,0.22303 -0.240998,0.0575 -0.728455,-0.13394 -2.210193,-0.86805 z m -62.5798028,0.64977 c -0.2158211,-0.17331 -0.2185336,-0.19769 -0.036965,-0.33247 0.1077769,-0.08 0.6842313,-0.21002 1.2810234,-0.28895 0.5967928,-0.0788 1.3026841,-0.24823 1.5686504,-0.37623 0.2659669,-0.1281 0.7143377,-0.47956 0.9963846,-0.78117 0.2820463,-0.30152 0.7063969,-0.87864 0.9430151,-1.28237 0.3376909,-0.57619 0.4302109,-0.85686 0.4302109,-1.30517 0,-0.5216 -0.0372,-0.5992 -0.4290055,-0.89625 -0.2359532,-0.17893 -0.5765918,-0.46537 -0.7569671,-0.63659 -0.2173565,-0.20628 -0.3279638,-0.42891 -0.3279638,-0.66004 0,-0.1919 0.031773,-0.4317 0.070685,-0.53305 0.043778,-0.11413 0.2099771,-0.18399 0.4367154,-0.18364 0.2069842,3.8e-4 0.5035828,0.11425 0.6826009,0.26208 0.17412,0.14377 0.4982515,0.56716 0.7202835,0.9407 0.222038,0.37365 0.459595,0.93995 0.527913,1.25848 0.09608,0.44802 0.0857,0.76388 -0.04576,1.39464 -0.09351,0.44853 -0.352931,1.19232 -0.57648,1.65294 -0.2756615,0.56798 -0.5355161,0.92387 -0.8075125,1.10589 -0.2205818,0.14767 -0.6818192,0.37722 -1.0249756,0.51005 -0.4677409,0.18107 -0.9737406,0.25366 -2.0214049,0.28986 -1.1591624,0.0405 -1.4371931,0.0162 -1.6303915,-0.13871 z m 40.5537048,-0.59219 c -0.03905,-0.0391 -0.02487,-0.18952 0.03076,-0.33531 0.05547,-0.14576 0.684736,-1.46359 1.398512,-2.9285 0.713744,-1.46501 1.40592,-2.88213 1.538226,-3.14928 0.132262,-0.2671 0.418467,-0.669 0.635983,-0.89294 0.217582,-0.2239 0.638864,-0.49012 0.936344,-0.59148 0.297486,-0.10131 0.719907,-0.18432 0.938755,-0.18432 0.218787,0 0.761203,0.11041 1.205329,0.24531 0.453223,0.13761 0.992814,0.22362 1.229743,0.19602 0.422062,-0.0497 0.422062,-0.0497 0.918469,1.00661 0.329973,0.70206 0.665493,1.21681 1.001084,1.53602 0.277576,0.2641 0.976462,0.79253 1.55286,1.17433 0.57648,0.38179 1.288506,0.83391 1.582396,1.00475 0.293919,0.1708 0.671962,0.31042 0.84017,0.31042 0.183311,0 0.35436,-0.0902 0.426578,-0.22517 0.06622,-0.12388 0.119727,-0.55625 0.118794,-0.96077 -0.0011,-0.40459 -0.07679,-1.05364 -0.168409,-1.44237 -0.09434,-0.39987 -0.351518,-0.98144 -0.592052,-1.33894 -0.359831,-0.53464 -0.41597,-0.70173 -0.364675,-1.08463 0.04445,-0.32815 0.196118,-0.59055 0.553173,-0.95432 0.270867,-0.27601 0.751178,-0.6131 1.067312,-0.74915 0.316168,-0.13599 0.941253,-0.27796 1.38888,-0.31551 0.447699,-0.0381 1.320922,-0.007 1.940444,0.0675 0.619587,0.0746 1.868215,0.21495 2.774935,0.31177 0.906572,0.0968 1.915369,0.25534 2.241731,0.3523 0.326334,0.0969 0.5934,0.24363 0.5934,0.32602 0,0.0824 -0.11801,0.25724 -0.26208,0.38858 -0.144055,0.13122 -0.366802,0.2919 -0.494951,0.35707 -0.166206,0.0845 -0.88254,0.0389 -2.503828,-0.1613 -1.248927,-0.15389 -2.933689,-0.31311 -3.743738,-0.35387 -0.810011,-0.0412 -1.547951,-0.0458 -1.639833,-0.01 -0.141229,0.0544 -0.116607,0.35756 0.159699,1.96778 0.179661,1.04699 0.328014,2.04216 0.329651,2.21155 0.0016,0.16944 -0.100468,0.64323 -0.226975,1.05302 -0.136756,0.44262 -0.397484,0.94047 -0.642442,1.22659 -0.226767,0.26496 -0.594202,0.54167 -0.816556,0.6151 -0.302384,0.0998 -0.564398,0.10015 -1.039773,0.002 -0.41448,-0.0861 -1.000435,-0.36229 -1.685073,-0.79456 -0.577303,-0.36455 -1.27458,-0.83146 -1.549516,-1.03766 -0.274953,-0.20616 -0.641024,-0.48927 -0.813491,-0.62916 -0.3015,-0.24438 -0.325456,-0.24651 -0.619205,-0.0543 -0.168028,0.11017 -0.51168,0.40631 -0.763642,0.65829 -0.251929,0.25197 -0.549704,0.45772 -0.661778,0.45728 -0.112091,-5.4e-4 -0.323204,-0.17611 -0.46901,-0.3903 -0.14587,-0.21427 -0.312561,-0.55454 -0.370341,-0.7562 -0.05788,-0.20169 -0.06301,-0.51379 -0.01124,-0.69373 0.05187,-0.17983 0.172298,-0.48122 0.268189,-0.66963 0.09599,-0.18836 0.211037,-0.46092 0.255649,-0.60561 0.07222,-0.23425 5.4e-4,-0.30133 -0.654927,-0.61137 -0.40476,-0.19145 -0.874582,-0.34822 -1.043934,-0.34827 -0.176859,-5e-5 -0.456977,0.13913 -0.65802,0.32689 -0.214179,0.20021 -0.917324,1.461 -1.81296,3.25107 -0.852246,1.70355 -1.572819,3.00114 -1.726168,3.10851 -0.144796,0.10142 -0.321398,0.18437 -0.392634,0.18437 -0.07109,0 -0.160948,-0.032 -0.199528,-0.0702 z m -48.8988097,-0.45665 c -0.1702855,-0.0925 -0.4235439,-0.35255 -0.5627979,-0.57781 -0.1392578,-0.22539 -0.2345072,-0.4658 -0.2116658,-0.53433 0.024115,-0.0723 0.1747609,-0.0197 0.3590897,0.12521 0.1746583,0.13741 0.4092316,0.23231 0.5212696,0.21099 0.1120413,-0.0212 0.2189165,-0.14447 0.2375034,-0.27358 0.01854,-0.12907 -0.1013989,-0.48888 -0.2666274,-0.79966 -0.1652296,-0.31078 -0.2770113,-0.5884 -0.2484131,-0.61703 0.028653,-0.0287 0.2178589,0.0342 0.4205651,0.13863 0.2878456,0.14884 0.4049836,0.16035 0.5348755,0.0528 0.091477,-0.0758 0.1663172,-0.20284 0.1663172,-0.28218 0,-0.0792 -0.1310094,-0.33718 -0.2911369,-0.57314 -0.1601323,-0.23601 -0.2911423,-0.4791 -0.2911423,-0.54031 0,-0.0612 0.053815,-0.11127 0.1195227,-0.11127 0.06573,0 0.3521705,0.23264 0.6365171,0.517 0.284352,0.28434 0.5506822,0.65117 0.5918422,0.8152 0.041214,0.16394 0.041558,0.43098 7.636e-4,0.59324 -0.040784,0.16229 -0.196782,0.35101 -0.3467629,0.41932 -0.2234706,0.10184 -0.2704887,0.20836 -0.2604829,0.58992 0.00977,0.37361 -0.052004,0.52073 -0.3128695,0.74517 -0.1787956,0.15383 -0.3614623,0.27757 -0.4059305,0.275 -0.044422,-0.002 -0.2201722,-0.0804 -0.3904539,-0.17283 z m 30.8459327,-0.60564 c -0.03284,-0.17127 -0.01811,-0.42012 0.03267,-0.55289 0.05095,-0.1328 0.687633,-0.79057 1.415684,-1.4617 0.728111,-0.67098 1.441473,-1.3199 1.585096,-1.44194 0.261344,-0.22185 0.261344,-0.22185 0.261344,0.33366 0,0.49266 -0.04986,0.60119 -0.436778,0.95851 -0.240137,0.22162 -0.967942,0.86929 -1.61742,1.43938 -1.154673,1.01372 -1.181935,1.02958 -1.240151,0.72498 z M -5.564953,707.9095 c -0.1313188,-0.21539 -0.2389506,-0.43125 -0.2391895,-0.47965 -1.893e-4,-0.0489 0.2365806,-0.98859 0.5262693,-2.08923 0.2896876,-1.10052 0.5457398,-2.02011 0.5690051,-2.04337 0.02328,-0.0232 0.153084,0.0985 0.2884903,0.27068 0.1354031,0.17213 0.2456641,0.47628 0.2450199,0.67573 -7.637e-4,0.19955 -0.2262246,1.16048 -0.5012968,2.13543 -0.2750727,0.97494 -0.5337523,1.80629 -0.5748409,1.8473 -0.041138,0.0416 -0.1821447,-0.10146 -0.3134574,-0.31689 z m 28.032931,-1.62781 c -0.550577,-0.36004 -0.550577,-0.36004 -0.184931,-0.90118 0.200967,-0.29765 0.379091,-0.55887 0.395776,-0.58051 0.01653,-0.0216 0.27012,0.10122 0.563291,0.27307 0.293247,0.17184 0.556102,0.34958 0.58416,0.3949 0.02825,0.0458 -0.109254,0.32858 -0.304942,0.62947 -0.195671,0.3009 -0.388892,0.54645 -0.429354,0.5457 -0.04096,-5.4e-4 -0.321289,-0.16344 -0.624,-0.36145 z m -10.131889,0.0365 c -0.174737,-0.0207 -0.42366,-0.17222 -0.553173,-0.33689 -0.129507,-0.16458 -0.235473,-0.39127 -0.235473,-0.50367 0,-0.11236 0.09171,-0.31233 0.203798,-0.44453 0.15222,-0.17936 0.439588,-0.27157 1.135451,-0.36405 0.531153,-0.0706 1.190002,-0.24978 1.532629,-0.41664 0.33054,-0.16103 0.789088,-0.50106 1.018997,-0.75552 0.229909,-0.25444 0.418014,-0.53004 0.418014,-0.61234 0,-0.0824 -0.321136,-0.67179 -0.713634,-1.30983 -0.392499,-0.63803 -0.807835,-1.31729 -0.922969,-1.50953 -0.17963,-0.29971 -0.191853,-0.43603 -0.08613,-0.96074 0.06776,-0.33621 0.164008,-0.61137 0.213878,-0.61137 0.04986,0 0.21449,0.14713 0.36582,0.32694 0.151331,0.17993 0.588333,0.83904 0.971117,1.46491 0.382784,0.62579 0.905596,1.46032 1.161796,1.85453 0.256206,0.39422 0.649249,0.84095 0.873426,0.99273 0.369491,0.25006 0.497602,0.27056 1.370198,0.21853 0.729491,-0.044 1.119245,-0.13398 1.609473,-0.3739 0.355772,-0.17409 0.693845,-0.42876 0.751172,-0.56593 0.05743,-0.13718 0.159835,-0.46994 0.227897,-0.73946 0.06793,-0.26951 0.181303,-0.52564 0.251809,-0.56932 0.07262,-0.0453 0.368771,0.19333 0.681894,0.54829 0.553555,0.62753 0.553555,0.62753 1.411626,0.61981 0.520614,-0.004 1.384516,-0.13634 2.197216,-0.33502 0.736653,-0.18013 1.476748,-0.39726 1.64472,-0.4826 0.168,-0.0854 0.335329,-0.26918 0.371777,-0.40857 0.05155,-0.19509 -0.08068,-0.40729 -0.572995,-0.92341 -0.561033,-0.58824 -0.629449,-0.7108 -0.559402,-1.00328 0.04429,-0.18321 0.131286,-0.39858 0.194378,-0.47869 0.0631,-0.08 0.23639,-0.14556 0.385102,-0.14556 0.17958,0 0.437106,0.19354 0.766871,0.57643 0.273147,0.31703 0.616642,0.801 0.763435,1.07545 0.146831,0.27447 0.266989,0.64559 0.266989,0.82475 0,0.17918 -0.07087,0.49529 -0.157364,0.70236 -0.08653,0.20713 -0.359258,0.55386 -0.60606,0.77057 -0.246802,0.2167 -0.713176,0.51487 -1.036347,0.66254 -0.323236,0.14769 -1.059235,0.37989 -1.635758,0.51612 -0.576475,0.13621 -1.36254,0.24726 -1.746829,0.24677 -0.384377,-5.4e-4 -0.855824,-0.0607 -1.0479,-0.13396 -0.191984,-0.0732 -0.436953,-0.21266 -0.544424,-0.3098 -0.177229,-0.1605 -0.235255,-0.1323 -0.632684,0.30767 -0.240714,0.26635 -0.641902,0.58857 -0.891703,0.71603 -0.249753,0.12736 -0.85602,0.33553 -1.347208,0.46245 -0.555294,0.1436 -1.045712,0.20317 -1.29666,0.15759 -0.221972,-0.0409 -0.562592,-0.15559 -0.756971,-0.25609 -0.194367,-0.10047 -0.554841,-0.34453 -0.801054,-0.54236 -0.447671,-0.35967 -0.447671,-0.35967 -0.676118,-0.0693 -0.125646,0.15968 -0.408709,0.50969 -0.62904,0.77774 -0.248117,0.30181 -0.677842,0.62129 -1.12896,0.8393 -0.400604,0.19351 -0.990399,0.39387 -1.310657,0.44517 -0.320252,0.0519 -0.725247,0.0763 -0.899972,0.0557 z m 15.714109,-0.96291 c -0.30156,-0.1877 -0.548269,-0.39724 -0.548269,-0.46563 0,-0.0684 0.160112,-0.35708 0.355838,-0.64147 0.355822,-0.51712 0.355822,-0.51712 0.902493,-0.14769 0.300736,0.20322 0.564289,0.38274 0.585594,0.39907 0.02116,0.0162 -0.138131,0.29222 -0.354289,0.61326 -0.393158,0.58372 -0.393158,0.58372 -0.941367,0.24246 z m 16.236856,-0.012 c -0.0561,-0.14878 -0.195425,-2.34052 -0.309856,-4.87058 -0.207878,-4.60006 -0.207878,-4.60006 0.03731,-5.15321 0.134575,-0.30419 0.293629,-0.55311 0.353416,-0.55311 0.05979,0 0.174377,0.0791 0.254591,0.17566 0.09989,0.12042 0.21654,1.44829 0.370784,4.22154 0.12378,2.22525 0.195862,4.43139 0.160053,4.90258 -0.03627,0.47116 -0.131079,0.99452 -0.211828,1.16308 -0.08086,0.16864 -0.238118,0.32406 -0.349521,0.34549 -0.12672,0.0244 -0.240693,-0.0623 -0.30437,-0.23145 z m -4.969385,-0.80086 c -0.194635,-0.0572 -0.569842,-0.28884 -0.833678,-0.51471 -0.263869,-0.22586 -0.502571,-0.41061 -0.530389,-0.41061 -0.02798,0 -0.20304,0.13403 -0.389128,0.29794 -0.186114,0.16392 -0.491176,0.37931 -0.677907,0.47879 -0.227204,0.12094 -0.526178,0.1629 -0.903769,0.12662 -0.310211,-0.0299 -0.661157,-0.14203 -0.779684,-0.24932 -0.118658,-0.10729 -0.307745,-0.41629 -0.42036,-0.68658 -0.11268,-0.27031 -0.25746,-0.60517 -0.321938,-0.74405 -0.117158,-0.25252 -0.117158,-0.25252 -0.574565,-0.014 -0.251613,0.13126 -0.681742,0.26378 -0.95598,0.29467 -0.33666,0.0385 -0.627726,-0.009 -0.896248,-0.1455 -0.218836,-0.11093 -0.489556,-0.2821 -0.601592,-0.38037 -0.11208,-0.0983 -0.203831,-0.24349 -0.203831,-0.32275 0,-0.0791 0.232232,-0.40236 0.51612,-0.71804 0.283898,-0.31581 0.873398,-0.81118 1.310127,-1.10078 0.436718,-0.28974 0.965231,-0.62526 1.174424,-0.74582 0.209192,-0.12046 0.511227,-0.41688 0.671214,-0.65862 0.159987,-0.24189 0.335466,-0.43967 0.389951,-0.43967 0.05462,0 0.132278,0.24321 0.173035,0.54037 0.04124,0.29711 0.07404,1.16419 0.07404,1.92676 0,1.31683 0.01424,1.40094 0.285763,1.67244 0.198311,0.19827 0.415189,0.28579 0.707738,0.28579 0.315753,0 0.51191,-0.09 0.780219,-0.3583 0.358292,-0.35826 0.358292,-0.35826 0.284634,-2.18351 -0.04102,-1.00394 -0.108322,-2.37731 -0.15048,-3.05192 -0.07526,-1.20031 -0.07051,-1.2341 0.221487,-1.57214 0.298359,-0.34554 0.298359,-0.34554 0.415419,-0.04 0.06441,0.16829 0.17472,0.82337 0.245165,1.45573 0.07045,0.63236 0.173449,1.91456 0.228927,2.84936 0.06964,1.17543 0.159202,1.81261 0.290193,2.06595 0.104247,0.20153 0.309006,0.44471 0.455149,0.54042 0.146073,0.0958 0.420164,0.20254 0.609011,0.23721 0.188766,0.0351 0.406238,0.0207 0.483246,-0.0312 0.106587,-0.0716 0.07231,-0.42571 -0.144415,-1.48805 -0.156365,-0.76672 -0.284116,-1.78711 -0.283838,-2.26749 2.02e-4,-0.4804 0.0668,-1.00439 0.147774,-1.16451 0.08112,-0.16012 0.223113,-0.2912 0.315835,-0.2912 0.0926,0 0.2043,0.13108 0.248214,0.2912 0.04435,0.16012 0.241604,1.15842 0.439451,2.21843 0.197875,1.06001 0.358637,2.16048 0.357186,2.44551 -0.0011,0.28508 -0.102109,0.7376 -0.223746,1.0056 -0.126905,0.27938 -0.361712,0.55898 -0.550554,0.65561 -0.181233,0.0926 -0.486698,0.1967 -0.678802,0.23129 -0.192229,0.0349 -0.508691,0.0159 -0.703418,-0.0417 z m -5.082584,-2.9207 c 0.207573,-0.0778 0.261251,-0.17472 0.232882,-0.42118 -0.02542,-0.21866 -0.110695,-0.32861 -0.269722,-0.34684 -0.128073,-0.0145 -0.468758,0.0902 -0.756949,0.23295 -0.288278,0.14277 -0.524084,0.31037 -0.524084,0.37253 0,0.0622 0.131008,0.17898 0.291142,0.2595 0.160124,0.0806 0.395902,0.1144 0.52404,0.0752 0.128155,-0.0397 0.354295,-0.11662 0.502691,-0.17219 z m 22.171266,-2.05753 c -0.1248,-0.12479 -0.2469,-0.2869 -0.271337,-0.3602 -0.03262,-0.0967 -0.345949,-0.10684 -1.143441,-0.0375 -0.604375,0.0536 -1.414484,0.0538 -1.800273,5.4e-4 -0.385697,-0.0529 -0.752962,-0.1475 -0.815967,-0.21056 -0.07523,-0.0752 -0.06991,-0.15947 0.01549,-0.24497 0.07176,-0.0717 0.619359,-0.17838 1.217062,-0.23726 0.597606,-0.0588 1.320617,-0.14515 1.606604,-0.19192 0.520064,-0.085 0.520064,-0.085 0.487969,-0.60766 -0.02755,-0.44363 0.01718,-0.56983 0.295162,-0.83488 0.17994,-0.17172 0.474747,-0.36797 0.655129,-0.43615 0.180256,-0.068 0.523522,-0.12387 0.762791,-0.12387 0.239133,0 0.49776,0.0629 0.574658,0.13981 0.07684,0.0769 0.139778,0.3025 0.139778,0.50136 0,0.19948 -0.126082,0.53257 -0.280963,0.74257 -0.154571,0.20946 -0.361931,0.44236 -0.460817,0.51756 -0.108169,0.0823 -0.193347,0.36325 -0.214009,0.70563 -0.02607,0.43189 -0.09517,0.60919 -0.287564,0.73635 -0.226838,0.14989 -0.27745,0.14367 -0.480381,-0.0593 z m 0.721385,-2.26619 c 0.0664,-0.1053 0.08445,-0.22752 0.04075,-0.2717 -0.04467,-0.0447 -0.160288,-0.014 -0.25788,0.0669 -0.09763,0.0811 -0.177546,0.22386 -0.177546,0.3175 0,0.0935 0.06177,0.14954 0.137242,0.12436 0.07549,-0.0253 0.191553,-0.13187 0.257918,-0.23702 z m -38.360007,1.66939 c 0,-0.43314 0.07215,-0.5249 1.37694,-1.75061 0.757391,-0.71135 1.490994,-1.37324 1.630391,-1.47087 0.249567,-0.17479 0.253423,-0.16907 0.253423,0.36849 0,0.46776 -0.05536,0.59799 -0.386416,0.90911 -0.212646,0.19973 -0.913833,0.82167 -1.558238,1.38211 -0.644433,0.56046 -1.204168,1.01897 -1.243877,1.01897 -0.03987,0 -0.07222,-0.2057 -0.07222,-0.4572 z m 46.991858,-0.70411 c -0.159862,-0.30918 -0.219278,-0.33762 -0.556162,-0.26581 -0.207392,0.0447 -0.901178,0.0821 -1.541694,0.0842 -0.640522,0.002 -1.308704,-0.0371 -1.484826,-0.0858 -0.1761,-0.0497 -0.320252,-0.16407 -0.320252,-0.25517 0,-0.0911 0.04511,-0.19313 0.09919,-0.22693 0.05459,-0.0339 0.69601,-0.11752 1.42554,-0.18635 0.72949,-0.0688 1.445945,-0.15509 1.59223,-0.1918 0.230335,-0.0578 0.256168,-0.11821 0.193391,-0.45277 -0.05073,-0.2682 -0.0082,-0.49476 0.137739,-0.7418 0.115489,-0.19559 0.372943,-0.43296 0.571903,-0.52736 0.199015,-0.0945 0.582627,-0.20707 0.852393,-0.2502 0.384518,-0.0615 0.540245,-0.0336 0.72054,0.12965 0.126474,0.11445 0.229909,0.3133 0.229909,0.44189 0,0.12852 -0.132682,0.46004 -0.294802,0.73676 -0.162158,0.2766 -0.399807,0.55919 -0.528163,0.62789 -0.190926,0.10222 -0.21959,0.19799 -0.15792,0.52671 0.05275,0.27981 0.0174,0.49005 -0.115091,0.69246 -0.104695,0.15985 -0.292642,0.29061 -0.417671,0.29061 -0.134193,0 -0.300524,-0.14168 -0.406255,-0.34615 z m 0.988293,-2.2339 c 0,-0.0544 -0.07221,-0.0984 -0.160429,-0.0984 -0.08829,0 -0.223817,0.0763 -0.301211,0.16951 -0.07742,0.0932 -0.104782,0.2277 -0.06093,0.29878 0.05468,0.0884 0.149569,0.0659 0.301216,-0.0712 0.121724,-0.1102 0.221351,-0.24464 0.221351,-0.29869 z m -36.046211,1.1779 c -0.04189,-0.067 -0.01047,-0.20014 0.06866,-0.29559 0.07928,-0.0955 0.708922,-0.54188 1.399189,-0.99193 1.254977,-0.81838 1.254977,-0.81838 0.967904,-1.2414 -0.219142,-0.32289 -0.268817,-0.50716 -0.210038,-0.77887 0.04287,-0.19581 0.176236,-0.49629 0.29754,-0.6679 0.121249,-0.17164 0.396076,-0.42057 0.610691,-0.55318 0.214554,-0.13268 0.498883,-0.24117 0.631745,-0.24117 0.133009,0 0.323313,0.11652 0.423005,0.25882 0.0997,0.14241 0.18125,0.39606 0.18125,0.56374 0,0.1678 -0.06951,0.53605 -0.154484,0.81847 -0.138262,0.45944 -0.132153,0.5502 0.05759,0.86282 0.116717,0.19212 0.2124,0.43103 0.212733,0.53087 3.71e-4,0.0999 -0.07429,0.28326 -0.165862,0.40762 -0.162572,0.22089 -0.175489,0.22116 -0.56754,0.0117 -0.401051,-0.21421 -0.401051,-0.21421 -0.978867,0.20099 -0.317776,0.22828 -0.914029,0.56828 -1.324931,0.75541 -0.410782,0.18722 -0.887962,0.37212 -1.060173,0.41093 -0.172189,0.0393 -0.347001,0.0154 -0.38844,-0.0519 z m 3.508309,-3.43621 c 0.0414,-0.16312 0.04587,-0.32561 0.0099,-0.36102 -0.03589,-0.0361 -0.120317,-0.0302 -0.18858,0.0121 -0.06839,0.0427 -0.1242,0.20473 -0.1242,0.36103 0,0.15633 0.05187,0.2843 0.114201,0.2843 0.06279,0 0.147748,-0.13341 0.188629,-0.29659 z m -21.963797,2.91192 c 0,-0.0989 0.24054,-0.43691 0.534535,-0.75115 0.293994,-0.31436 0.500514,-0.62654 0.458951,-0.6938 -0.04162,-0.0673 -0.188188,-0.12226 -0.325822,-0.12226 -0.137635,0 -0.448898,0.19395 -0.691696,0.43106 -0.321699,0.31406 -0.476275,0.39625 -0.569859,0.3026 -0.0773,-0.0772 -0.0961,-0.27542 -0.04724,-0.49787 0.04456,-0.20327 0.2415,-0.55218 0.437465,-0.77535 0.195966,-0.22318 0.555704,-0.50753 0.799408,-0.63186 0.243703,-0.12436 0.674596,-0.22608 0.957534,-0.22608 0.311008,0 0.570731,0.0679 0.656793,0.1715 0.0783,0.0944 0.142364,0.35007 0.142364,0.56822 0,0.21814 -0.06458,0.52088 -0.143499,0.6728 -0.07892,0.1518 -0.328238,0.50466 -0.554034,0.7839 -0.225802,0.27924 -0.572607,0.60666 -0.770689,0.72743 -0.198082,0.12076 -0.478058,0.2198 -0.622173,0.22003 -0.1587,1.9e-4 -0.262025,-0.0704 -0.262025,-0.17917 z m 23.949873,-1.78019 c -0.105971,-0.11709 -0.192698,-0.33376 -0.192698,-0.48142 0,-0.14766 0.06067,-0.47111 0.13488,-0.7187 0.07594,-0.25338 0.208593,-0.45021 0.303567,-0.45021 0.105928,0 0.142479,0.0685 0.09811,0.18394 -0.03927,0.1012 -0.03922,0.31082 1.25e-4,0.46581 0.04986,0.19678 0.152308,0.28189 0.340789,0.28189 0.211462,0 0.33762,-0.1383 0.582671,-0.63931 0.172009,-0.35156 0.352609,-0.61472 0.401209,-0.58464 0.04904,0.0302 0.119935,0.21285 0.158624,0.40639 0.05062,0.25075 0.137329,0.35175 0.303491,0.35175 0.128258,0 0.306698,-0.11787 0.396682,-0.26204 0.08997,-0.14412 0.196958,-0.40616 0.237862,-0.5822 0.04134,-0.17621 0.13177,-0.32028 0.202014,-0.32028 0.08465,0 0.111524,0.25552 0.07971,0.75563 -0.03355,0.52292 -0.121702,0.85481 -0.287122,1.07726 -0.131438,0.17688 -0.375256,0.33788 -0.541942,0.3578 -0.166593,0.0198 -0.398749,-0.0148 -0.515902,-0.0777 -0.165321,-0.0885 -0.273507,-0.0514 -0.483823,0.16756 -0.177006,0.18398 -0.401531,0.28143 -0.648202,0.28143 -0.217653,0 -0.458875,-0.0902 -0.570044,-0.213 z m 1.399598,-3.16591 c -0.03115,-0.1592 -0.192321,-0.87061 -0.358478,-1.58097 -0.166227,-0.71028 -0.302203,-1.34716 -0.302203,-1.4152 0,-0.068 0.167051,-0.1819 0.371116,-0.25308 0.26256,-0.0915 0.407367,-0.0931 0.494924,-0.005 0.07443,0.0746 0.123829,0.71382 0.123829,1.60281 0,0.92113 -0.05193,1.56602 -0.136478,1.71004 -0.131259,0.22256 -0.138557,0.22033 -0.19271,-0.0582 z"
           id="path3420"
           style="fill:#ffffff;stroke-width:0.545455" />
      </g>
      <g
         id="g1045"
         transform="matrix(0.54545455,0,0,0.54545455,-225.2459,607.60654)">
        <path
           d="m 1030.4754,262.04918 a 75,75.000001 0 1 1 -149.99999,0 75,75.000001 0 1 1 149.99999,0 z"
           id="path3012-1"
           style="fill:#ffffff;stroke-width:0.987483" />
        <path
           d="m 1039.4754,251.61118 a 75,75.000001 0 1 1 -149.99999,0 75,75.000001 0 1 1 149.99999,0 z"
           id="path3012-7"
           style="fill:#000000;stroke-width:0.987483" />
        <path
           d="m 1046.4447,244.97274 -23.7413,5.73785 -6.7388,23.47685 -16.83975,-17.69165 -23.7009,5.90252 6.90151,-23.4295 -16.96217,-17.57433 23.7413,-5.73785 6.73873,-23.47685 16.83978,17.69165 23.7009,-5.90252 -6.9015,23.4295 z"
           id="path3133"
           style="fill:#ffffff" />
      </g>
    </g>
    <g
       id="g1297"
       transform="translate(-18)">
      <g
         id="g1040"
         transform="matrix(0.54545455,0,0,0.54545455,-45.245901,607.60654)">
        <g
           transform="matrix(1.2267356,0,0,1.2241081,324.85859,191.25359)"
           id="layer1-4">
          <path
             d="m 28.559944,357.55912 v -17.82568 l -2.5,-2.34863 -2.5,-2.34863 v -9.82568 -9.82569 h 3 3 v -39.88499 -39.88499 l -2.5,-1.63806 -2.5,-1.63807 v -11.35562 -11.35563 l 3,-1.24264 3,-1.24264 V 175.88593 144.6297 l -1.5,-1.24489 -1.5,-1.24489 v -7.19046 -7.19047 l 3,-2.87418 3,-2.87418 v -18.81291 c 0,-10.3471 -0.23111,-18.81291 -0.51357,-18.81291 -0.28246,0 -1.37092,0.53542 -2.4188,1.18983 l -1.90523,1.18984 -1.5812,-1.31228 c -2.01127,-1.6692 -2.01127,-3.46558 0,-5.13478 l 1.5812,-1.312284 1.90523,1.189834 c 2.7764,1.73389 2.93237,1.58442 2.93237,-2.810162 v -4 h -1.5 c -3.36199,0 -0.57419,-3.456135 5.10672,-6.330999 l 3.10672,-1.572177 0.55167,-6.083916 0.55167,-6.083917 2.67131,-3.502261 c 1.46922,-1.926244 4.37701,-4.579025 6.46176,-5.89507 4.75415,-3.001167 5.18656,-4.604248 5.94271,-22.03166 l 0.60744,-14 h 1.5 1.5 l 0.60744,14 c 0.75615,17.427412 1.18856,19.030493 5.94271,22.03166 2.08475,1.316045 4.99254,3.968826 6.46176,5.89507 l 2.67131,3.502261 0.55167,6.083917 0.55167,6.083916 3.10672,1.572177 c 5.68091,2.874864 8.46871,6.330999 5.10672,6.330999 h -1.5 v 4 c 0,4.394582 0.15597,4.544052 2.93237,2.810162 l 1.90523,-1.189834 1.5812,1.312284 c 2.01126,1.6692 2.01126,3.46558 0,5.13478 l -1.5812,1.31228 -1.90523,-1.18984 c -1.04788,-0.65441 -2.13634,-1.18983 -2.4188,-1.18983 -0.28246,0 -0.51357,8.46581 -0.51357,18.81291 v 18.81291 l 3,2.87418 3,2.87418 v 7.19047 7.19046 l -1.5,1.24489 -1.5,1.24489 v 31.25623 31.25624 l 3,1.24264 3,1.24264 v 11.35563 11.35562 l -2.5,1.63807 -2.5,1.63806 v 39.88499 39.88499 h 3 3 v 9.82569 9.82568 l -2.5,2.34863 -2.5,2.34863 v 17.82568 17.82569 h -30 -30 z m 20,-4.67431 v -16.5 h -8 -8 v 16.5 16.5 h 8 8 z m 19,0 v -16.5 h -9 -9 v 16.5 16.5 h 9 9 z m 17,0 v -16.5 h -8 -8 v 16.5 16.5 h 8 8 z m -38,-26 v -6.5 h -9 -9 v 6.5 6.5 h 9 9 z m 23,0 v -6.5 h -11 -11 v 6.5 6.5 h 11 11 z m 19,0 v -6.5 h -9 -9 v 6.5 6.5 h 9 9 z m -39,-55 v -47.5 h -3.4171 c -1.8794,0 -5.4794,0.88401 -8,1.96446 l -4.5829,1.96447 v 45.53553 45.53554 h 8 8 z m 3,37.5 v -10 l 2,-2 c 1.1,-1.1 2.9,-2 4,-2 1.1,0 2.9,0.9 4,2 l 2,2 v 10 c 0,6 0.4,10 1,10 0.62366,0 1,-5.83333 1,-15.5 v -15.5 h -8 -8 v 15.5 c 0,9.66667 0.37634,15.5 1,15.5 0.6,0 1,-4 1,-10 z m 31,-35.53554 v -45.53553 l -4.58291,-1.96447 c -2.52059,-1.08045 -6.12059,-1.96446 -8,-1.96446 h -3.41709 v 47.5 47.5 h 8 8 z m -17,8.53554 v -5 h -8 -8 v 5 5 h 8 8 z m -15,0 v -4 h 7 7 v 4 4 h -7 -7 z m 13,0 v -3 h -6 -6 v 3 3 h 6 6 z m 2,-32 v -26 h -8 -8 v 26 26 h 8 8 z m -9.79915,9.95001 -1.28024,-2.04999 1.26708,-5.45001 c 0.6969,-2.99751 1.51243,-5.45001 1.81231,-5.45001 0.29988,0 1.11541,2.4525 1.81231,5.45001 l 1.26708,5.45001 -1.28024,2.04999 c -0.70414,1.12749 -1.51375,2.04999 -1.79915,2.04999 -0.2854,0 -1.09501,-0.9225 -1.79915,-2.04999 z m -10.20085,-52.5844 v -6.2367 l -10.25,4.28195 -10.25,4.28195 -0.29734,5.56774 -0.29734,5.56774 10.54734,-3.61299 10.54734,-3.61299 z m 44.7999,7.98079 -0.2999,-5.65359 -10.25,-4.28195 -10.25,-4.28195 v 6.36459 6.36458 l 5.40245,1.57054 c 2.97135,0.86379 7.35885,2.43894 9.75,3.50032 2.39115,1.06138 4.70751,1.96157 5.14745,2.00042 0.43995,0.0388 0.66495,-2.47348 0.5,-5.58296 z m -21.7999,-8.3464 v -6 h -11 -11 v 6 6 h 11 11 z m -27.24598,-4.99491 6.24598,-2.49491 V 167.1399 134.38481 h -1.02852 c -0.56568,0 -3.71568,1.35648 -7,3.0144 l -5.97148,3.01439 v 32.56894 c 0,17.91291 0.33931,32.41894 0.75402,32.2356 0.41471,-0.18333 3.56471,-1.45604 7,-2.82824 z m 40.24598,-29.49069 V 140.4136 l -5.97148,-3.01439 c -3.28432,-1.65792 -6.43432,-3.0144 -7,-3.0144 h -1.02852 l 0.0111,32.75 0.0111,32.75 6.23893,2.64034 c 3.43141,1.45218 6.57643,2.68968 6.98893,2.75 0.4125,0.0603 0.75,-14.50886 0.75,-32.37594 z m -30,21.9856 v -5.5 l 2,-2 c 1.1,-1.1 2.9,-2 4,-2 1.1,0 2.9,0.9 4,2 l 2,2 v 5.5 5.5 h 1.5 1.5 v -11 -11 h -9 -9 v 11 11 h 1.5 1.5 z m 15,-22.5 v -5 h -9 -9 v 5 5 h 9 9 z m -17,0 v -4 h 8 8 v 4 4 h -8 -8 z m 15,0 v -3 h -7 -7 v 3 3 h 7 7 z m 2,-22 v -16 h -9 -9 v 16 16 h 9 9 z m -10.82744,7.9047 -1.30854,-2.09529 1.25704,-4.90471 c 0.69137,-2.69758 1.53689,-4.9047 1.87894,-4.9047 0.34204,0 1.18757,2.20712 1.87894,4.9047 l 1.25704,4.90471 -1.30854,2.09529 c -0.71969,1.15242 -1.54204,2.0953 -1.82744,2.0953 -0.2854,0 -1.10775,-0.94288 -1.82744,-2.0953 z m -12.17925,-33.67502 0.007,-5.27033 -3.75,2.0708 c -2.0625,1.13893 -5.19517,3.06058 -6.96148,4.27032 l -3.21148,2.19953 -0.0385,4.80861 -0.0385,4.80861 6.99331,-3.80861 6.99331,-3.80861 0.007,-5.27032 z m 41.96817,8.02032 -0.0385,-4.75 -3.21148,-2.19953 c -1.76631,-1.20974 -4.89898,-3.13139 -6.96148,-4.27032 l -3.75,-2.0708 0.009,5.27033 0.009,5.27032 6.74119,3.7211 c 3.70766,2.04661 6.85369,3.73411 6.99119,3.75 0.1375,0.0159 0.23267,-2.1086 0.21148,-4.7211 z m -14.96148,-8.75 v -5.5 h -13 -13 v 5.5 5.5 h 13 13 z m -32.84075,-8.61979 c -0.21189,-3.70412 0.12189,-6.51404 0.88268,-7.43074 l 1.22343,-1.47413 1.36732,1.13477 c 0.82178,0.68202 1.36732,3.12354 1.36732,6.11932 v 4.98455 l 1.58179,-0.60699 c 0.86998,-0.33385 1.76998,-0.60699 2,-0.60699 0.23001,0 0.41821,-11.025 0.41821,-24.5 V 68.384808 h -2.46607 c -1.35634,0 -4.05634,0.758346 -6,1.685212 l -3.53393,1.685213 v 4.814787 4.81479 h 4 4 v 6 c 0,3.3 -0.31608,6 -0.70239,6 -0.38632,0 -2.18632,-1.43828 -4,-3.19617 l -3.29761,-3.19617 v 18.20465 18.20464 l 1.75,-1.09007 1.75,-1.09006 z m 42.84075,-10.07638 V 86.99247 l -3.29761,3.19617 c -1.81368,1.75789 -3.61368,3.19617 -4,3.19617 -0.38631,0 -0.70239,-2.7 -0.70239,-6 v -6 h 4 4 v -4.81479 -4.814787 l -3.53393,-1.685213 c -1.94366,-0.926866 -4.64366,-1.685212 -6,-1.685212 h -2.46607 V 92.88481 c 0,13.475 0.1882,24.5 0.41821,24.5 0.23002,0 1.13002,0.27314 2,0.60699 l 1.58179,0.60699 v -4.98455 c 0,-2.99578 0.54554,-5.4373 1.36732,-6.11932 l 1.36732,-1.13477 1.1851,1.42796 c 0.70415,0.84845 1.06237,3.79571 0.88268,7.26233 l -0.30242,5.83437 1.5,1.2182 c 0.825,0.67 1.6125,1.2325 1.75,1.25 0.1375,0.0175 0.25,-8.15648 0.25,-18.16437 z m -28,8.91868 c 0,-3.97245 2.42801,-7.72251 5,-7.72251 2.57199,0 5,3.75006 5,7.72251 v 3.27749 h 2.5 2.5 v -24.5 -24.500002 h -10 -10 v 24.500002 24.5 h 2.5 2.5 z m -11,-26.72251 v -5 h -5.3 c -2.915,0 -5.80975,-0.50975 -6.43278,-1.13278 -1.46273,-1.462735 -4.26722,-0.38964 -4.26722,1.63278 0,2.15107 2.69515,2.99789 4.57525,1.43755 l 1.54978,-1.28621 4.67433,4.67433 c 2.57088,2.57088 4.79274,4.67433 4.93748,4.67433 0.14474,0 0.26316,-2.25 0.26316,-5 z m 43.43769,-3.05171 c 1.86927,1.55135 4.56231,0.69645 4.56231,-1.44829 0,-2.02242 -2.80449,-3.095515 -4.26722,-1.63278 -0.62303,0.62303 -3.51778,1.13278 -6.43278,1.13278 h -5.3 v 5.21241 5.2124 l 4.95043,-4.87599 4.95043,-4.87599 z M 58.559944,67.384808 h 17.74809 l 4.87596,2.700285 c 2.77701,1.537899 4.34034,2.03486 3.6317,1.154468 -0.68433,-0.850199 -3.04683,-2.35867 -5.25,-3.352159 l -4.00575,-1.806343 v -3.880244 c 0,-7.327933 -4.92784,-15.300836 -11.01559,-17.822466 l -2.78064,-1.151775 -0.73232,-3.170883 c -0.40278,-1.743986 -0.92175,-9.583383 -1.15327,-17.420883 -0.23151,-7.8375 -0.8247,-14.25 -1.31818,-14.25 -0.49348,0 -1.08667,6.4125 -1.31818,14.25 -0.23152,7.8375 -0.75049,15.676897 -1.15327,17.420883 l -0.73233,3.170883 -2.78063,1.151775 c -6.08775,2.52163 -11.01559,10.494533 -11.01559,17.822466 v 3.880244 l -4.00575,1.806343 c -2.20317,0.993489 -4.56567,2.50196 -5.25,3.352159 -0.70864,0.880392 0.85469,0.383431 3.6317,-1.154468 l 4.87596,-2.700285 z"
             id="path3026"
             style="fill:#000000;fill-opacity:1" />
          <path
             d="m -85.398726,107.47488 c -0.527814,0.32327 -0.451462,1.1055 -0.614523,1.63915 -0.652689,4.61314 -0.706052,9.28693 -0.933818,13.93492 -0.238185,5.16891 -0.396343,10.36171 -0.988664,15.49882 -0.243301,1.24169 -0.461276,2.5046 -0.842571,3.70793 -1.571652,0.87538 -3.418387,1.34154 -4.905971,2.42412 -4.459152,3.00807 -7.382727,7.98666 -8.523577,13.19555 -0.48773,2.41003 -0.27109,4.8938 -0.37994,7.33729 -2.98044,1.40602 -6.16589,2.5639 -8.70723,4.70941 -0.25826,0.29271 -0.98593,0.75789 -0.53316,1.1669 0.79097,0.20474 1.55552,-0.36833 2.2706,-0.63193 2.26007,-1.10508 4.41898,-2.46949 6.66312,-3.56544 11.73094,0 23.461877,0 35.192815,0 2.520805,1.32709 4.94328,2.8718 7.554747,3.99778 0.41514,0.12009 1.140894,0.53277 1.41925,-0.002 -0.01987,-0.60311 -0.71838,-0.91749 -1.097232,-1.30632 -2.488104,-1.92265 -5.449342,-3.0703 -8.288757,-4.36864 -0.102602,-2.29605 0.07988,-4.61884 -0.278792,-6.89545 -0.939394,-4.86303 -3.476159,-9.47251 -7.285758,-12.65404 -1.800911,-1.55826 -4.03947,-2.40757 -6.217056,-3.30833 -0.635776,-2.27812 -1.046847,-4.60538 -1.170552,-6.97189 -0.698377,-8.03761 -0.623765,-16.121 -1.343435,-24.15614 -0.188221,-1.20163 -0.176648,-2.48583 -0.661141,-3.60633 -0.06895,-0.10913 -0.199562,-0.17555 -0.328355,-0.14559 z"
             transform="translate(143.9048,-99.28871)"
             id="path4524"
             style="fill:#ffffff;fill-opacity:1;stroke:#ffffff;stroke-width:0.816046;stroke-opacity:1" />
          <path
             d="m -98.343957,168.35061 c -3.361223,0.0113 -6.356823,1.7391 -9.327133,3.09459 -0.0133,2.84059 -0.0285,5.68117 -0.0465,8.52173 2.45646,0 4.91293,0 7.36939,0 0.632617,0.24359 0.776676,0.87028 0.672481,1.48065 -0.07259,3.19537 0.01015,6.39986 -0.238804,9.58739 -0.177897,0.75493 -0.08587,1.8499 -0.916917,2.22723 -0.88501,0.14904 -1.54925,-0.66995 -2.21057,-1.12582 -1.62276,-1.34167 -3.12807,-2.83788 -4.63841,-4.29513 -0.0517,11.21867 -0.0544,22.43772 0.003,33.65636 0.71503,-0.44235 1.43509,-0.87738 2.14359,-1.3289 -0.16473,-3.60998 -0.50738,-7.23774 -0.17966,-10.845 0.14114,-1.40175 0.82891,-2.6755 1.78736,-3.68625 0.35032,-0.64688 1.31037,-0.69986 1.73966,-0.0973 0.96604,0.66725 1.7308,1.62038 1.97447,2.78921 0.648266,2.3773 0.407841,4.8855 0.514881,7.32284 0.122829,0.39657 -0.297076,1.57152 0.406261,1.13258 0.637161,-0.24684 1.33746,-0.41639 1.950412,-0.67713 0.27456,-4.63236 0.198726,-9.26987 0.264564,-13.9086 0.07204,-11.28473 0.07561,-22.56974 0.110256,-33.85462 -0.461448,0.005 -0.920819,-0.002 -1.378471,0.006 z"
             transform="translate(143.9048,-99.28871)"
             id="path4532"
             style="fill:#ffffff;fill-opacity:1;stroke:#ffffff;stroke-width:0.816046;stroke-opacity:1" />
        </g>
        <path
           d="m 360.49997,290.49254 c -1.37788,-0.0473 -2.70201,1.19996 -2.41683,2.61262 0.12873,1.37439 1.70186,1.918 2.89564,1.69119 1.56997,-0.21707 2.51367,-1.69052 3.85323,-2.37371 0.85893,0.0167 1.26641,0.98824 1.90762,1.43333 3.19828,3.12466 6.30169,6.36836 9.59131,9.38874 0.12047,-3.54407 0.1007,-7.09083 0.14059,-10.63628 -4.09183,-0.10901 -8.27017,0.33689 -12.28132,-0.67245 -1.14606,-0.17921 -1.99443,-1.03719 -3.04424,-1.42448 -0.21376,-0.0267 -0.43091,-0.0259 -0.646,-0.019 z"
           id="path4592"
           style="fill:#ffffff;fill-opacity:1;stroke:#ffffff;stroke-width:1;stroke-opacity:1" />
        <path
           d="m 381.2254,275.50316 c -4.38168,-0.006 -8.34645,2.12382 -12.22475,3.95115 0.0204,3.6099 0.0396,7.21979 0.057,10.82968 3.07803,0.018 6.15607,0.0388 9.23409,0.0608 0.92846,0.42828 0.47891,1.49948 0.56586,2.29398 -0.0882,3.66025 0.0291,7.33694 -0.29225,10.98525 -0.1959,0.80291 -0.12182,1.92355 -0.93861,2.38511 -0.99822,0.14971 -1.73275,-0.80813 -2.49283,-1.30063 -2.14377,-1.77225 -4.12303,-3.74352 -6.13328,-5.6651 0.0126,14.03761 -0.0252,28.1258 0.019,42.13184 1.13905,-0.46551 2.1763,-1.19179 3.16925,-1.91114 -0.23048,-4.4048 -0.62659,-8.83682 -0.23562,-13.24132 0.14462,-1.92526 1.25159,-3.61502 2.5968,-4.92414 0.79139,-0.37524 1.43537,0.5738 2.01118,0.97526 1.5108,1.20304 1.8532,3.24524 2.0953,5.04476 0.21722,2.8178 0.11813,5.65438 0.23561,8.47868 1.09121,-0.40079 2.18959,-0.80456 3.31364,-1.11861 0.33434,-4.66497 0.24154,-9.3516 0.32299,-14.02625 0.10589,-14.9841 0.10667,-29.96867 0.15961,-44.953 -0.48767,10e-4 -0.97539,-0.003 -1.46302,0.003 z"
           id="path4594"
           style="fill:#ffffff;fill-opacity:1;stroke:#ffffff;stroke-width:1;stroke-opacity:1" />
        <path
           d="m 396.71435,275.52971 c -3.9077,0.0101 -7.81541,0.0202 -11.72312,0.0304 -0.009,19.59527 -0.0739,39.19063 -0.0152,58.78587 1.6516,0.0747 3.30619,0.0287 4.95904,0.0417 0.0906,-3.11682 -0.10014,-6.43353 1.47822,-9.25223 0.94002,-1.87703 2.50559,-3.73473 4.67025,-4.13317 2.40318,-0.35263 4.42193,1.53124 5.5265,3.46778 1.24476,2.03383 1.79568,4.4174 1.74846,6.78925 0.0277,1.0427 0.0479,2.08556 0.0705,3.12837 1.66949,0 3.33899,0 5.00846,0 0,-19.62941 0,-39.25883 0,-58.88824 -3.90771,0.0101 -7.81542,0.0203 -11.72312,0.0304 z"
           id="path4596"
           style="fill:#ffffff;fill-opacity:1;stroke:#ffffff;stroke-width:1;stroke-opacity:1" />
        <path
           d="m 432.48036,290.50392 c -1.1249,0.0841 -1.8517,1.18931 -2.97924,1.34992 -3.3462,0.99329 -6.89544,0.602 -10.34361,0.74424 -0.74865,0.008 -1.49729,0.0144 -2.24592,0.0217 0,3.63769 0,7.27539 0,10.9131 3.70649,-3.66788 7.42013,-7.32856 11.13031,-10.99273 0.94579,-0.32832 1.48466,0.65762 2.18503,1.10345 0.90707,0.8511 2.11247,1.39509 3.36684,1.1224 1.4981,-0.12341 2.29343,-2.06811 1.37942,-3.22312 -0.55458,-0.77621 -1.56342,-1.11736 -2.49283,-1.03898 z"
           id="path4598"
           style="fill:#ffffff;fill-opacity:1;stroke:#ffffff;stroke-width:1;stroke-opacity:1" />
        <path
           d="m 410.78592,298.57309 c 0.0443,11.37057 -0.0327,22.7448 0.29024,34.11186 0.0873,0.58951 -0.0683,1.37078 0.24696,1.82056 1.06396,0.35007 2.12557,0.70292 3.17544,1.09172 0.12893,-3.8652 -0.29243,-7.86315 0.93481,-11.59563 0.49986,-1.28033 1.61903,-2.21383 2.72082,-2.96527 0.91334,-0.12582 1.37364,0.92299 1.90763,1.47883 1.63493,2.0564 1.32183,4.84664 1.43884,7.3032 0.0665,3.05858 -0.19104,6.10988 -0.26842,9.16504 0.93852,0.78212 1.89512,1.54527 2.87662,2.27136 0.3144,-14.05645 0.2297,-28.11826 0.2584,-42.17734 -2.45752,2.28837 -4.79427,4.73706 -7.52788,6.69649 -0.54957,0.52213 -1.59707,0.34154 -1.70242,-0.48158 -0.71458,-3.53066 -0.55397,-7.16885 -0.6194,-10.75382 0.0526,-1.22464 -0.10498,-2.52554 0.0781,-3.70294 0.45762,-0.86886 1.55458,-0.36005 2.33498,-0.49469 2.47889,0 4.95779,0 7.43667,0 0,-3.63266 0,-7.2653 0,-10.89793 -3.36147,-1.54194 -6.72153,-3.3964 -10.43871,-3.84121 -1.05168,-0.0482 -2.1053,-0.0296 -3.15784,-0.0379 0.005,7.66976 0.0101,15.33952 0.0152,23.00927 z"
           id="path4600"
           style="fill:#ffffff;fill-opacity:1;stroke:#ffffff;stroke-width:1;stroke-opacity:1" />
        <path
           d="m 414.51376,338.5132 c -0.0339,3.81463 0.0157,7.62933 0.0266,11.44397 5.24531,2.87865 10.45988,5.81755 15.77017,8.57349 0.13593,-3.4749 0.0455,-6.95465 0.0759,-10.43154 -5.09153,-3.55282 -10.40255,-6.8117 -15.86896,-9.75277 l -0.002,0.12132 -10e-4,0.0456 z"
           id="path4602"
           style="fill:#ffffff;fill-opacity:1;stroke:#ffffff;stroke-width:1;stroke-opacity:1" />
        <path
           d="m 381.2824,342.92319 c 0,2.04889 0,4.09778 0,6.14667 10.2677,0 20.53541,0 30.80314,0 0,-4.09778 0,-8.19557 0,-12.29335 -10.26773,0 -20.53544,0 -30.80314,0 0,2.0489 0,4.09778 0,6.14668 z"
           id="path4604"
           style="fill:#ffffff;fill-opacity:1;stroke:#ffffff;stroke-width:1;stroke-opacity:1" />
        <path
           d="m 378.62616,338.48666 c -5.37605,2.88841 -10.55004,6.07259 -15.55736,9.56318 -0.17734,3.52226 -0.14137,7.05022 -0.14821,10.57561 5.30618,-2.8895 10.61762,-5.77357 15.92597,-8.66071 0.21766,-3.87788 0.15848,-7.76685 0.1025,-11.64871 -0.10768,0.0569 -0.21533,0.11371 -0.323,0.17063 z"
           id="path4606"
           style="fill:#ffffff;fill-opacity:1;stroke:#ffffff;stroke-width:1;stroke-opacity:1" />
        <path
           d="m 383.50922,356.31999 c -2.2906,0.38129 -4.31338,1.64178 -6.41453,2.56249 -3.11125,1.51496 -6.20784,3.06473 -9.31004,4.60041 0.0215,23.50479 -0.0864,47.01258 0.36814,70.51416 0.0493,1.41874 0.0571,2.85239 0.18287,4.25837 2.96071,-0.0303 5.94476,0.0602 8.89099,-0.045 2.19581,-0.87665 4.39135,-1.75392 6.58657,-2.63202 0.0203,-26.4207 0.0404,-52.84142 0.0608,-79.26213 -0.12156,0.003 -0.24345,-0.005 -0.36481,0.003 z"
           id="path4608"
           style="fill:#ffffff;fill-opacity:1;stroke:#ffffff;stroke-width:1;stroke-opacity:1" />
        <path
           d="m 386.26805,375.32121 c 0,6.33626 0,12.67254 0,19.0088 6.98447,0 13.96896,0 20.95343,0 0,-12.67254 0,-25.34508 0,-38.01762 -6.98447,0 -13.96896,0 -20.95343,0 0,6.33627 0,12.67254 0,19.00882 z m 10.53751,-5.36933 c 0.89332,0.32157 1.0475,1.44695 1.42881,2.20308 1.22539,3.29544 1.92901,6.75391 2.85003,10.14713 -0.13713,0.96945 -0.96941,1.70259 -1.4001,2.57069 -0.81878,1.09309 -1.41197,2.50316 -2.67354,3.1513 -0.99687,0.33273 -1.60904,-0.82893 -2.14357,-1.46249 -0.90843,-1.29913 -1.86087,-2.61742 -2.54548,-4.03373 0.22624,-1.57417 0.78845,-3.14079 1.14362,-4.71158 0.75435,-2.55536 1.18808,-5.27366 2.63342,-7.55727 0.1663,-0.21545 0.42976,-0.3535 0.70681,-0.30713 z"
           id="path4610"
           style="fill:#ffffff;fill-opacity:1;stroke:#ffffff;stroke-width:1;stroke-opacity:1" />
        <path
           d="m 409.52429,395.82402 c 0.0101,13.24638 0.0203,26.49276 0.0304,39.73914 2.15925,0.87852 4.29241,1.88476 6.46768,2.68476 3.01976,0.002 6.03952,0.005 9.05929,0.008 0.48966,-13.31974 0.37032,-26.6519 0.45001,-39.97802 0.0318,-11.58678 0.0515,-23.17359 0.0782,-34.76039 -4.81749,-2.4033 -9.55752,-5.00596 -14.58456,-6.94677 -0.49131,-0.17814 -1.01706,-0.23421 -1.53143,-0.25025 0.0101,13.168 0.0203,26.33602 0.0304,39.50403 z"
           id="path4612"
           style="fill:#ffffff;fill-opacity:1;stroke:#ffffff;stroke-width:1;stroke-opacity:1" />
        <path
           d="m 388.70006,402.25887 c 0,1.03774 0,2.07544 0,3.11316 5.32261,0 10.6452,0 15.96778,0 0,-2.07542 0,-4.15087 0,-6.22632 -5.32258,0 -10.64517,0 -15.96778,0 0,1.03774 0,2.07545 0,3.11316 z"
           id="path4614"
           style="fill:#ffffff;fill-opacity:1;stroke:#ffffff;stroke-width:1;stroke-opacity:1" />
        <path
           d="m 386.26805,402.25887 c 0,1.84666 0,3.69332 0,5.53998 6.98447,0 13.96896,0 20.95343,0 0,-3.69332 0,-7.38662 0,-11.07995 -6.98447,0 -13.96896,0 -20.95343,0 0,1.84668 0,3.69333 0,5.53997 z m 10.41591,-5.50204 c 3.26297,0 6.52594,0 9.78891,0 0.92819,0.42285 0.49401,1.49281 0.58901,2.28652 0,2.70995 0,5.41989 0,8.12985 -0.42377,0.92619 -1.49603,0.49294 -2.29143,0.58773 -5.95846,0 -11.91692,0 -17.8754,0 -0.92818,-0.42285 -0.49401,-1.49282 -0.589,-2.28652 0,-2.70995 0,-5.41989 0,-8.12984 0.42375,-0.9262 1.49601,-0.49296 2.29143,-0.58774 2.6955,0 5.39098,0 8.08648,0 z"
           id="path4616"
           style="fill:#ffffff;fill-opacity:1;stroke:#ffffff;stroke-width:1;stroke-opacity:1" />
        <path
           d="m 386.26805,423.06884 c 0,4.2937 0,8.5874 0,12.8811 0.82335,0 1.64669,0 2.47002,0 0.0279,-4.31534 -0.0555,-8.65025 0.0416,-12.95342 0.51303,-0.90186 1.47979,-1.51136 2.17508,-2.29349 1.59327,-1.53625 3.58018,-2.97979 5.87746,-3.04903 3.0084,0.21269 5.13058,2.63938 7.16323,4.59008 1.02257,0.64905 0.51736,1.93851 0.63446,2.92926 0,3.59219 0,7.18438 0,10.7766 0.86388,0 1.72775,0 2.59162,0 0,-8.5874 0,-17.1748 0,-25.76219 -6.98447,0 -13.96895,0 -20.95343,0 0,4.2937 0,8.58739 0,12.88109 z"
           id="path4618"
           style="fill:#ffffff;fill-opacity:1;stroke:#ffffff;stroke-width:1;stroke-opacity:1" />
        <path
           d="m 411.92593,445.74063 c 0,2.44452 0,4.88902 0,7.33354 6.09076,1.73177 12.16828,3.53995 18.00553,6.01085 2.06042,0.80446 4.06586,1.7961 6.17794,2.42993 0.4264,-1.88093 0.22352,-3.85946 0.24547,-5.78252 -0.0615,-2.30961 -0.18961,-4.62747 -0.36708,-6.92415 -7.99235,-3.38354 -16.02523,-6.73242 -24.06186,-10.03338 0,2.3219 0,4.64381 0,6.96573 z"
           id="path4620"
           style="fill:#ffffff;fill-opacity:1;stroke:#ffffff;stroke-width:1;stroke-opacity:1" />
        <path
           d="m 383.71441,445.09222 c 0,2.25111 0,4.50224 0,6.75338 8.64637,0 17.29273,0 25.9391,0 0,-4.50227 0,-9.00452 0,-13.50676 -8.64637,0 -17.29273,0 -25.9391,0 0,2.25112 0,4.50224 0,6.75338 z"
           id="path4622"
           style="fill:#ffffff;fill-opacity:1;stroke:#ffffff;stroke-width:1;stroke-opacity:1" />
        <path
           d="m 381.062,438.94933 c -7.91665,3.23503 -15.79534,6.56268 -23.69327,9.84378 -0.22088,4.14411 -0.48127,8.28676 -0.64222,12.43364 8.21984,-2.79738 16.43828,-5.60912 24.64328,-8.43698 0.10138,-4.65772 0.0974,-9.31882 0.0229,-13.97695 -0.11016,0.0456 -0.22041,0.0909 -0.3306,0.13651 z"
           id="path4624"
           style="fill:#ffffff;fill-opacity:1;stroke:#ffffff;stroke-width:1;stroke-opacity:1" />
        <path
           d="m 382.62002,466.52405 c -1.96527,-0.0341 -3.90352,0.14872 -5.78034,0.71389 -3.55916,0.85168 -6.84434,2.45495 -10.21024,3.85534 -0.0203,27.88313 -0.0404,55.76626 -0.0608,83.64938 6.1738,0 12.34761,0 18.52139,0 0,-29.42263 0,-58.84528 0,-88.26791 -0.82333,0.0164 -1.64668,0.0329 -2.47002,0.0494 z"
           id="path4626"
           style="fill:#ffffff;fill-opacity:1;stroke:#ffffff;stroke-width:1;stroke-opacity:1" />
        <path
           d="m 387.48407,497.75415 c 0,10.42142 0,20.84284 0,31.26424 6.15353,-0.0203 12.30706,-0.0404 18.46058,-0.0608 0.0203,-20.82261 0.0404,-41.64521 0.0608,-62.46781 -6.17379,0 -12.3476,0 -18.5214,0 0,10.42141 0,20.84284 0,31.26424 z m 9.21509,-4.16728 c 0.9102,0.17051 1.01721,1.33892 1.35361,2.03747 1.24514,3.81197 2.04809,7.75675 2.92523,11.66645 -0.20745,1.08327 -1.06455,1.93889 -1.59554,2.88768 -0.75881,0.98821 -1.36249,2.33749 -2.61111,2.77743 -1.01548,-0.0565 -1.53283,-1.14886 -2.12652,-1.83827 -0.79342,-1.17873 -1.67891,-2.34504 -2.24606,-3.63623 0.23928,-1.73814 0.78029,-3.47155 1.14315,-5.20588 0.72518,-2.72862 1.2357,-5.53081 2.38204,-8.11608 0.1494,-0.2965 0.41478,-0.58182 0.7752,-0.57257 z"
           id="path4628"
           style="fill:#ffffff;fill-opacity:1;stroke:#ffffff;stroke-width:1;stroke-opacity:1" />
        <path
           d="m 408.27789,510.60491 c 0,14.71258 0,29.42518 0,44.13775 6.1738,0 12.34761,0 18.5214,0 -0.003,-27.88565 -0.005,-55.77131 -0.003,-83.65695 -4.46448,-1.85141 -8.89372,-4.02134 -13.74836,-4.49296 -1.58817,-0.0833 -3.17959,-0.0766 -4.76924,-0.1142 0,14.70878 0,29.41757 0,44.12636 z"
           id="path4630"
           style="fill:#ffffff;fill-opacity:1;stroke:#ffffff;stroke-width:1;stroke-opacity:1" />
        <path
           d="m 389.91608,536.94726 c 0,1.03771 0,2.07544 0,3.11316 4.51192,0 9.02385,0 13.53575,0 0,-2.07545 0,-4.15088 0,-6.22631 -4.5119,0 -9.02383,0 -13.53575,0 0,1.03771 0,2.07543 0,3.11315 z"
           id="path4632"
           style="fill:#ffffff;fill-opacity:1;stroke:#ffffff;stroke-width:1;stroke-opacity:1" />
        <path
           d="m 387.48407,536.94726 c 0,1.84666 0,3.69331 0,5.53998 6.15479,-0.0201 12.30959,-0.0405 18.46439,-0.0608 0.017,-3.6731 0.0359,-7.3462 0.057,-11.01926 -6.1738,0 -12.34761,0 -18.5214,0 0,1.84665 0,3.6933 0,5.53996 z m 9.19989,-5.50205 c 2.85764,0 5.71526,0 8.57289,0 0.92819,0.42287 0.49402,1.49282 0.58901,2.28652 0,2.6695 0,5.33899 0,8.00849 -0.42377,0.92621 -1.49602,0.49296 -2.29143,0.58774 -5.14778,0 -10.29557,0 -15.44338,0 -0.92818,-0.42285 -0.49401,-1.4928 -0.58899,-2.2865 0,-2.6695 0,-5.339 0,-8.0085 0.42376,-0.92621 1.49602,-0.49297 2.29142,-0.58775 2.29017,0 4.58032,0 6.87048,0 z"
           id="path4634"
           style="fill:#ffffff;fill-opacity:1;stroke:#ffffff;stroke-width:1;stroke-opacity:1" />
        <path
           d="m 387.48407,557.4842 c 0.0543,7.24359 -0.0769,14.51134 0.44224,21.73452 0.0565,0.54839 0.11739,1.09682 0.21896,1.63878 0.62054,-3.65612 0.49179,-7.43049 0.5776,-11.14441 0.0553,-4.00197 -0.0452,-8.02322 0.0568,-12.01301 0.51613,-0.90516 1.46789,-1.53231 2.16247,-2.32038 1.59863,-1.54398 3.59234,-3.06004 5.91666,-3.05249 2.6779,0.26963 4.81317,2.14947 6.62288,3.98589 0.60235,0.55492 1.37383,1.13536 1.1334,2.06598 0.0907,6.57268 -0.0551,13.16722 0.2884,19.72549 0.0561,0.85255 0.167,1.78025 0.33822,2.58608 0.68413,-4.90622 0.52986,-9.88756 0.67022,-14.83378 0.10092,-6.99311 0.0907,-13.98709 0.0936,-20.98075 -6.1738,0 -12.34761,0 -18.52141,0 0,4.2027 0,8.4054 0,12.60808 z"
           id="path4636"
           style="fill:#ffffff;fill-opacity:1;stroke:#ffffff;stroke-width:1;stroke-opacity:1" />
        <path
           d="m 422.43303,583.97823 c -3.48336,0.0101 -6.96674,0.0201 -10.4501,0.0304 -0.0177,4.92694 -0.0355,9.85387 -0.0533,14.78083 6.9832,0 13.96642,0 20.94962,0 0,-4.94717 0,-9.89434 0,-14.8415 -3.4821,0.0101 -6.96421,0.0202 -10.44631,0.0304 z"
           id="path4638"
           style="fill:#ffffff;fill-opacity:1;stroke:#ffffff;stroke-width:1;stroke-opacity:1" />
        <path
           d="m 383.74481,591.40278 c -0.009,2.4622 -0.0178,4.92441 -0.0266,7.38663 8.64384,0 17.28766,0 25.93148,0 -0.0178,-4.92696 -0.0355,-9.85389 -0.0533,-14.78085 -8.60836,0 -17.21672,0 -25.82508,0 -0.009,2.46474 -0.0178,4.92948 -0.0266,7.39422 z"
           id="path4640"
           style="fill:#ffffff;fill-opacity:1;stroke:#ffffff;stroke-width:1;stroke-opacity:1" />
        <path
           d="m 360.48855,591.36865 c 0,2.47359 0,4.94717 0,7.42076 6.98323,0 13.96644,0 20.94964,0 -0.0178,-4.92696 -0.0355,-9.85389 -0.0533,-14.78085 -6.96549,-0.0201 -13.93096,-0.0404 -20.89644,-0.0608 0,2.47357 0,4.94715 0,7.42075 z"
           id="path4642"
           style="fill:#ffffff;fill-opacity:1;stroke:#ffffff;stroke-width:1;stroke-opacity:1" />
        <path
           d="m 365.35262,623.22063 c 0,6.53847 0,13.07697 0,19.61547 6.17381,0 12.3476,0 18.5214,0 0,-13.077 0,-26.15397 0,-39.23099 -6.1738,0 -12.34759,0 -18.5214,0 0,6.5385 0,13.07702 0,19.61552 z"
           id="path4644"
           style="fill:#ffffff;fill-opacity:1;stroke:#ffffff;stroke-width:1;stroke-opacity:1" />
        <path
           d="m 386.26805,623.22063 c 0,6.53847 0,13.07697 0,19.61547 6.98447,0 13.96896,0 20.95343,0 0,-13.077 0,-26.15397 0,-39.23099 -6.98447,0 -13.96896,0 -20.95343,0 0,6.5385 0,13.07702 0,19.61552 z"
           id="path4646"
           style="fill:#ffffff;fill-opacity:1;stroke:#ffffff;stroke-width:1;stroke-opacity:1" />
        <path
           d="m 409.4939,623.22063 c 0,6.53847 0,13.07697 0,19.61547 6.17379,0 12.34761,0 18.52141,0 0,-13.077 0,-26.15397 0,-39.23099 -6.1738,0 -12.34762,0 -18.52141,0 0,6.5385 0,13.07702 0,19.61552 z"
           id="path4648"
           style="fill:#ffffff;fill-opacity:1;stroke:#ffffff;stroke-width:1;stroke-opacity:1" />
        <path
           d="m 366.54007,551.728 c 0.0498,9.98234 0.0621,19.96478 0.0564,29.94722 6.15691,-0.0143 12.3138,-0.0287 18.4707,-0.0429 0.0143,-13.46538 0.0287,-26.93079 0.043,-40.39617 -6.20884,0 -12.41769,0 -18.62653,0 0.0188,3.49727 0.0376,6.99456 0.0564,10.49185 z"
           id="path4652"
           style="fill:#ffffff;fill-opacity:1;stroke:#ffffff;stroke-width:1;stroke-opacity:1" />
        <path
           d="m 408.24286,551.65025 c 0.0504,10.00824 0.062,20.01663 0.0564,30.02497 6.15689,-0.0143 12.31379,-0.0287 18.47067,-0.0429 0.0143,-13.46538 0.0287,-26.93079 0.043,-40.39617 -6.20884,0 -12.41768,0 -18.62653,0 0.0188,3.47137 0.0376,6.94271 0.0564,10.41408 z"
           id="path4654"
           style="fill:#ffffff;fill-opacity:1;stroke:#ffffff;stroke-width:1;stroke-opacity:1" />
        <path
           d="m 367.64159,397.28201 c 0.0994,12.7323 0.16,25.47897 0.46874,38.20049 0.0886,2.09974 0.16757,4.20151 0.35485,6.29519 5.17481,-1.94227 10.30176,-4.05178 15.44666,-6.08929 -8.4e-4,-13.02555 5.6e-4,-26.0511 0.004,-39.07665 -5.42634,0 -10.85268,0 -16.27902,0 10e-4,0.22342 0.003,0.44684 0.004,0.67026 z"
           id="path4656"
           style="fill:#ffffff;fill-opacity:1;stroke:#ffffff;stroke-width:1;stroke-opacity:1" />
        <path
           d="m 409.44747,416.04932 c 0.0117,6.53321 0.0234,13.06643 0.035,19.59965 5.1206,2.13872 10.23077,4.4213 15.42476,6.29519 0.55104,-6.89 0.52223,-13.83159 0.64828,-20.75173 0.0913,-8.1933 0.12344,-16.38707 0.17531,-24.58068 -5.43948,0 -10.87896,0 -16.31844,0 0.0117,6.47919 0.0234,12.95838 0.0351,19.43757 z"
           id="path4658"
           style="fill:#ffffff;fill-opacity:1;stroke:#ffffff;stroke-width:1;stroke-opacity:1" />
      </g>
      <g
         id="g1106"
         transform="matrix(0.54545455,0,0,0.54545455,-45.245901,607.60654)">
        <path
           d="m 396.47561,288.04918 c -5.2467,0 -9.5,4.25329 -9.5,9.5 0,5.24671 4.2533,9.5 9.5,9.5 5.2467,0 9.5,-4.25329 9.5,-9.5 0,-5.24671 -4.2533,-9.5 -9.5,-9.5 z m 0,1 c 4.6944,0 8.5,3.80558 8.5,8.5 0,4.69442 -3.8056,8.5 -8.5,8.5 -4.6945,0 -8.5,-3.80558 -8.5,-8.5 0,-4.69442 3.8055,-8.5 8.5,-8.5 z m 0,1 c -4.1422,0 -7.5,3.35786 -7.5,7.5 0,4.14214 3.3578,7.5 7.5,7.5 4.1421,0 7.5,-3.35786 7.5,-7.5 0,-4.14214 -3.3579,-7.5 -7.5,-7.5 z m 0,1 c 3.5898,0 6.5,2.91015 6.5,6.5 0,3.58985 -2.9102,6.5 -6.5,6.5 -3.5899,0 -6.5,-2.91015 -6.5,-6.5 0,-3.58985 2.9101,-6.5 6.5,-6.5 z"
           id="path3305"
           style="fill:#000000" />
        <path
           d="m 397.1515,297.53636 a 0.676005,0.676005 0 1 1 -1.35201,0 0.676005,0.676005 0 1 1 1.35201,0 z"
           id="path3337"
           style="fill:#000000" />
        <path
           d="m 393.51561,299.76394 2.9846,-2.18515 4.7433,1.38571"
           id="path3597"
           style="fill:none;stroke:#000000;stroke-width:1px;stroke-linecap:butt;stroke-linejoin:miter;stroke-opacity:1" />
      </g>
    </g>
  </g>
</svg>
