<?xml version="1.0" encoding="UTF-8" standalone="no"?>
<svg
   xmlns:dc="http://purl.org/dc/elements/1.1/"
   xmlns:cc="http://creativecommons.org/ns#"
   xmlns:rdf="http://www.w3.org/1999/02/22-rdf-syntax-ns#"
   xmlns:svg="http://www.w3.org/2000/svg"
   xmlns="http://www.w3.org/2000/svg"
   xmlns:sodipodi="http://sodipodi.sourceforge.net/DTD/sodipodi-0.dtd"
   xmlns:inkscape="http://www.inkscape.org/namespaces/inkscape"
   width="400mm"
   height="300mm"
   viewBox="0 0 400 300"
   version="1.1"
   id="svg8"
   inkscape:version="1.0.2-2 (e86c870879, 2021-01-15)"
   sodipodi:docname="inayatiyya.svg">
  <defs
     id="defs2" />
  <sodipodi:namedview
     id="base"
     pagecolor="#ffffff"
     bordercolor="#666666"
     borderopacity="1.0"
     inkscape:pageopacity="0.0"
     inkscape:pageshadow="2"
     inkscape:zoom="0.35"
     inkscape:cx="598.50562"
     inkscape:cy="560"
     inkscape:document-units="mm"
     inkscape:current-layer="layer1"
     inkscape:document-rotation="0"
     showgrid="false"
     units="mm"
     inkscape:window-width="1620"
     inkscape:window-height="1228"
     inkscape:window-x="2027"
     inkscape:window-y="551"
     inkscape:window-maximized="0" />
  <metadata
     id="metadata5">
    <rdf:RDF>
      <cc:Work
         rdf:about="">
        <dc:format>image/svg+xml</dc:format>
        <dc:type
           rdf:resource="http://purl.org/dc/dcmitype/StillImage" />
        <dc:title></dc:title>
      </cc:Work>
    </rdf:RDF>
  </metadata>
  <g
     inkscape:label="Layer 1"
     inkscape:groupmode="layer"
     id="layer1">
    <rect
       style="fill:#009530;stroke-width:2.09785;stroke-linecap:round;paint-order:stroke markers fill;fill-opacity:1"
       id="rect849"
       width="400"
       height="300"
       x="-3.5527137e-15"
       y="0" />
    <path
       style="fill:#ffffff;stroke-width:0.367153;fill-opacity:1"
       d="m 194.70261,197.92412 c -10.21495,-7.62262 -13.82667,-10.75329 -17.8887,-15.50601 -6.12481,-7.16628 -9.7301,-16.10242 -9.72062,-24.0938 0.007,-5.91248 1.5904,-10.32864 4.93439,-13.76235 3.58079,-3.67685 7.024,-5.10337 12.25105,-5.07557 4.9231,0.0262 9.26413,1.76305 14.35047,5.7416 l 1.52668,1.19415 0.80971,-0.77633 c 1.46944,-1.4089 5.80689,-4.11152 7.88858,-4.91532 4.62042,-1.78401 10.51856,-1.68612 14.45526,0.23995 7.27951,3.56153 10.99478,12.16092 9.40547,21.76995 -1.68537,10.1897 -6.6068,18.24697 -16.14483,26.432 -3.69239,3.16861 -15.30221,12.11365 -16.17693,12.46386 -0.25626,0.10259 -2.817,-1.56786 -5.69053,-3.71213 z m 10.21189,-8.85547 c 3.51107,-0.93694 6.49381,-2.52548 8.79475,-4.68396 6.11461,-5.73598 8.16977,-15.27659 4.73791,-21.99469 -1.15095,-2.25302 -4.16163,-5.65978 -3.78855,-4.28697 0.83953,3.08931 1.03121,4.66498 0.84673,6.9607 -0.69952,8.70571 -9.11459,15.5756 -17.42005,14.22141 -8.68766,-1.41651 -14.95737,-9.64898 -13.41856,-17.61931 0.92358,-4.78381 1.00354,-4.53833 -0.82034,-2.51847 -2.4117,2.67076 -3.54791,5.43884 -3.74166,9.11549 -0.19416,3.6844 0.26896,6.11092 1.84232,9.65294 1.99441,4.48998 5.8567,8.25394 10.60629,10.33629 3.82102,1.67523 8.0872,1.95706 12.36116,0.81657 z m -8.29795,-20.08971 c 1.75736,-1.34076 3.32953,-2.43771 3.4937,-2.43771 0.16417,0 1.73821,1.07897 3.49786,2.39769 1.75966,1.31876 3.24819,2.2629 3.30787,2.09809 0.11148,-0.30789 -0.59823,-3.31408 -1.526,-6.46365 l -0.52445,-1.78037 3.48708,-2.72 3.48707,-2.72003 -4.43794,-0.1875 -4.43796,-0.18753 -1.15466,-3.00025 c -0.63506,-1.65013 -1.27171,-3.3238 -1.41478,-3.71925 -0.38976,-1.07734 -0.83891,-0.38562 -2.1971,3.38366 l -1.20201,3.33584 -4.61912,0.18753 -4.61911,0.1875 3.69986,2.74741 c 2.69272,1.99952 3.65334,2.91831 3.52892,3.37528 -0.0941,0.34532 -0.51636,1.97798 -0.93851,3.62812 -0.42219,1.65013 -0.84842,3.29558 -0.9472,3.65655 -0.0988,0.36097 -0.0669,0.65629 0.0708,0.65629 0.13774,0 1.68826,-1.09694 3.44565,-2.43767 z m -15.77882,27.52022 c -0.64251,-0.19356 -1.1682,-0.41452 -1.1682,-0.49104 0,-0.0765 0.56612,-1.01683 1.25806,-2.08962 0.69194,-1.07281 1.25805,-2.18671 1.25805,-2.4754 0,-0.78079 0.16805,-0.69444 2.71873,1.39701 2.16485,1.77505 2.3011,1.97117 1.78372,2.56766 -0.59793,0.68935 -2.88549,1.53307 -4.00501,1.47715 -0.37242,-0.0185 -1.20285,-0.19221 -1.84535,-0.38576 z m 33.85289,-0.14685 c -2.18701,-1.00184 -2.14121,-1.3747 0.43168,-3.51428 1.30032,-1.08133 2.40755,-1.91345 2.4605,-1.84916 0.0531,0.0642 0.37856,0.70756 0.72358,1.42951 0.34502,0.72192 1.0146,1.85258 1.48796,2.51254 l 0.86063,1.19994 -1.35238,0.39185 c -1.76133,0.51033 -3.24564,0.4555 -4.61197,-0.1704 z m 8.58389,-0.21102 c -1.37866,-0.42949 -3.13412,-2.55279 -3.94728,-4.77431 l -0.59417,-1.62323 2.83295,-2.72576 2.83297,-2.72578 0.7821,2.00784 c 0.94902,2.43627 2.24593,4.34924 4.19407,6.18644 1.27917,1.2063 1.40254,1.45813 0.97658,1.99363 -1.18303,1.4873 -4.86287,2.35103 -7.07722,1.66117 z m -51.69244,-0.4986 c -0.59308,-0.27313 -1.36965,-0.83782 -1.72569,-1.25484 -0.63131,-0.73941 -0.61424,-0.78675 0.68809,-1.90676 1.57215,-1.35212 4.26332,-5.26693 4.81109,-6.99868 l 0.38459,-1.21588 2.73372,2.71683 c 3.08623,3.06717 3.10706,3.1761 1.20486,6.30015 -0.69802,1.14643 -1.5496,1.99979 -2.33908,2.34397 -1.53533,0.66932 -4.32134,0.67669 -5.75758,0.0152 z m -8.98607,-2.80806 c -1.71205,-0.8244 -3.46815,-2.6826 -2.77792,-2.93937 0.2514,-0.0936 1.44074,-0.85537 2.64299,-1.69301 2.90015,-2.02064 8.24049,-8.77137 8.21185,-10.38063 -0.0118,-0.64432 -0.0289,-0.6254 -4.96247,5.38239 -4.73036,5.76034 -8.236,7.5982 -11.80757,6.19025 -1.23956,-0.48865 -2.87919,-2.0668 -3.56003,-3.42656 -0.68042,-1.35892 -0.63871,-1.80002 0.1702,-1.80002 1.40586,0 6.43755,-3.03928 9.22002,-5.56914 2.85099,-2.59218 4.71453,-4.81246 4.35453,-5.18806 -0.10402,-0.10852 -2.09972,1.43208 -4.43483,3.42363 -6.74532,5.75302 -10.95494,7.33459 -14.60934,5.48879 -1.77655,-0.89732 -3.46561,-3.11932 -3.58031,-4.71007 -0.0686,-0.95053 0.0775,-1.07071 1.90269,-1.56609 3.28777,-0.89233 5.43879,-2.19087 8.23953,-4.97409 1.4675,-1.4583 2.57149,-2.75231 2.45333,-2.87562 -0.42267,-0.44098 -1.70145,0.29049 -5.004,2.86221 -5.12637,3.99199 -8.39578,4.93732 -11.68569,3.37887 -1.6991,-0.80486 -2.62981,-2.31316 -2.62981,-4.2618 0,-1.25772 0.0481,-1.29696 3.09142,-2.52458 4.19291,-1.69131 11.98945,-7.11099 10.22957,-7.11099 -0.2471,0 -2.65797,1.25267 -5.35751,2.78371 -2.69952,1.53106 -5.8602,3.06855 -7.02377,3.41667 -4.36476,1.30591 -8.34018,0.0427 -9.8991,-3.1456 l -0.70643,-1.44473 2.93864,-0.82065 c 3.81363,-1.06495 8.78863,-3.14457 11.88144,-4.9666 1.35212,-0.79655 2.58706,-1.44827 2.74433,-1.44827 0.15725,0 0.55973,0.436 0.89439,0.96888 0.84437,1.34456 2.64329,2.03136 5.32064,2.03136 h 2.27512 l -0.1452,2.37906 c -0.16395,2.68642 0.34579,4.10796 2.21814,6.18576 3.72938,4.13858 9.39261,3.36991 11.82385,-1.60491 l 0.53917,-1.10325 0.26738,1.29077 c 0.97174,4.69076 4.431,11.95153 7.81127,16.3954 l 1.79027,2.35354 -1.20648,2.08098 c -1.76042,3.03645 -4.3981,5.9709 -6.17273,6.86725 -1.90269,0.961 -3.56942,0.98376 -5.45758,0.0745 z m 68.55605,-0.3225 c -0.80509,-0.56724 -1.98273,-1.70639 -2.61697,-2.53146 -1.19984,-1.56082 -3.2155,-5.63338 -3.216,-6.49777 -2.3e-4,-0.3921 2.25168,-3.79071 3.59303,-5.42263 0.13315,-0.16194 0.85981,0.68186 1.61487,1.87514 3.11273,4.91929 6.28117,8.34385 9.41024,10.17089 1.5793,0.92215 -2.4225,3.43716 -5.4691,3.43716 -1.42618,0 -2.189,-0.23724 -3.31607,-1.03133 z m 11.14524,-2.69969 c -2.62288,-0.67465 -6.02678,-3.85611 -10.3607,-9.68367 l -2.30645,-3.1013 1.20523,-2.52415 c 1.35619,-2.84031 2.93915,-7.16357 3.29011,-8.98574 l 0.23328,-1.21116 1.15641,1.58191 c 1.82986,2.50318 3.19526,3.27811 5.77583,3.27811 5.17864,0 8.90603,-4.50357 7.7955,-9.41881 l -0.30627,-1.35563 2.7218,-0.24005 c 2.04015,-0.17995 3.06317,-0.47576 4.08479,-1.18115 0.74961,-0.51759 1.36544,-1.06527 1.36846,-1.21705 0.002,-0.15177 0.14806,-0.5108 0.32229,-0.79789 0.26203,-0.43173 0.49399,-0.39037 1.3424,0.23945 2.72133,2.02016 10.56839,5.60884 14.1453,6.46903 2.58997,0.62285 2.5965,0.62874 2.00627,1.80417 -0.83352,1.66001 -2.80595,3.35703 -4.41856,3.80158 -3.09193,0.85239 -6.6364,-0.28122 -13.40319,-4.28668 -1.8781,-1.11169 -3.89997,-2.14409 -4.49304,-2.29418 -1.00374,-0.25404 -1.04175,-0.22662 -0.54967,0.39629 1.40259,1.77543 8.29727,5.98712 11.95496,7.30282 1.86679,0.6715 1.89285,0.70179 1.80841,2.10149 -0.2432,4.03103 -4.39226,5.80976 -9.1565,3.92541 -1.04529,-0.41345 -3.43717,-1.93023 -5.31526,-3.37063 -4.48043,-3.43627 -4.67275,-3.55229 -4.67275,-2.81869 0,0.32227 0.7683,1.34986 1.70736,2.28346 l 1.70734,1.69751 -1.4108,-0.59093 -1.41081,-0.59094 0.68863,0.79394 c 0.9191,1.05962 6.72881,3.98206 9.06956,4.56219 2.01075,0.49835 2.1939,0.8422 1.48747,2.79296 -1.04257,2.87905 -4.40921,4.55621 -7.7993,3.88542 -3.47095,-0.68681 -6.66488,-2.83766 -13.83648,-9.31778 -0.34717,-0.31373 -0.73357,-0.4636 -0.85865,-0.33311 -0.42165,0.43994 5.42098,6.31443 8.13957,8.18399 1.48269,1.01965 3.55165,2.11454 4.59767,2.4331 1.68802,0.51405 1.87527,0.67054 1.66563,1.39189 -0.90529,3.11491 -4.73908,5.2274 -7.97584,4.39482 z m -86.89015,-23.9619 c -1.35332,-0.86329 -1.85821,-1.49788 -2.14704,-2.69854 -0.21946,-0.91238 -0.17389,-0.94193 1.23674,-0.80155 2.01257,0.20023 4.8506,-1.3029 7.01212,-3.71397 0.93445,-1.04232 1.60489,-1.9933 1.48992,-2.11329 -0.11492,-0.12002 -1.54671,0.63756 -3.18154,1.68341 -2.97147,1.90097 -5.8912,2.98798 -6.91966,2.57619 -0.82711,-0.33115 -0.65324,-2.04653 0.30188,-2.97809 0.46621,-0.45471 1.50533,-1.29262 2.3091,-1.86199 1.26317,-0.89477 4.03748,-4.02769 3.56665,-4.02769 -0.0915,0 -1.11602,0.59665 -2.27672,1.32591 -2.70739,1.70103 -5.07779,2.42439 -7.94451,2.42439 -2.40139,0 -4.16201,-0.66008 -4.5461,-1.70444 -0.79463,-2.16054 0.28524,-3.45192 3.91031,-4.67626 2.61149,-0.88202 5.68687,-2.39895 7.54828,-3.72314 1.42233,-1.01182 1.10808,-0.97609 -2.99906,0.34102 -6.16462,1.97688 -10.6674,2.37806 -13.20324,1.17638 -1.86331,-0.88298 -2.56523,-2.4057 -1.97259,-4.2793 0.37675,-1.19107 0.54008,-1.30044 2.25943,-1.5129 1.01933,-0.12601 3.07631,-0.61291 4.57109,-1.0821 l 2.71775,-0.85311 -5.21192,-0.20867 c -6.57441,-0.26325 -8.26718,-1.04309 -8.26718,-3.80856 0,-1.77552 0.84961,-2.41702 3.50929,-2.64966 1.35589,-0.11868 3.94551,-0.57823 5.75471,-1.02141 3.57979,-0.8769 5.01289,-0.87418 4.80145,0.008 -0.61638,2.57472 -0.47877,3.62954 0.64829,4.96887 1.40693,1.6719 4.0413,2.68118 6.01984,2.30634 1.6224,-0.30735 3.74635,-1.365 4.40561,-2.19379 0.55895,-0.7027 0.53218,-0.70465 -2.38855,-0.17396 -4.1871,0.76077 -7.29459,-0.69764 -7.29459,-3.42351 0,-1.62049 0.57068,-2.22631 2.96539,-3.14797 0.93905,-0.36142 1.70753,-0.68537 1.70775,-0.71987 2.2e-4,-0.0345 -1.6692,-0.006 -3.70987,0.0633 -3.5808,0.12162 -3.75016,0.091 -4.85288,-0.87718 -1.49042,-1.30848 -1.57498,-3.14461 -0.21043,-4.56835 0.91079,-0.95027 1.01596,-0.96803 4.5829,-0.77351 7.08159,0.38618 12.45707,3.16558 12.45707,6.44092 0,0.77087 -0.46596,2.52683 -1.03548,3.90215 -1.47513,3.56227 -1.9578,6.09832 -1.75035,9.19653 0.24942,3.72517 1.34092,6.42155 3.87336,9.56843 l 2.14746,2.66853 -0.007,4.03465 -0.007,4.03465 -1.42667,1.23597 c -0.78465,0.67978 -1.98965,1.48141 -2.67779,1.7814 -1.74367,0.76016 -4.45498,0.69186 -5.76727,-0.14526 z m 83.03134,-0.0203 c -0.79079,-0.38199 -1.91986,-1.22974 -2.50905,-1.88386 l -1.07125,-1.18929 0.11799,-4.20217 0.118,-4.20219 1.77944,-1.9657 c 0.97867,-1.08115 2.29496,-3.10633 2.92508,-4.50039 1.0608,-2.34685 1.14326,-2.81252 1.113,-6.28496 -0.0332,-3.80684 -0.13518,-4.25101 -2.07805,-9.0543 -1.10828,-2.7399 -0.97088,-4.16355 0.55553,-5.75616 1.90836,-1.99112 7.58088,-3.75357 12.08104,-3.75357 2.72104,0 3.07904,0.0866 3.89974,0.94285 1.24784,1.30195 1.09333,3.35148 -0.33603,4.45785 -0.87876,0.68017 -1.52135,0.78731 -4.72272,0.78731 h -3.70553 l 2.0991,0.87615 c 1.77769,0.74198 2.16181,1.07435 2.50858,2.17069 0.99924,3.15896 -2.7363,5.0804 -8.05158,4.1415 -2.20137,-0.38883 -2.14961,0.26201 0.12036,1.5145 2.30948,1.27423 5.11932,1.19111 7.24333,-0.21429 1.93809,-1.28242 2.63376,-2.77831 2.38082,-5.1195 l -0.18164,-1.68142 1.30378,0.007 c 0.71705,0.005 3.24474,0.42439 5.61706,0.93364 2.37232,0.50922 4.75243,0.92764 5.28914,0.92982 1.82586,0.007 2.39607,3.08294 0.8673,4.67802 -1.24301,1.29691 -3.10854,1.697 -7.9237,1.69936 -2.35586,10e-4 -4.18926,0.10023 -4.07425,0.22027 0.31603,0.32972 6.76405,2.032 7.69696,2.032 1.66172,0 2.18357,3.38265 0.74013,4.79749 -2.12545,2.08337 -7.52958,1.92615 -14.9981,-0.4363 -2.17367,-0.68762 -3.95212,-1.20585 -3.95212,-1.15168 0,0.0542 1.04782,0.78898 2.32848,1.63288 2.27272,1.49759 7.25851,3.78331 8.25248,3.78331 0.67359,0 2.35898,2.14029 2.35898,2.9957 0,0.37835 -0.51459,1.13971 -1.14352,1.69188 -1.09425,0.96067 -1.29169,0.99836 -4.5829,0.87459 -3.57781,-0.13452 -5.45353,-0.78497 -8.63213,-2.99333 -1.33799,-0.92958 -1.25824,-0.61611 0.41427,1.6285 0.56742,0.76154 1.6321,1.75923 2.36592,2.21709 2.49317,1.5556 2.95172,2.18695 2.95172,4.0639 0,2.11642 -0.944,4.05973 -2.51592,5.17923 -1.50994,1.07535 -4.57208,1.13652 -6.64986,0.1328 z m 4.53345,-5.58838 c -2.54826,-2.12154 -5.61704,-4.13418 -5.74255,-3.76621 -0.16227,0.47568 2.2706,3.15884 3.72518,4.10841 0.59308,0.38716 1.56359,0.69665 2.15667,0.68773 l 1.07832,-0.0161 -1.21762,-1.01372 z M 119.9049,159.96283 c -1.67709,-0.56174 -5.30253,-3.66411 -4.84262,-4.14397 0.11914,-0.12431 2.53284,-0.70696 5.36383,-1.29487 5.84666,-1.21415 9.58261,-2.42704 13.87003,-4.50291 l 2.97168,-1.43881 1.52136,0.72056 c 0.83675,0.3963 2.12388,0.72427 2.86027,0.72881 1.31587,0.008 1.33506,0.0291 1.11475,1.22707 -0.34179,1.85817 -0.77713,2.90648 -1.20701,2.90648 -0.21375,0 -2.21879,0.83138 -4.45562,1.84751 -9.15012,4.15662 -13.55762,5.16906 -17.19667,3.95013 z m 151.42261,-0.50537 c -1.68041,-0.58003 -4.76739,-1.82419 -6.85998,-2.76479 -2.09257,-0.94062 -4.46465,-1.91651 -5.27127,-2.16867 -1.45485,-0.45477 -1.46755,-0.47459 -1.58695,-2.47179 -0.12023,-2.01202 -0.11969,-2.01339 0.95796,-2.02927 0.59308,-0.008 1.88707,-0.31175 2.87556,-0.67335 l 1.79719,-0.65741 2.69583,1.37077 c 1.48271,0.75393 4.23244,1.8917 6.11053,2.52837 3.52744,1.19581 11.1856,3.07401 12.53391,3.07401 1.07903,0 0.96058,0.39979 -0.58243,1.96604 -3.09613,3.14274 -7.15938,3.72835 -12.67035,1.82609 z m -165.74554,-5.03225 c -2.58524,-1.01896 -5.34933,-3.31107 -5.34933,-4.43592 0,-0.17846 1.08201,-0.32446 2.40446,-0.32446 6.36944,0 22.00097,-3.74246 26.6098,-6.37086 l 1.35869,-0.77486 -1.61751,0.24366 c -0.88963,0.13394 -3.63936,0.8357 -6.11053,1.5593 -13.08831,3.83255 -11.49935,3.55249 -21.23918,3.74353 -11.62345,0.22802 -13.51521,-0.23674 -17.34544,-4.26143 l -1.38228,-1.45246 1.20255,-0.0976 c 14.651105,-1.18987 20.62121,-2.18172 28.87967,-4.79788 4.47704,-1.41827 9.88468,-3.79013 9.88468,-4.33551 0,-0.39894 -1.54225,-0.0921 -5.39163,1.07296 -16.03445,4.85271 -27.88557,6.82292 -38.27482,6.36305 -7.650539,-0.33867 -11.538355,-2.0385 -14.76859,-6.45723 -0.535324,-0.7323 -0.904337,-1.40339 -0.820029,-1.49137 0.08436,-0.088 1.522175,-0.002 3.195252,0.18843 5.436298,0.62257 23.129837,0.8567 31.078532,0.41129 8.227875,-0.46107 12.431175,-0.99904 20.128805,-2.57613 4.88667,-1.00117 4.97078,-1.03431 2.90823,-1.14526 -1.1682,-0.0628 -6.1824,0.23477 -11.14273,0.66131 -23.50895,2.02162 -39.032972,2.02292 -48.737227,0.005 -4.624796,-0.96212 -9.184179,-3.32806 -11.910124,-6.1804 -1.851537,-1.93735 -4.195638,-5.63135 -3.821334,-6.02188 0.0855,-0.0891 2.002033,0.52585 4.2591,1.36665 7.734765,2.88136 17.649193,4.73338 30.882265,5.76882 11.573265,0.90557 31.14691,0.73899 43.54033,-0.37056 l 2.38407,-0.21344 -0.17759,1.64387 c -0.30718,2.84346 1.11207,4.79722 4.30367,5.92454 l 1.88678,0.66645 -0.11902,2.41491 c -0.11065,2.24628 -0.0418,2.50678 0.98796,3.73039 0.60885,0.72352 1.57367,1.51715 2.14404,1.76365 1.03576,0.44763 1.03646,0.45018 0.56206,2.09488 -0.47466,1.64555 -0.32979,2.93858 0.51345,4.58251 0.35231,0.68685 0.26287,0.78722 -0.9054,1.01589 -0.71299,0.13962 -4.22746,1.26109 -7.80992,2.49229 -3.58247,1.2312 -7.80758,2.57475 -9.38913,2.98565 -3.76444,0.97806 -10.99391,1.32203 -12.80255,0.60918 z m 8.12978,-11.47366 c 4.55825,-1.44617 10.05875,-3.85995 11.50218,-5.04746 1.14398,-0.94115 0.34265,-0.74412 -5.94305,1.46138 -3.2552,1.14217 -7.75987,2.5831 -10.01035,3.20206 -2.25049,0.61896 -4.51497,1.38112 -5.0322,1.69369 -0.88206,0.53303 -0.76194,0.55604 1.93512,0.37056 1.86205,-0.128 4.5225,-0.72025 7.5483,-1.68023 z m 171.14713,11.57119 c -2.60347,-0.42107 -6.00181,-1.40786 -11.37473,-3.30288 -2.27347,-0.80185 -5.34671,-1.76929 -6.8294,-2.14983 -1.48272,-0.38054 -2.74825,-0.72428 -2.8123,-0.76387 -0.064,-0.0396 0.17669,-0.93317 0.53498,-1.98575 0.60875,-1.78826 0.61347,-2.02408 0.0719,-3.59547 l -0.5796,-1.68171 1.45054,-0.84587 c 0.7978,-0.46523 1.76271,-1.28652 2.14427,-1.82507 0.74339,-1.04928 0.98074,-3.25067 0.53129,-4.92754 -0.24908,-0.92933 -0.18649,-1.03135 0.63296,-1.03135 1.53616,0 4.06709,-1.48187 4.88272,-2.85885 0.57612,-0.97258 0.72989,-1.74203 0.63586,-3.18143 l -0.12402,-1.89856 1.79721,0.21612 c 9.31495,1.12008 36.06299,1.50636 45.28983,0.65404 14.31798,-1.32265 23.64434,-3.1997 31.15304,-6.26996 1.22095,-0.49922 2.29809,-0.82611 2.39363,-0.72642 0.44459,0.46387 -1.38904,3.53208 -3.34422,5.59592 -2.2393,2.36371 -5.67013,4.49744 -8.99531,5.59439 -4.99445,1.64766 -15.73248,2.62618 -25.35391,2.3104 -12.15478,-0.39888 -15.52318,-0.59614 -26.00603,-1.52297 -5.90857,-0.5224 -11.48894,-0.89931 -12.40078,-0.83761 l -1.65791,0.11207 2.52811,0.64232 c 10.79493,2.74266 29.36026,4.08877 45.84807,3.32428 5.22178,-0.24213 9.85809,-0.53471 10.30289,-0.65018 1.09537,-0.28439 1.01706,0.24275 -0.29358,1.97622 -2.46251,3.25687 -6.41442,5.17086 -12.01735,5.82025 -8.35343,0.96813 -24.67951,-1.43919 -38.57968,-5.68869 -3.42641,-1.04752 -6.48652,-1.85266 -6.80026,-1.78922 -1.90592,0.38537 9.32297,4.77432 16.52915,6.46064 5.02117,1.175 15.1684,2.46394 19.41542,2.46623 1.72981,7.4e-4 3.14513,0.15752 3.14513,0.34794 0,0.89804 -2.10085,2.7696 -4.49431,4.00382 -2.58606,1.33351 -2.77341,1.37079 -8.51037,1.6924 -10.22572,0.57325 -12.81265,0.18181 -28.87044,-4.3686 -4.33848,-1.22945 -4.83389,-1.11602 -1.73197,0.39658 4.90339,2.39103 16.9685,5.40363 21.83378,5.4518 1.20102,0.0123 2.817,0.13905 3.59108,0.28248 l 1.40744,0.26088 -1.26892,1.40377 c -2.02361,2.23871 -4.16178,3.04101 -8.37536,3.14273 -1.97693,0.0478 -4.54141,-0.0663 -5.69883,-0.25358 z m 11.62963,-9.53486 c 0,-0.0971 -1.90055,-0.78577 -4.22345,-1.53029 -2.3229,-0.74453 -7.26095,-2.46033 -10.97343,-3.81286 -3.7125,-1.35255 -6.84101,-2.36421 -6.95227,-2.24811 -0.61299,0.63953 6.65635,4.19808 12.09972,5.92317 3.89956,1.23581 10.04943,2.25664 10.04943,1.66809 z m -132.0539,6.9101 c -4.26791,-5.2921 -4.90615,-11.5623 -1.86875,-18.35946 0.62746,-1.40421 0.92283,-2.707 0.92524,-4.08095 0.002,-1.87653 -0.10378,-2.13021 -1.52468,-3.6127 -2.30609,-2.4061 -5.11751,-3.21342 -12.05577,-3.46184 -5.36392,-0.19207 -5.51768,-0.17606 -6.37462,0.66388 -1.6154,1.58344 -1.61608,4.28219 -9.1e-4,6.28418 l 0.88778,1.10082 -2.41531,0.23802 c -6.78042,0.66818 -11.24424,-0.0421 -13.31868,-2.11942 -1.0548,-1.05622 -1.17655,-1.37474 -1.01605,-2.65799 0.24934,-1.99326 0.81593,-2.45528 3.50034,-2.85425 2.09297,-0.31107 1.97292,-0.32775 -1.28588,-0.17873 -32.351485,1.47948 -51.85173,1.14211 -65.488072,-1.133 -13.969075,-2.33059 -22.839425,-6.65382 -28.341819,-13.8131 -2.147496,-2.79414 -3.487032,-6.07686 -3.327409,-8.154302 l 0.107523,-1.39987 2.57,2.167422 c 9.506004,8.01692 22.689364,13.25056 38.765957,15.38963 11.78486,1.56802 14.23082,1.65574 46.72761,1.67556 28.6869,0.0174 31.92723,0.0807 34.81378,0.67861 8.81814,1.82673 13.11829,5.06415 13.47028,10.14119 0.14219,2.05124 0.0182,2.49616 -1.77014,6.36013 -1.77605,3.83709 -1.92212,4.35717 -1.91121,6.80485 0.009,2.05798 0.20392,3.02737 0.87142,4.33787 0.47278,0.9282 0.82642,1.772 0.78583,1.87514 -0.0406,0.10319 -0.45752,1.33382 -0.92653,2.73484 l -0.85275,2.54731 z m 69.87025,0.19519 c 0,-0.31457 -0.31378,-1.50343 -0.6973,-2.64192 -0.68413,-2.0309 -0.68451,-2.09277 -0.02,-3.27217 1.8138,-3.21942 1.54729,-6.80505 -0.90284,-12.14667 -2.1111,-4.60252 -2.2736,-6.56822 -0.765,-9.25408 1.94162,-3.4568 6.86751,-5.75797 14.63468,-6.83662 4.55427,-0.63248 15.75073,-0.61029 41.30751,0.0817 9.30516,0.252 25.36083,-0.32318 33.35784,-1.19501 13.74144,-1.49809 24.78822,-4.40566 32.86805,-8.65107 3.17154,-1.6664 8.81553,-5.48102 11.23409,-7.59274 1.71987,-1.501702 1.80267,-1.532462 1.924,-0.715332 0.2392,1.610942 -0.70768,4.742782 -2.1263,7.032862 -5.89472,9.51579 -18.70487,14.74549 -40.59449,16.57256 -10.03152,0.83732 -34.17647,0.56478 -54.09617,-0.6106 -2.58559,-0.15258 -2.67711,-0.13666 -0.90778,0.15868 2.33871,0.39026 3.24414,1.32976 3.24414,3.36618 0,1.62277 -0.87825,2.66173 -3.05053,3.60874 -1.72498,0.752 -7.24776,1.12129 -11.11475,0.74321 l -2.79801,-0.27355 0.98451,-1.07217 c 0.71282,-0.77632 1.03063,-1.57328 1.15173,-2.88813 0.14421,-1.56598 0.0339,-1.98144 -0.802,-3.01781 l -0.96924,-1.20178 -4.55093,0.002 c -5.77598,0.005 -8.66911,0.48173 -11.38037,1.88081 -3.9828,2.0552 -4.52057,4.01513 -2.54737,9.28378 0.71433,1.90735 1.4783,4.34121 1.69768,5.40857 0.82007,3.98968 -0.42681,9.06434 -2.96699,12.07528 -1.51693,1.7979 -2.11412,2.12397 -2.11412,1.15415 z"
       id="path847" />
  </g>
</svg>
