<?xml version="1.0" encoding="UTF-8" standalone="no"?>
<svg
   xmlns:dc="http://purl.org/dc/elements/1.1/"
   xmlns:cc="http://creativecommons.org/ns#"
   xmlns:rdf="http://www.w3.org/1999/02/22-rdf-syntax-ns#"
   xmlns:svg="http://www.w3.org/2000/svg"
   xmlns="http://www.w3.org/2000/svg"
   xmlns:sodipodi="http://sodipodi.sourceforge.net/DTD/sodipodi-0.dtd"
   xmlns:inkscape="http://www.inkscape.org/namespaces/inkscape"
   width="640"
   height="480"
   viewBox="0 0 640 480"
   version="1.1"
   id="svg32"
   sodipodi:docname="abz.svg"
   inkscape:version="1.0.2-2 (e86c870879, 2021-01-15)">
  <g transform="scale(1.600000, 1.600000)">
  <metadata
     id="metadata38">
    <rdf:RDF>
      <cc:Work
         rdf:about="">
        <dc:format>image/svg+xml</dc:format>
        <dc:type
           rdf:resource="http://purl.org/dc/dcmitype/StillImage" />
        <dc:title></dc:title>
      </cc:Work>
    </rdf:RDF>
  </metadata>
  <defs
     id="defs36" />
  <sodipodi:namedview
     pagecolor="#ffffff"
     bordercolor="#666666"
     borderopacity="1"
     objecttolerance="10"
     gridtolerance="10"
     guidetolerance="10"
     inkscape:pageopacity="0"
     inkscape:pageshadow="2"
     inkscape:window-width="3840"
     inkscape:window-height="2054"
     id="namedview34"
     showgrid="false"
     inkscape:zoom="1.8184429"
     inkscape:cx="128.47407"
     inkscape:cy="96.946962"
     inkscape:window-x="1609"
     inkscape:window-y="-11"
     inkscape:window-maximized="1"
     inkscape:current-layer="svg32" />
  <rect
     fill="#00993e"
     width="400"
     height="300"
     id="rect2"
     x="1.3544922e-06"
     y="-1.8554687e-07"
     style="stroke-width:0.816497" />
  <g
     fill="#ffffff"
     id="g10"
     transform="matrix(0.66666666,0,0,1,-1e-6,-3e-5)">
    <rect
       y="42.856998"
       width="600"
       height="42.856998"
       id="rect4"
       x="0" />
    <rect
       y="128.571"
       width="600"
       height="42.856998"
       id="rect6"
       x="0" />
    <rect
       y="214.286"
       width="600"
       height="42.856998"
       id="rect8"
       x="0" />
  </g>
  <rect
     fill="#c8312a"
     width="152"
     height="128.571"
     id="rect12"
     x="1.3544922e-06"
     y="-1.8554687e-07"
     style="stroke-width:0.816497" />
  <path
     d="m 58.352001,74.279 c 0,0 -1.965,0.823 -0.619,16.509 1.099,12.911 5.699,17.117 5.699,17.117 l 2.009,7.992 19.056,0.078 c 0,0 0.345,-4.949 1.083,-6.514 1.813,-3.845 8.999,-8.24 12.079,-14.876 3.311999,-4.045 1.653,-12.3 8.300999,-20.268 3.301,-3.957 -3.867,-2.282 -3.867,-2.282 -3.930999,2.607 -5.851999,5.667 -6.842999,7.805 -0.667,4.119 -3.75,7.563 -4.041,4.572 0,0 -1.12,-5.172 -4.481,-15.226 -0.333,-2.98 -1.774,-13.286 -2.082,-21.152 -0.219,-5.118 -4.699,-5.426 -5.073,-0.231 l -0.541,20.595 -1.071,-23.786 c -0.455,-6.732 -5.548,-5.734 -5.769,-0.155 l -0.219,24.767 -0.928,-24.008 c -1.38,-4.586 -5.006,-1.868 -5.073,3.1 l -0.618,23.36 c 0,0 -0.781,-12.793 -0.957,-18.195 -0.166,-3.249 -3.971,-3.009 -4.33,1.636 -0.518,6.718 -1.333,12.201 -1.715,19.162 z"
     id="path14"
     style="fill:#ffffff" />
  <path
     d="m 70.206001,30.428 5.794,-17.832 5.794,17.832 -15.169,-11.02 h 18.749 z"
     id="path16"
     style="fill:#ffffff" />
  <path
     d="m 44.738001,41.542 15.169,-11.021 h -18.75 l 15.169,11.021 -5.794,-17.832 z"
     id="path24"
     style="fill:#ffffff" />
  <path
     d="m 17.516003,86.65602 15.168998,-11.021 H 13.935003 l 15.168998,11.021 -5.793998,-17.832 z"
     id="path28"
     style="fill:#ffffff" />
  <path
     d="M 107.262,41.542 92.093,30.521 h 18.75 L 95.674,41.542 101.468,23.71 Z"
     id="path24-5"
     style="fill:#ffffff" />
  <path
     d="m 26.104001,60.73002 15.169,-11.021 h -18.749 l 15.169,11.021 -5.795,-17.832 z"
     id="path26"
     style="fill:#ffffff" />
  <path
     d="m 125.896,60.73002 -15.169,-11.021 h 18.749 l -15.169,11.021 5.795,-17.832 z"
     id="path26-8"
     style="fill:#ffffff" />
  <path
     d="m 134.484,86.65602 -15.169,-11.021 h 18.75 l -15.169,11.021 5.794,-17.832 z"
     id="path28-0"
     style="fill:#ffffff" />
</g>
</svg>
