<?xml version="1.0" encoding="UTF-8" standalone="no"?>
<svg
   xmlns:dc="http://purl.org/dc/elements/1.1/"
   xmlns:cc="http://creativecommons.org/ns#"
   xmlns:rdf="http://www.w3.org/1999/02/22-rdf-syntax-ns#"
   xmlns:svg="http://www.w3.org/2000/svg"
   xmlns="http://www.w3.org/2000/svg"
   xmlns:sodipodi="http://sodipodi.sourceforge.net/DTD/sodipodi-0.dtd"
   xmlns:inkscape="http://www.inkscape.org/namespaces/inkscape"
   xml:space="preserve"
   width="400"
   height="300"
   fill-rule="evenodd"
   clip-rule="evenodd"
   image-rendering="optimizeQuality"
   shape-rendering="geometricPrecision"
   text-rendering="geometricPrecision"
   version="1.1"
   id="svg15"
   sodipodi:docname="gu.svg"
   inkscape:version="1.0.2-2 (e86c870879, 2021-01-15)"><metadata
   id="metadata22"><rdf:RDF><cc:Work
       rdf:about=""><dc:format>image/svg+xml</dc:format><dc:type
         rdf:resource="http://purl.org/dc/dcmitype/StillImage" /><dc:title></dc:title></cc:Work></rdf:RDF></metadata><defs
   id="defs15" /><sodipodi:namedview
   id="namedview15"
   pagecolor="#ffffff"
   bordercolor="#000000"
   borderopacity="0.25"
   inkscape:showpageshadow="2"
   inkscape:pageopacity="0.0"
   inkscape:pagecheckerboard="0"
   inkscape:deskcolor="#d1d1d1"
   inkscape:zoom="1.1868687"
   inkscape:cx="380.88136"
   inkscape:cy="116.90166"
   inkscape:window-width="1724"
   inkscape:window-height="1228"
   inkscape:window-x="3467"
   inkscape:window-y="628"
   inkscape:window-maximized="0"
   inkscape:current-layer="svg15"
   inkscape:document-rotation="0"
   showgrid="false" />
  
  
  
  
  
  
  
  
  
  
  
  
  
  
  
  
  
<g
   id="g958"
   transform="translate(-169,-48)"><path
     fill="#c62139"
     d="M 169,48 H 569 V 348 H 169 Z"
     id="path1"
     style="stroke-width:0.640789" /><path
     fill="#00297b"
     d="m 181.5,61.5 h 375 v 273 h -375 z"
     id="path2"
     style="stroke-width:0.636468" /><g
     id="g938"
     transform="translate(3.33192,-7.582978)"><path
       fill="#92dbfc"
       d="m 365.88408,103.54098 c 0,0 -68.247,49.725 -68.247,101.376 0,51.66 68.247,102.708 68.247,102.708 0,0 67.815,-47.322 67.815,-102.708 0,-55.368 -67.815,-101.376 -67.815,-101.376 z"
       id="path3-3" /><path
       fill="#008ce7"
       d="m 305.18808,236.45298 c 17.766,39.06 60.696,71.172 60.696,71.172 0,0 43.704,-30.501 60.93,-71.181"
       id="path4-8" /><path
       fill="#cccccc"
       d="m 427.05708,225.17598 c -10.521,6.894 -69.723,3.582 -69.723,3.582 l -3.312,7.722 70.497,0.198 c 0.288,-1.062 0.99,-2.322 1.242,-3.384 z"
       id="path5-7" /><path
       fill="#ffde52"
       d="m 321.12708,257.11698 c 2.997,0.09 5.985,0.675 8.667,1.98 4.797,2.313 7.569,2.295 12.735,2.367 5.409,0.072 9.657,3.717 15.498,3.87 10.764,0.27 15.3,5.175 6.93,5.175 -3.96,0 -12.438,-2.43 -16.533,-1.926 -6.228,0.576 -9.828,1.008 -14.436,4.365 a 175.329,175.329 0 0 1 -12.861,-15.831 z m 21.303,24.579 c 2.664,-1.665 4.5,-2.97 7.092,-3.051 5.04,-0.135 6.75,-2.988 12.573,-2.988 6.615,1.107 15.57,-0.72 20.826,-1.8 9.306,-1.962 4.896,-7.92 -0.747,-10.089 -4.554,-1.79 -13.095,-0.09 -18.396,-1.863 -4.005,-1.44 -0.702,-3.717 1.458,-4.203 2.17,-0.369 4.5,0.288 7.218,0.693 a 75.609,75.609 0 0 0 15.156,-0.63 c 8.775,-1.233 8.415,-3.59 12.654,-3.645 3.087,-0.125 5.445,-0.972 7.56,-2.349 2.466,-1.512 5.05,-4.617 8.046,-4.5 l 1.764,0.072 c -18.513,32.796 -51.759,54.324 -51.759,54.324 0,0 -10.746,-7.533 -23.445,-19.971 z"
       id="path6-7" /><path
       fill="#8c4200"
       d="m 346.54308,222.52998 c 0.252,-0.342 0.504,-0.19 0.756,0 l 0.541,25.074 h -1.8 z"
       id="path7-4" /><path
       fill="#8c4200"
       d="m 324.71808,246.75798 c 0,0 22.725,1.584 36.666,-1.152 0,0 1.17,0.72 -0.504,2.52 -1.683,1.8 -5.94,2.187 -8.28,2.574 0,0 -0.567,1.152 -0.522,1.755 0.054,0.603 1.476,0.54 2.178,0.405 l 0.701,-0.126 c 0,0 -0.333,2.25 -8.937,2.547 -2.825,0.1 -12.132,0.28 -14.103,-2.25 0,0 1.71,0.126 2.151,0 0.45,-0.125 0.118,-1.755 -0.045,-1.989 -0.162,-0.234 -6.03,0 -9.126,-2.61 -0.765,-0.746 -1.125,-1.548 -1.125,-1.827 0,-0.027 0.936,0.153 0.936,0.153 z m 11.844,4.365 c 0,0 6.219,0.729 13.374,0 0,0 0.19,1.242 -0.135,1.71 -0.325,0.477 -8.586,0.837 -12.753,0.18 -0.667,-0.197 -0.693,-0.944 -0.486,-1.89 z"
       id="path8-7" /><path
       fill="#fdf9ff"
       d="m 328.84008,245.05698 c 0,0 7.2,-9.036 4.887,-24.66 11.133,6.192 20.592,15.525 23.166,24.192 -10.098,-2.34 -19.017,-0.72 -28.053,0.468 z"
       id="path9-9" /><path
       d="m 365.90245,97.582976 c 0,0 -72.23437,49.239834 -72.23437,107.298834 0,58.068 72.23437,108.70117 72.23437,108.70117 0,0 71.76563,-46.45717 71.76563,-108.70117 0,-62.235 -71.76563,-107.298834 -71.76563,-107.298834 z m -0.0273,11.916024 c 0,0 63.8457,40.08589 63.8457,95.46289 0,55.377 -63.8457,96.70507 -63.8457,96.70507 0,0 -64.25976,-45.04507 -64.25976,-96.70507 0,-51.66 64.25976,-95.46289 64.25976,-95.46289 z"
       style="fill:#c62139"
       id="path16-1" /><path
       fill="#8c4200"
       stroke="#000000"
       stroke-width="0.141"
       d="m 384.98208,257.67498 c 1.152,4.068 2.367,5.454 7.038,6.498 4.608,1.044 11.646,-3.06 7.29,-7.038 -4.158,-3.708 -8.532,-4.653 -12.258,-7.992 -5.769,-5.238 -13.689,-16.074 -17.451,-26.316 -4.113,-11.205 -3.402,-42.732 -3.213,-58.707 0,-0.18 0.495,-0.297 0.558,-0.369 0.27,-0.36 0.522,0.108 0.099,-2.232 -0.108,-0.603 -0.63,-1.224 -0.63,-1.827 0.009,-1.08 -4.077,1.179 -5.148,3.114 -0.252,0.441 0.783,1.701 0.783,1.944 0.135,15.327 -1.665,45.585 2.781,59.283 2.745,8.478 7.767,15.03 12.303,21.087 2.727,3.879 6.66,8.073 7.848,12.555 z"
       id="path11-8" /><path
       fill="#109421"
       stroke="#000000"
       stroke-width="0.141"
       d="m 323.46708,159.59298 c 0.297,0.36 0.252,1.944 0.252,1.944 0.234,0.126 4.086,-3.006 4.086,-2.862 0,0.657 0.09,2.016 0.09,2.016 0,0 3.987,-3.465 4.149,-3.105 0.18,0.414 -0.018,2.43 -0.018,2.43 l 3.141,-3.168 c 0.351,-0.342 0.297,0.441 0.324,1.692 0.009,0.225 4.347,-2.925 4.608,-2.979 0.567,-0.117 0.738,1.638 0.711,2.07 -0.027,0.324 4.005,-2.097 3.825,-1.782 l 0.297,1.863 c 1.125,-0.135 3.798,-1.053 5.4,-0.81 0.522,0.072 0.495,0.306 0.036,0.486 -7.749,2.871 -13.716,7.2 -17.19,13.23 -1.179,2.061 -1.539,3.852 -1.224,4.302 0,0 1.386,-2.745 2.961,-3.177 0.207,-0.054 0.351,1.764 0.567,1.656 0,0 1.188,-2.745 2.043,-3.762 0.234,-0.27 0.612,1.44 0.864,1.188 0,0 0.612,-1.836 1.827,-3.123 0.171,-0.18 0.486,1.746 0.675,1.584 1.26,-1.062 2.43,-3.717 2.898,-3.915 0.333,-0.234 0.387,2.205 0.702,1.998 0,0 1.791,-3.294 2.853,-3.888 0.693,-0.387 0.666,1.8 0.666,1.8 1.359,-1.233 2.862,-3.276 3.573,-4.158 0.333,-0.414 0.153,2.682 0.495,2.808 0.45,0.153 3.393,-2.376 3.717,-2.43 0.225,-0.027 0.477,0.72 -0.09,1.332 l -3.636,3.834 c 0.702,0.126 0.972,-0.054 1.467,0.063 1.494,0.36 -2.79,2.61 -2.709,3.024 0,0 2.061,-0.036 1.368,0.333 -0.495,0.27 -3.222,3.474 -3.222,3.357 0,-0.054 1.368,0.027 1.359,0.387 -0.009,0.666 -2.259,4.095 -2.286,4.077 -0.117,-0.108 1.215,-0.144 1.395,0.189 0.333,0.63 -2.313,3.402 -1.8,3.87 0.072,0.072 1.512,0.027 2.151,0.153 0.306,0.063 1.17,5.04 0.954,4.842 a 43.497,43.497 0 0 1 1.521,-6.075 c 0.36,-0.846 1.521,1.287 1.611,1.098 -0.045,0 -0.234,-3.033 -0.072,-4.419 0.045,-0.387 0.882,0.405 0.864,0.036 -0.027,-0.837 -0.099,-1.737 0.09,-2.556 0.135,-0.612 0.846,1.116 1.125,0.648 0,0 -0.864,-3.006 -0.504,-3.852 0.234,-0.558 0.81,1.35 1.188,1.422 0,0 -0.216,-2.34 0.18,-2.934 l 1.197,1.17 c 0.261,-0.378 0.207,-4.023 0.45,-4.356 0.198,-0.288 1.44,1.359 1.62,1.107 0.171,-0.243 -0.522,-2.943 -0.36,-3.15 0.216,-0.315 1.575,0.747 1.602,0.72 0.549,-0.504 0.54,-1.782 0.765,-2.25 0.63,-1.278 4.212,-1.44 4.635,-0.54 0.207,0.45 0.063,1.017 -0.018,1.71 0.027,0.018 1.8,0.135 1.8,0.009 0,0 -0.207,1.512 -0.081,3.168 0.018,0.225 1.791,-0.054 1.818,0.171 0.153,1.557 -0.234,1.71 -0.234,1.71 0.018,0.108 1.197,-0.18 1.215,-0.054 a 4.032,4.032 0 0 1 -0.666,2.583 c -0.09,0.126 1.683,-0.126 1.71,0.027 0.216,1.17 0.252,2.106 0.036,3.762 -0.018,0.126 1.728,-1.17 1.755,-1.035 0.27,1.386 -0.045,2.889 0.117,4.338 0.036,0.333 1.152,-0.999 1.26,-0.612 0.09,0.378 -0.252,3.132 -0.09,3.294 0,0 1.881,-0.09 2.043,0.054 1.485,1.278 1.206,3.51 1.206,3.51 0.405,-0.279 0.252,-2.97 -0.162,-5.418 -0.045,-0.261 1.44,-0.162 1.395,-0.405 0,0 -1.62,-0.9 -2.16,-3.393 -0.117,-0.531 1.566,-0.423 1.566,-0.423 -0.468,-0.981 -1.287,-1.17 -1.98,-2.115 -0.225,-0.306 1.746,-0.45 1.746,-0.54 0,-0.936 -1.665,-1.386 -2.529,-2.367 -0.369,-0.414 1.8,-0.441 1.8,-0.441 -0.63,-0.81 -2.736,-1.17 -3.807,-2.232 -0.576,-0.585 2.133,-1.161 2.097,-1.26 -0.297,-0.855 -2.844,-1.125 -4.086,-2.097 -0.252,-0.198 1.62,-0.873 1.62,-0.873 -0.189,-0.36 -4.266,-2.817 -2.196,-2.592 0.882,0.09 2.655,1.233 2.79,1.062 0,0 -0.072,-1.44 0.108,-1.602 0.684,-0.648 3.033,2.745 3.825,2.61 0,0 0.297,-2.43 0.657,-2.502 0.864,-0.144 1.908,3.546 2.754,3.546 0.117,0 0.18,-2.133 0.612,-2.25 0.495,-0.135 1.053,2.394 1.674,2.952 0.576,0.513 0.585,-1.98 0.927,-1.503 0.576,0.765 0.72,2.358 1.503,3.06 0.513,0.45 0.603,-2.196 1.17,-1.845 0.666,0.414 0.513,1.782 1.251,2.457 0.36,0.324 0.594,-1.746 0.99,-1.44 0.36,0.27 0.603,2.79 0.99,3.195 0.486,0.513 1.053,-1.332 1.557,-1.044 0.36,0.216 0.279,2.403 0.621,2.88 0.693,0.972 1.053,-1.179 1.512,-0.846 0.324,0.225 1.017,2.736 1.305,2.934 0.639,0.45 0.99,-1.143 1.485,-0.918 0.36,0.162 1.071,3.402 1.368,3.321 0.18,-0.054 0.666,-7.389 -2.421,-10.485 -5.013,-5.04 -14.004,-7.947 -21.339,-8.019 0,0 3.69,-0.675 3.78,-1.233 0.198,-1.116 2.025,-0.99 3.303,-0.72 0.225,0.036 0.108,-1.98 0.135,-1.98 1.143,-0.036 2.16,0.585 3.258,1.188 0.333,0.198 -0.693,-2.016 -0.333,-1.827 1.404,0.747 2.97,0.963 3.906,1.863 0.252,0.234 -0.279,-1.701 -0.279,-1.701 0.693,-0.153 2.07,0.765 2.619,1.638 0.27,0.423 -0.018,-2.259 0.189,-1.782 0,0 2.448,0.756 2.7,1.692 0,0 0.207,-1.701 0.54,-1.611 0.972,0.234 1.836,1.746 2.601,1.971 0,0 -0.324,-1.521 -0.072,-1.467 1.836,0.432 3.834,1.467 3.834,1.467 -1.035,-2.376 -4.968,-4.86 -11.88,-5.526 a 42.687,42.687 0 0 0 -10.782,0.612 c -3.573,0.756 -6.39,1.188 -5.814,0.675 2.358,-2.124 6.183,-2.385 7.236,-2.88 0.747,-0.351 -2.538,-1.512 -1.89,-1.674 0.657,-0.144 3.591,-0.36 3.591,-0.36 0.63,-0.459 -2.133,-1.35 -1.719,-2.016 0.828,-1.323 5.724,-0.117 6.147,-0.63 0.135,-0.162 -2.106,-1.377 -2.016,-1.557 0.36,-0.666 4.716,0.504 4.824,-0.09 0,0 -1.323,-0.9 -2.268,-1.638 -0.108,-0.09 3.897,-1.08 3.897,-1.08 a 6.597,6.597 0 0 0 -1.602,-0.792 c -0.846,-0.297 3.51,-1.332 3.51,-1.332 -5.517,-2.313 -19.845,4.257 -22.689,11.079 -0.738,1.629 -0.765,-0.144 -0.603,-1.521 0.144,-1.485 0.351,-2.79 0.18,-4.14 -0.063,-0.405 -1.17,1.071 -1.26,0.675 -0.279,-1.44 0.567,-3.033 0.18,-4.644 -0.126,-0.54 -1.611,1.593 -1.8,1.053 -0.549,-1.485 0.396,-3.573 0.018,-5.625 -0.153,-0.801 -1.557,1.71 -2.025,0.999 -0.549,-0.828 -0.315,-3.906 -0.576,-4.374 -0.207,-0.378 -1.458,1.476 -1.566,1.125 -1.692,-5.643 0.558,-6.345 -2.7,-3.168 -0.108,0.117 -0.828,-3.33 -0.954,-3.222 -1.332,2.61 -3.51,-1.854 -4.266,-1.44 -0.558,0.315 1.53,2.052 1.548,2.826 0.009,0.378 -1.917,0.405 -1.917,0.405 0.045,0.639 3.663,2.448 3.78,3.15 0.09,0.585 -2.556,0.45 -2.556,0.45 0.081,0.783 3.096,1.53 3.258,2.376 0.09,0.45 -1.413,0.558 -1.359,1.035 0.081,0.72 2.916,2.142 3.006,2.88 0.063,0.504 -1.809,0.72 -1.854,1.188 -0.054,0.576 3.762,2.511 3.771,3.06 0,0.756 -1.53,0.36 -2.214,0.747 -0.981,0.54 3.123,2.736 3.303,3.366 0.135,0.54 -1.647,0.063 -1.71,0.558 -0.072,0.657 2.016,1.647 2.493,2.772 0.477,1.107 -0.009,1.395 -0.693,0.954 -1.377,-0.891 -6.921,-6.282 -8.397,-7.722 a 17.838,17.838 0 0 0 -10.89,-4.563 c -0.45,0.126 2.358,1.944 2.376,2.601 0,0.171 -1.26,0.423 -1.206,0.468 0.774,0.72 3.195,1.557 3.195,1.557 l -0.693,1.143 c 0.162,0.333 1.305,0.423 3.132,0.981 0,0 -1.368,0.774 -1.26,0.846 0.963,0.72 2.844,1.233 2.844,1.233 l -1.854,0.576 c -0.108,0.324 4.176,1.89 4.176,1.89 0,0 -1.341,1.062 -1.278,1.116 0.324,0.297 3.465,0.963 3.465,0.963 0.054,0.045 -2.214,0.693 -2.205,0.711 0.828,0.756 3.105,0.999 3.636,2.25 0,0 0.306,0.711 -0.594,0.576 -3.537,-1.179 -9.018,-3.609 -19.647,-2.655 -10.872,1.296 -19.152,9.945 -19.008,10.8 0,0 3.888,-2.547 4.293,-2.025 z"
       id="path12-0" /><circle
       cx="362.34705"
       cy="159.51198"
       r="2.5739999"
       fill="#8c4200"
       stroke="#000000"
       stroke-linecap="round"
       stroke-linejoin="round"
       stroke-miterlimit="33"
       stroke-width="0.141"
       paint-order="markers fill stroke"
       id="circle12-2" /><circle
       cx="362.11307"
       cy="163.73297"
       r="2.5739999"
       fill="#8c4200"
       stroke="#000000"
       stroke-linecap="round"
       stroke-linejoin="round"
       stroke-miterlimit="33"
       stroke-width="0.141"
       paint-order="markers fill stroke"
       id="circle13-9" /><circle
       cx="365.65005"
       cy="158.54898"
       r="2.5739999"
       fill="#8c4200"
       stroke="#000000"
       stroke-linecap="round"
       stroke-linejoin="round"
       stroke-miterlimit="33"
       stroke-width="0.141"
       paint-order="markers fill stroke"
       id="circle14-5" /><circle
       cx="366.03705"
       cy="162.13098"
       r="2.5739999"
       fill="#8c4200"
       stroke="#000000"
       stroke-linecap="round"
       stroke-linejoin="round"
       stroke-miterlimit="33"
       stroke-width="0.141"
       paint-order="markers fill stroke"
       id="circle15-8" /><path
       fill="#bd0728"
       d="m 334.97808,207.10398 q -0.18,0 -0.243,0.153 -0.063,0.135 -0.09,0.368 h -0.27 v -3.69 h 0.27 q 0.045,0.477 0.333,0.477 h 6.552 v 0.315 q -0.36,0.027 -0.36,0.45 v 4.375 q 0,0.18 0.045,0.314 0.045,0.136 0.225,0.136 h 0.108 v 0.315 q -3.015,1.89 -7.146,1.89 -1.395,0 -2.7,-0.387 -1.296,-0.423 -2.295,-1.296 -0.99,-0.864 -1.62,-2.187 -0.594,-1.35 -0.594,-3.132 0,-1.782 0.594,-3.114 0.63,-1.34 1.62,-2.214 0.999,-0.9 2.286,-1.314 1.314,-0.45 2.71,-0.45 0.557,0 0.98,0.027 0.414,0.027 0.81,0.107 0.405,0.081 0.828,0.208 0.423,0.107 0.999,0.296 0.558,0.18 1.026,0.45 0.459,0.235 0.594,0.235 0.18,0 0.315,-0.216 l 0.27,0.107 -1.45,3.475 -0.27,-0.181 q 0.046,-0.162 0.046,-0.288 0,-0.18 -0.378,-0.396 -0.379,-0.243 -0.955,-0.424 -0.576,-0.18 -1.305,-0.315 -0.72,-0.135 -1.404,-0.135 -0.792,0 -1.53,0.27 -0.711,0.234 -1.287,0.755 -0.549,0.531 -0.882,1.323 -0.333,0.765 -0.333,1.845 0,1.053 0.396,1.845 0.397,0.765 1,1.26 0.62,0.504 1.376,0.738 0.756,0.235 1.486,0.235 0.936,0 1.665,-0.126 0.755,-0.135 1.44,-0.369 v -1.737 z m 20.664,-8.181 q 0,-0.198 -0.108,-0.297 -0.081,-0.135 -0.478,-0.189 v -0.324 h 4.302 v 0.324 q -0.395,0.054 -0.495,0.18 -0.09,0.108 -0.09,0.296 v 7.146 q 0,1.755 -0.45,2.952 -0.45,1.206 -1.242,1.917 -0.774,0.72 -1.836,1.017 -1.044,0.27 -2.241,0.27 -1.188,0 -2.25,-0.27 -1.053,-0.296 -1.845,-1.017 -0.774,-0.72 -1.233,-1.917 -0.44,-1.196 -0.44,-2.951 v -7.146 q 0,-0.18 -0.099,-0.288 -0.09,-0.135 -0.486,-0.19 v -0.324 h 4.311 v 0.325 q -0.396,0.054 -0.504,0.18 -0.09,0.108 -0.09,0.296 v 7.146 q 0,1.539 0.693,2.205 0.694,0.666 1.944,0.666 1.26,0 1.944,-0.666 0.685,-0.666 0.694,-2.205 z m 16.632,12.699 q 0,0.135 0.072,0.216 0.09,0.054 0.36,0.054 v 0.324 h -4.212 v -0.333 q 0.27,-0.054 0.378,-0.162 0.126,-0.135 0.243,-0.45 l 0.234,-0.729 q 0.19,-0.584 0.504,-1.476 l 0.684,-2.007 0.765,-2.223 0.738,-2.223 0.666,-1.962 q 0.288,-0.855 0.45,-1.395 l 0.19,-0.557 q 0,-0.136 -0.162,-0.19 -0.144,-0.054 -0.315,-0.08 v -0.324 h 6.21 v 0.323 q -0.18,0.027 -0.307,0.081 -0.117,0.054 -0.117,0.27 0,0.054 0.208,0.693 0.243,0.648 0.603,1.692 l 0.81,2.331 0.972,2.655 0.954,2.62 0.855,2.312 q 0.18,0.477 0.307,0.64 0.144,0.162 0.36,0.162 v 0.323 h -4.69 v -0.324 q 0.45,-0.027 0.45,-0.324 l -0.116,-0.351 -0.27,-0.747 -0.27,-0.81 q -0.128,-0.36 -0.155,-0.504 h -5.634 q -0.243,0.72 -0.378,1.179 l -0.243,0.72 -0.117,0.405 -0.027,0.162 z m 5.787,-4.608 -2.313,-6.381 -2.115,6.381 z m 22.086,4.977 q 0.432,-0.054 0.53,-0.153 0.11,-0.135 0.11,-0.324 v -9.864 l -0.046,-0.054 -4.077,10.395 -4.023,-10.503 h -0.045 v 10.026 q 0,0.18 0.09,0.324 0.117,0.1 0.55,0.153 v 0.325 h -4.033 v -0.325 q 0.44,-0.054 0.531,-0.153 0.117,-0.135 0.117,-0.324 v -12.501 q 0,-0.18 -0.117,-0.297 -0.09,-0.125 -0.53,-0.18 v -0.324 h 5.975 v 0.324 q -0.54,0.027 -0.54,0.477 l 0.125,0.432 0.352,0.99 0.477,1.287 q 0.27,0.666 0.504,1.314 0.252,0.613 0.432,1.098 0.18,0.486 0.252,0.64 0.387,-1.018 0.81,-1.98 0.424,-0.964 0.72,-1.765 0.352,-0.81 0.558,-1.35 0.198,-0.53 0.198,-0.666 0,-0.45 -0.54,-0.477 v -0.324 h 6.202 v 0.324 q -0.441,0.054 -0.55,0.18 -0.09,0.109 -0.09,0.297 v 12.492 q 0,0.18 0.09,0.324 0.109,0.099 0.54,0.152 v 0.325 h -4.571 z"
       paint-order="markers fill stroke"
       id="path15-4" /></g></g></svg>
