<?xml version="1.0" encoding="UTF-8" standalone="no"?>
<svg
   xmlns:dc="http://purl.org/dc/elements/1.1/"
   xmlns:cc="http://creativecommons.org/ns#"
   xmlns:rdf="http://www.w3.org/1999/02/22-rdf-syntax-ns#"
   xmlns:svg="http://www.w3.org/2000/svg"
   xmlns="http://www.w3.org/2000/svg"
   xmlns:xlink="http://www.w3.org/1999/xlink"
   xmlns:sodipodi="http://sodipodi.sourceforge.net/DTD/sodipodi-0.dtd"
   xmlns:inkscape="http://www.inkscape.org/namespaces/inkscape"
   width="400"
   height="300"
   viewBox="-1440 -960 1280 960"
   version="1.1"
   id="svg85"
   sodipodi:docname="mo.svg"
   inkscape:version="1.0.2-2 (e86c870879, 2021-01-15)">
  <metadata
     id="metadata89">
    <rdf:RDF>
      <cc:Work
         rdf:about="">
        <dc:format>image/svg+xml</dc:format>
        <dc:type
           rdf:resource="http://purl.org/dc/dcmitype/StillImage" />
        <dc:title></dc:title>
      </cc:Work>
    </rdf:RDF>
  </metadata>
  <sodipodi:namedview
     pagecolor="#ffffff"
     bordercolor="#666666"
     borderopacity="1"
     objecttolerance="10"
     gridtolerance="10"
     guidetolerance="10"
     inkscape:pageopacity="0"
     inkscape:pageshadow="2"
     inkscape:window-width="1916"
     inkscape:window-height="2041"
     id="namedview87"
     showgrid="false"
     inkscape:zoom="0.5939697"
     inkscape:cx="268.11028"
     inkscape:cy="162.22051"
     inkscape:window-x="1611"
     inkscape:window-y="288"
     inkscape:window-maximized="0"
     inkscape:current-layer="svg85" />
  <defs
     id="defs38">
    <clipPath
       id="b">
      <path
         d="M -224,0 H 224 V 400 H -224 Z"
         id="path2" />
    </clipPath>
    <clipPath
       id="o4">
      <circle
         cx="-158"
         cy="-149"
         r="324.5"
         id="circle5" />
    </clipPath>
    <clipPath
       id="o3">
      <circle
         cx="-199"
         cy="-118"
         r="324.5"
         id="circle8" />
    </clipPath>
    <clipPath
       id="o2">
      <circle
         cx="-212"
         cy="-100"
         r="324.5"
         id="circle11" />
    </clipPath>
    <clipPath
       id="o1">
      <circle
         cy="-38"
         r="576"
         id="circle14"
         cx="0" />
    </clipPath>
    <clipPath
       id="o6">
      <circle
         cx="-182"
         cy="-96"
         r="324.5"
         id="circle17" />
    </clipPath>
    <clipPath
       id="o7">
      <circle
         cx="-213"
         cy="-91"
         r="324.5"
         id="circle20" />
    </clipPath>
    <clipPath
       id="o8">
      <circle
         cx="-234"
         cy="-64"
         r="324.5"
         id="circle23" />
    </clipPath>
    <g
       id="s">
      <g
         id="B">
        <path
           id="A"
           d="M 0,0 V 1 H 0.5 Z"
           fill="#ffde23"
           transform="rotate(18,3.1568758,-0.5)" />
        <use
           xlink:href="#A"
           transform="scale(-1,1)"
           id="use27"
           x="0"
           y="0"
           width="100%"
           height="100%" />
      </g>
      <g
         id="C">
        <use
           xlink:href="#B"
           transform="rotate(72)"
           id="use30"
           x="0"
           y="0"
           width="100%"
           height="100%" />
        <use
           xlink:href="#B"
           transform="rotate(-144)"
           id="use32"
           x="0"
           y="0"
           width="100%"
           height="100%" />
      </g>
      <use
         xlink:href="#C"
         transform="rotate(72)"
         id="use35"
         x="0"
         y="0"
         width="100%"
         height="100%" />
    </g>
  </defs>
  <path
     d="M -1440,-960 H -160 V 0 h -1280 z"
     fill="#0f7562"
     id="path40"
     style="stroke-width:0.471405" />
  <g
     id="g936"
     transform="matrix(0.47887324,0,0,0.47887324,-800,-465.6338)">
    <g
       clip-path="url(#b)"
       fill="#ffffff"
       id="g46">
      <circle
         cx="-209"
         cy="-7"
         r="324.5"
         id="circle42" />
      <circle
         cx="209"
         cy="-7"
         r="324.5"
         id="circle44" />
    </g>
    <circle
       cx="224"
       cy="-39"
       r="324.5"
       fill="#0f7562"
       id="circle48" />
    <circle
       cx="-224"
       cy="-39"
       r="324.5"
       fill="#0f7562"
       id="circle50" />
    <g
       clip-path="url(#o1)"
       fill="#ffffff"
       id="g54">
      <path
         d="m -500,285.5 h 291 v 32 h -291 z m 0,65 H 500 v 16 H -500 Z m 0,49 H 500 v 25 H -500 Z m 0,50 H 500 v 32 H -500 Z m 0,48 H 500 v 50 H -500 Z M 500,285.5 H 209 v 32 h 291 z"
         id="path52" />
    </g>
    <circle
       cx="158"
       cy="-149"
       r="324.5"
       clip-path="url(#o4)"
       fill="#ffffff"
       id="circle56" />
    <circle
       cx="199"
       cy="-118"
       r="324.5"
       clip-path="url(#o3)"
       fill="#0f7562"
       id="circle58" />
    <circle
       cy="-346"
       r="130"
       fill="#0f7562"
       id="circle60"
       cx="0" />
    <circle
       cx="212"
       cy="-100"
       r="324.5"
       clip-path="url(#o2)"
       fill="#ffffff"
       id="circle62" />
    <g
       id="h">
      <circle
         cx="-379"
         cy="307"
         r="381.5"
         clip-path="url(#o8)"
         fill="#ffffff"
         id="circle64" />
      <circle
         cx="-370"
         cy="343"
         r="381.5"
         clip-path="url(#o7)"
         fill="#0f7562"
         id="circle66" />
      <circle
         cx="-485"
         cy="21"
         r="130"
         fill="#0f7562"
         id="circle68" />
      <g
         clip-path="url(#o8)"
         fill="#ffffff"
         id="g74">
        <circle
           cx="-339"
           cy="372"
           r="381.5"
           clip-path="url(#o6)"
           id="circle70" />
        <path
           d="m -100,50 60,50 h 50 v 100 h -60 z"
           id="path72" />
      </g>
      <use
         xlink:href="#s"
         transform="matrix(59.798099,-41.87108,41.87108,59.798099,-260.69049,-410.3046)"
         id="use76"
         x="0"
         y="0"
         width="100%"
         height="100%" />
      <use
         xlink:href="#s"
         transform="matrix(30.851133,-66.160468,66.160468,30.851133,-411.91689,-230.08)"
         id="use78"
         x="0"
         y="0"
         width="100%"
         height="100%" />
    </g>
    <use
       xlink:href="#h"
       transform="scale(-1,1)"
       id="use81"
       x="0"
       y="0"
       width="100%"
       height="100%"
       style="fill:#ffffff" />
    <use
       xlink:href="#s"
       transform="matrix(105.5,0,0,105.5,0,-492.5)"
       id="use83"
       x="0"
       y="0"
       width="100%"
       height="100%" />
  </g>
</svg>
