<?xml version="1.0" encoding="UTF-8" standalone="no"?>
<svg
   xmlns:dc="http://purl.org/dc/elements/1.1/"
   xmlns:cc="http://creativecommons.org/ns#"
   xmlns:rdf="http://www.w3.org/1999/02/22-rdf-syntax-ns#"
   xmlns:svg="http://www.w3.org/2000/svg"
   xmlns="http://www.w3.org/2000/svg"
   xmlns:xlink="http://www.w3.org/1999/xlink"
   xmlns:sodipodi="http://sodipodi.sourceforge.net/DTD/sodipodi-0.dtd"
   xmlns:inkscape="http://www.inkscape.org/namespaces/inkscape"
   width="400"
   height="300"
   version="1.1"
   id="svg31"
   sodipodi:docname="nc.svg"
   inkscape:version="1.0.2-2 (e86c870879, 2021-01-15)">
  <metadata
     id="metadata37">
    <rdf:RDF>
      <cc:Work
         rdf:about="">
        <dc:format>image/svg+xml</dc:format>
        <dc:type
           rdf:resource="http://purl.org/dc/dcmitype/StillImage" />
        <dc:title>Flag of New Caledonia</dc:title>
      </cc:Work>
    </rdf:RDF>
  </metadata>
  <defs
     id="defs35" />
  <sodipodi:namedview
     pagecolor="#ffffff"
     bordercolor="#666666"
     borderopacity="1"
     objecttolerance="10"
     gridtolerance="10"
     guidetolerance="10"
     inkscape:pageopacity="0"
     inkscape:pageshadow="2"
     inkscape:window-width="1916"
     inkscape:window-height="2041"
     id="namedview33"
     showgrid="false"
     inkscape:zoom="1.6944444"
     inkscape:cx="450"
     inkscape:cy="225"
     inkscape:window-x="3531"
     inkscape:window-y="288"
     inkscape:window-maximized="0"
     inkscape:current-layer="svg31" />
  <title
     id="title2">Flag of New Caledonia</title>
  <g
     id="g896">
    <g
       id="g890">
      <rect
         fill="#009543"
         width="400"
         height="300"
         id="rect4"
         x="0"
         y="0"
         style="stroke-width:0.544331" />
    </g>
    <rect
       fill="#ed4135"
       width="400"
       height="200"
       id="rect6"
       x="0"
       y="0"
       style="stroke-width:0.544331" />
    <rect
       fill="#0035ad"
       width="400"
       height="100"
       id="rect8"
       x="0"
       y="0"
       style="stroke-width:0.544331" />
  </g>
  <g
     id="g887"
     transform="translate(1.4972749,-1.9016403)">
    <g
       id="g873"
       transform="matrix(0.63433802,0,0,0.63433802,249.19083,154.56378)">
      <circle
         stroke="#000000"
         stroke-width="0.888889"
         fill="#fae600"
         cx="-192.48088"
         cy="-4.1967211"
         id="circle10"
         r="131.09332" />
      <path
         stroke="#000000"
         stroke-width="0.888889"
         d="m -214.7031,15.358839 h 44.44445 m -44.44445,-32.88889 h 44.44445 M -192.48087,-134.86339 V 89.136609"
         id="path12" />
      <path
         d="m -245.2631,116.17572 c 53.50312,21.84889 103.65156,1.34223 103.65156,1.34223 0,0 -18.93067,-20.487111 -28.63467,-28.486231 -9.46933,-7.80266 -37.32533,-7.49422 -46.83111,0 -7.93244,6.256 -30.68444,29.306671 -28.18578,27.144001 z"
         id="path14"
         style="stroke-width:0.888889" />
      <ellipse
         cx="-192.48088"
         cy="56.247738"
         rx="14.666667"
         ry="21.333334"
         id="ellipse16"
         style="stroke-width:0.888889" />
      <ellipse
         cx="-192.48088"
         cy="-1.0856068"
         rx="17.777779"
         ry="11.253333"
         id="ellipse18"
         style="stroke-width:0.888889" />
      <circle
         cx="-192.48088"
         cy="-53.085606"
         id="ellipse20"
         r="17.777779"
         style="stroke-width:0.888889" />
      <path
         d="m -171.14754,-119.30783 c -0.005,-0.0119 1.54044,2.55182 -1.70044,8.38755 -15.48978,27.895999 -31.03378,28.498669 -33.984,30.901339 -3.25156,2.64711 -4.624,2.46578 -4.624,2.46578 0.232,-2.38934 0.448,-12.15912 0.61777,-13.10045 2.35111,-13.033779 22.04089,-12.854219 37.45067,-26.200439 2.40711,-2.08489 2.23467,-2.46569 2.23467,-2.46569 z"
         id="path22"
         style="stroke-width:0.888889" />
      <g
         id="leaf"
         transform="matrix(0.88888889,0,0,0.88888889,-459.14754,-204.19672)">
        <path
           d="m 265.5,163 c 0,0 3.91436,11.22974 4.5,22.5 0.93516,17.99657 18.18031,18.5 30,18.5 v -10 c -8.85851,0 -16.55267,-1.31658 -23,-14.5 -3.18045,-6.50336 -11.5,-16.5 -11.5,-16.5 z"
           id="path24" />
        <path
           d="m 265,308 c 0,0 6.29638,-7.76543 13.6619,-25.97461 C 282.5048,272.5249 291.6115,267 300,267 v -14 c -19.02757,0 -28.1503,7.0552 -29.11281,17.36332 C 268.90975,291.54089 265,308 265,308 Z"
           id="path26" />
      </g>
      <use
         xlink:href="#leaf"
         transform="matrix(-1,0,0,1,-384.96175,-1.3114754e-6)"
         id="use29"
         x="0"
         y="0"
         width="100%"
         height="100%" />
    </g>
  </g>
</svg>
